<svg width="0" height="0" class="hidden">
  <symbol xmlns="http://www.w3.org/2000/svg" viewBox="0 -960 960 960" id="icon_sdk">
    <path d="M200-120q-33 0-56.5-23.5T120-200v-500q0-14 4.5-26.5T138-750l56-68q9-11 20.5-16.5T240-840h480q14 0 25.5 5.5T766-818l56 68q9 11 13.5 23.5T840-700v500q0 33-23.5 56.5T760-120H200Zm16-600h528l-34-40H250l-34 40Zm-16 520h560v-440H200v440Zm382-78 142-142-142-142-58 58 84 84-84 84 58 58Zm-202 0 58-58-84-84 84-84-58-58-142 142 142 142Zm-180 78v-440 440Z"></path>
  </symbol>
  <symbol xmlns="http://www.w3.org/2000/svg" viewBox="0 -960 960 960" id="icon_settings_power">
    <path d="M440-480v-400h80v400h-80Zm40 280q-134 0-227-93t-93-227q0-79 36.5-148T298-782l58 58q-54 32-85 86.5T240-520q0 100 70 170t170 70q100 0 170-70t70-170q0-63-31-117.5T604-724l58-58q65 45 101.5 114T800-520q0 134-93 227t-227 93ZM320 0q-17 0-28.5-11.5T280-40q0-17 11.5-28.5T320-80q17 0 28.5 11.5T360-40q0 17-11.5 28.5T320 0Zm160 0q-17 0-28.5-11.5T440-40q0-17 11.5-28.5T480-80q17 0 28.5 11.5T520-40q0 17-11.5 28.5T480 0Zm160 0q-17 0-28.5-11.5T600-40q0-17 11.5-28.5T640-80q17 0 28.5 11.5T680-40q0 17-11.5 28.5T640 0Z"></path>
  </symbol>
  <symbol xmlns="http://www.w3.org/2000/svg" viewBox="0 -960 960 960" id="icon_stars">
    <path d="m320-240 160-122 160 122-60-198 160-114H544l-64-208-64 208H220l160 114-60 198ZM480-80q-83 0-156-31.5T197-197q-54-54-85.5-127T80-480q0-83 31.5-156T197-763q54-54 127-85.5T480-880q83 0 156 31.5T763-763q54 54 85.5 127T880-480q0 83-31.5 156T763-197q-54 54-127 85.5T480-80Zm0-80q134 0 227-93t93-227q0-134-93-227t-227-93q-134 0-227 93t-93 227q0 134 93 227t227 93Zm0-320Z"></path>
  </symbol>
  <symbol xmlns="http://www.w3.org/2000/svg" viewBox="0 -960 960 960" id="icon_timer_10">
    <path d="M330-270h80v-340H290v80h40v260Zm200 0h60q33 0 56.5-23.5T670-350v-180q0-33-23.5-56.5T590-610h-60q-33 0-56.5 23.5T450-530v180q0 33 23.5 56.5T530-270Zm0-80v-180h60v180h-60ZM360-840v-80h240v80H360ZM480-80q-74 0-139.5-28.5T226-186q-49-49-77.5-114.5T120-440q0-74 28.5-139.5T226-694q49-49 114.5-77.5T480-800q62 0 119 20t107 58l56-56 56 56-56 56q38 50 58 107t20 119q0 74-28.5 139.5T734-186q-49 49-114.5 77.5T480-80Zm0-80q116 0 198-82t82-198q0-116-82-198t-198-82q-116 0-198 82t-82 198q0 116 82 198t198 82Zm0-280Z"></path>
  </symbol>
  <symbol xmlns="http://www.w3.org/2000/svg" viewBox="0 -960 960 960" id="icon_today">
    <path d="M360-300q-42 0-71-29t-29-71q0-42 29-71t71-29q42 0 71 29t29 71q0 42-29 71t-71 29ZM200-80q-33 0-56.5-23.5T120-160v-560q0-33 23.5-56.5T200-800h40v-80h80v80h320v-80h80v80h40q33 0 56.5 23.5T840-720v560q0 33-23.5 56.5T760-80H200Zm0-80h560v-400H200v400Zm0-480h560v-80H200v80Zm0 0v-80 80Z"></path>
  </symbol>
</svg>