<?xml version="1.0" encoding="utf-8"?>
<!-- Generator: Adobe Illustrator 24.0.2, SVG Export Plug-In . SVG Version: 6.00 Build 0)  -->
<svg version="1.1" id="Capa_1" xmlns="http://www.w3.org/2000/svg" xmlns:xlink="http://www.w3.org/1999/xlink" x="0px" y="0px"
	 viewBox="0 0 217.1 45.4" style="enable-background:new 0 0 217.1 45.4;" xml:space="preserve">
<style type="text/css">
	.st0{fill:#F7B289;}
	.st1{fill:#767676;}
</style>
<g>
	<g>
		<polygon class="st0" points="13.6,12.2 16.1,9.8 10.4,2.2 2,2.2 2,43.3 10.1,43.3 23.2,26.2 21.1,23.7 6.6,42.2 3,42.2 3,3.2 
			6.8,3.2 		"/>
		<polygon class="st0" points="14.3,27.9 14.9,27.2 9.5,20.7 21.5,5.8 35.2,5.8 24.9,18.8 27.1,21.7 42.7,2.3 23.2,2.3 8.5,20.6 		
			"/>
		<path class="st0" d="M19,19l2.5-2.8L42.2,43H26.6L19,33.5h1.1L27,42h9.3c0,0,1.5,0.2,0.2-1.1L19,19z"/>
	</g>
	<g>
		<path class="st1" d="M75.5,33.8c0,0.4-0.3,0.8-0.9,1.1c-1.2,0.7-2.9,1.3-4.9,1.7c-1.8,0.4-3.6,0.6-5.3,0.6
			c-5.2,0-9.7-1.5-13.6-4.4C47,29.9,45,26.3,45,22.2s1.9-7.6,5.8-10.6c3.8-2.9,8.4-4.4,13.6-4.4c1.8,0,3.8,0.2,6,0.7
			c2.9,0.6,4.4,1.4,4.4,2.4c0,0.4-0.2,0.8-0.6,1.1s-0.9,0.4-1.4,0.4c-0.4,0-0.7-0.1-1-0.2c-2.8-1-5.3-1.5-7.4-1.5
			c-4.2,0-7.7,1.2-10.7,3.6s-4.5,5.2-4.5,8.5s1.5,6.2,4.5,8.5c3,2.4,6.6,3.6,10.7,3.6c2.2,0,4.9-0.6,8-1.8c0.4-0.1,0.7-0.2,1.1-0.2
			c0.5,0,1,0.2,1.4,0.5C75.3,33,75.5,33.3,75.5,33.8z"/>
		<path class="st1" d="M111.7,35.6c0,0.4-0.2,0.7-0.6,1s-0.9,0.4-1.4,0.4c-0.8,0-1.4-0.3-1.8-0.9l-4.6-7.3h-19L80.2,36
			c-0.4,0.6-1,0.9-1.9,0.9c-0.5,0-1-0.1-1.4-0.4c-0.4-0.3-0.6-0.6-0.6-1c0-0.3,5.1-9.4,15.2-27.2c0.5-0.7,1.1-1.1,1.9-1.1
			s1.4,0.3,1.9,1L111.7,35.6z M101.4,25.9l-8.1-13.3L86,25.9H101.4z"/>
		<path class="st1" d="M138.3,28.3c0,2.5-1.4,4.6-4.3,6.4c-2.7,1.7-5.6,2.5-8.8,2.5c-2.1,0-4.4-0.5-6.6-1.5c-2.3-1-4-2.3-5.1-3.7
			c-0.2-0.2-0.3-0.5-0.3-0.7c0-0.4,0.2-0.7,0.6-1s0.9-0.4,1.4-0.4s1,0.1,1.3,0.4c0,0,0.3,0.3,0.9,0.9c2.3,2.2,4.8,3.3,7.7,3.3
			c2.1,0,4.2-0.5,6-1.6c2-1.2,3-2.6,3-4.3c0-2.5-1.8-4.2-5.3-5.1c-3.3-0.7-6.6-1.3-9.9-2c-3.6-1.1-5.4-3.1-5.4-6.1
			c0-2.5,1.3-4.5,3.8-6c2.2-1.3,5-2,8.3-2c1.5,0,3.2,0.2,4.8,0.7c1.9,0.5,3.3,1.2,4.2,2c0.3,0.3,0.5,0.6,0.5,0.9
			c0,0.4-0.2,0.8-0.6,1c-0.4,0.3-0.9,0.4-1.4,0.4c-0.4,0-0.9-0.2-1.5-0.5c-1.7-1.1-3.6-1.6-5.9-1.6c-2.3,0-4.1,0.4-5.6,1.1
			c-1.7,0.9-2.5,2.2-2.5,3.9c0,2,1.8,3.3,5.3,4.1c3.3,0.7,6.6,1.4,9.9,2.1C136.5,22.6,138.3,25,138.3,28.3z"/>
		<path class="st1" d="M147.6,35.5c0,0.4-0.2,0.8-0.6,1c-0.4,0.3-0.9,0.4-1.4,0.4s-1-0.1-1.4-0.4c-0.4-0.3-0.6-0.6-0.6-1V8.8
			c0-0.4,0.2-0.8,0.6-1c0.4-0.3,0.9-0.4,1.4-0.4s1,0.1,1.4,0.4s0.6,0.6,0.6,1V35.5z"/>
		<path class="st1" d="M180.3,35.5c0,0.4-0.2,0.7-0.6,1c-0.4,0.3-0.9,0.4-1.4,0.4c-0.7,0-1.2-0.2-1.6-0.6l-13.9-14.9l-4.6,4.2v9.9
			c0,0.4-0.2,0.8-0.6,1c-0.4,0.3-0.9,0.4-1.4,0.4s-1-0.1-1.4-0.4c-0.4-0.3-0.6-0.6-0.6-1V8.8c0-0.4,0.2-0.8,0.6-1
			c0.4-0.3,0.9-0.4,1.4-0.4s1,0.1,1.4,0.4s0.6,0.6,0.6,1V21l14.6-13.1c0.4-0.4,0.9-0.6,1.6-0.6c0.5,0,1,0.1,1.4,0.4s0.7,0.6,0.7,1
			c0,0.3-0.2,0.6-0.5,0.9L165.5,19l14.6,15.5C180.2,34.9,180.3,35.2,180.3,35.5z"/>
		<path class="st1" d="M214.9,35.6c0,0.4-0.2,0.7-0.6,1c-0.4,0.3-0.9,0.4-1.4,0.4c-0.8,0-1.4-0.3-1.8-0.9l-4.6-7.3h-18.9l-4.2,7.3
			c-0.4,0.6-1,0.9-1.9,0.9c-0.5,0-1-0.1-1.4-0.4c-0.4-0.3-0.6-0.6-0.6-1c0-0.3,5.1-9.4,15.2-27.2c0.5-0.7,1.1-1.1,1.9-1.1
			c0.8,0,1.4,0.3,1.9,1L214.9,35.6z M204.7,25.9l-8.1-13.3l-7.4,13.3H204.7z"/>
	</g>
</g>
</svg>
