<?xml version="1.0" encoding="utf-8"?>
<!-- Generator: Adobe Illustrator 25.2.0, SVG Export Plug-In . SVG Version: 6.00 Build 0)  -->
<svg version="1.1" id="Capa_1" xmlns="http://www.w3.org/2000/svg" xmlns:xlink="http://www.w3.org/1999/xlink" x="0px" y="0px"
	 viewBox="0 0 105.6 132.1" style="enable-background:new 0 0 105.6 132.1;" xml:space="preserve">
<style type="text/css">
	.st0{fill:#F7B289;}
	.st1{fill:#FFFFFF;}
	.st2{fill:#767676;}
	.st3{fill:#474747;}
	.st4{fill:#F7B289;stroke:#F7B289;stroke-width:0.25;stroke-miterlimit:10;}
</style>
<g>
	<g>
		<polygon class="st0" points="197.2,-60.6 199.6,-63.1 193.9,-70.7 185.6,-70.7 185.6,-29.6 193.6,-29.6 206.8,-46.7 204.7,-49.1 
			190.1,-30.6 186.5,-30.6 186.5,-69.6 190.4,-69.6 		"/>
		<polygon class="st0" points="197.9,-44.9 198.4,-45.6 193.1,-52.2 205,-67.1 218.7,-67.1 208.4,-54.1 210.6,-51.1 226.2,-70.6 
			206.8,-70.6 192,-52.3 		"/>
		<path class="st0" d="M202.5-53.8l2.5-2.8l20.7,26.8h-15.6l-7.6-9.5h1.1l6.9,8.5h9.3c0,0,1.5,0.2,0.2-1.1L202.5-53.8z"/>
	</g>
	<g>
		<path class="st1" d="M259-39.1c0,0.4-0.3,0.8-0.9,1.1c-1.2,0.7-2.9,1.3-4.9,1.7c-1.8,0.4-3.6,0.6-5.3,0.6c-5.2,0-9.7-1.5-13.6-4.4
			c-3.8-2.9-5.8-6.5-5.8-10.6c0-4.1,1.9-7.6,5.8-10.6c3.8-2.9,8.4-4.4,13.6-4.4c1.8,0,3.8,0.2,6,0.7c2.9,0.6,4.4,1.4,4.4,2.4
			c0,0.4-0.2,0.8-0.6,1.1c-0.4,0.3-0.9,0.4-1.4,0.4c-0.4,0-0.7-0.1-1-0.2c-2.8-1-5.3-1.5-7.4-1.5c-4.2,0-7.7,1.2-10.7,3.6
			c-3,2.4-4.5,5.2-4.5,8.5c0,3.3,1.5,6.2,4.5,8.5c3,2.4,6.6,3.6,10.7,3.6c2.2,0,4.9-0.6,8-1.8c0.4-0.1,0.7-0.2,1.1-0.2
			c0.5,0,1,0.2,1.4,0.5C258.8-39.9,259-39.5,259-39.1z"/>
		<path class="st1" d="M295.2-37.3c0,0.4-0.2,0.7-0.6,1c-0.4,0.3-0.9,0.4-1.4,0.4c-0.8,0-1.4-0.3-1.8-0.9l-4.6-7.3h-18.9l-4.2,7.3
			c-0.4,0.6-1,0.9-1.9,0.9c-0.5,0-1-0.1-1.4-0.4c-0.4-0.3-0.6-0.6-0.6-1c0-0.3,5.1-9.4,15.2-27.2c0.5-0.7,1.1-1.1,1.9-1.1
			c0.8,0,1.4,0.3,1.9,1L295.2-37.3z M284.9-47l-8.1-13.3L269.5-47H284.9z"/>
		<path class="st1" d="M321.9-44.6c0,2.5-1.4,4.6-4.3,6.4c-2.7,1.7-5.6,2.5-8.8,2.5c-2.1,0-4.4-0.5-6.6-1.5c-2.3-1-4-2.3-5.1-3.7
			c-0.2-0.2-0.3-0.5-0.3-0.7c0-0.4,0.2-0.7,0.6-1c0.4-0.3,0.9-0.4,1.4-0.4c0.5,0,1,0.1,1.3,0.4c0,0,0.3,0.3,0.9,0.9
			c2.3,2.2,4.8,3.3,7.7,3.3c2.1,0,4.2-0.5,6-1.6c2-1.2,3-2.6,3-4.3c0-2.5-1.8-4.2-5.3-5.1c-3.3-0.7-6.6-1.3-9.9-2
			c-3.6-1.1-5.4-3.1-5.4-6.1c0-2.5,1.3-4.5,3.8-6c2.2-1.3,5-2,8.3-2c1.5,0,3.2,0.2,4.8,0.7c1.9,0.5,3.3,1.2,4.2,2
			c0.3,0.3,0.5,0.6,0.5,0.9c0,0.4-0.2,0.8-0.6,1c-0.4,0.3-0.9,0.4-1.4,0.4c-0.4,0-0.9-0.2-1.5-0.5c-1.7-1.1-3.6-1.6-5.9-1.6
			c-2.3,0-4.1,0.4-5.6,1.1c-1.7,0.9-2.5,2.2-2.5,3.9c0,2,1.8,3.3,5.3,4.1c3.3,0.7,6.6,1.4,9.9,2.1C320.1-50.2,321.9-47.9,321.9-44.6
			z"/>
		<path class="st1" d="M331.1-37.3c0,0.4-0.2,0.8-0.6,1c-0.4,0.3-0.9,0.4-1.4,0.4c-0.5,0-1-0.1-1.4-0.4c-0.4-0.3-0.6-0.6-0.6-1
			v-26.8c0-0.4,0.2-0.8,0.6-1c0.4-0.3,0.9-0.4,1.4-0.4c0.5,0,1,0.1,1.4,0.4c0.4,0.3,0.6,0.6,0.6,1V-37.3z"/>
		<path class="st1" d="M363.8-37.3c0,0.4-0.2,0.7-0.6,1c-0.4,0.3-0.9,0.4-1.4,0.4c-0.7,0-1.2-0.2-1.6-0.6l-13.9-14.9l-4.6,4.2v9.9
			c0,0.4-0.2,0.8-0.6,1c-0.4,0.3-0.9,0.4-1.4,0.4c-0.5,0-1-0.1-1.4-0.4c-0.4-0.3-0.6-0.6-0.6-1v-26.8c0-0.4,0.2-0.8,0.6-1
			c0.4-0.3,0.9-0.4,1.4-0.4c0.5,0,1,0.1,1.4,0.4c0.4,0.3,0.6,0.6,0.6,1v12.3L356.2-65c0.4-0.4,0.9-0.6,1.6-0.6c0.5,0,1,0.1,1.4,0.4
			c0.4,0.3,0.7,0.6,0.7,1c0,0.3-0.2,0.6-0.5,0.9l-10.5,9.4l14.6,15.5C363.7-37.9,363.8-37.6,363.8-37.3z"/>
		<path class="st1" d="M398.4-37.3c0,0.4-0.2,0.7-0.6,1c-0.4,0.3-0.9,0.4-1.4,0.4c-0.8,0-1.4-0.3-1.8-0.9l-4.6-7.3h-18.9l-4.2,7.3
			c-0.4,0.6-1,0.9-1.9,0.9c-0.5,0-1-0.1-1.4-0.4c-0.4-0.3-0.6-0.6-0.6-1c0-0.3,5.1-9.4,15.2-27.2c0.5-0.7,1.1-1.1,1.9-1.1
			c0.8,0,1.4,0.3,1.9,1L398.4-37.3z M388.2-47l-8.1-13.3L372.8-47H388.2z"/>
	</g>
</g>
<g>
	<g>
		<polygon class="st1" points="-269.8,-60.6 -267.4,-63.1 -273.1,-70.7 -281.4,-70.7 -281.4,-29.6 -273.4,-29.6 -260.2,-46.7 
			-262.3,-49.1 -276.9,-30.6 -280.5,-30.6 -280.5,-69.6 -276.6,-69.6 		"/>
		<polygon class="st1" points="-269.1,-44.9 -268.6,-45.6 -273.9,-52.2 -262,-67.1 -248.3,-67.1 -258.6,-54.1 -256.4,-51.1 
			-240.8,-70.6 -260.2,-70.6 -275,-52.3 		"/>
		<path class="st1" d="M-264.5-53.8l2.5-2.8l20.7,26.8h-15.6l-7.6-9.5h1.1l6.9,8.5h9.3c0,0,1.5,0.2,0.2-1.1L-264.5-53.8z"/>
	</g>
	<g>
		<path class="st2" d="M-208-39.1c0,0.4-0.3,0.8-0.9,1.1c-1.2,0.7-2.9,1.3-4.9,1.7c-1.8,0.4-3.6,0.6-5.3,0.6
			c-5.2,0-9.7-1.5-13.6-4.4c-3.8-2.9-5.8-6.5-5.8-10.6c0-4.1,1.9-7.6,5.8-10.6c3.8-2.9,8.4-4.4,13.6-4.4c1.8,0,3.8,0.2,6,0.7
			c2.9,0.6,4.4,1.4,4.4,2.4c0,0.4-0.2,0.8-0.6,1.1c-0.4,0.3-0.9,0.4-1.4,0.4c-0.4,0-0.7-0.1-1-0.2c-2.8-1-5.3-1.5-7.4-1.5
			c-4.2,0-7.7,1.2-10.7,3.6c-3,2.4-4.5,5.2-4.5,8.5c0,3.3,1.5,6.2,4.5,8.5c3,2.4,6.6,3.6,10.7,3.6c2.2,0,4.9-0.6,8-1.8
			c0.4-0.1,0.7-0.2,1.1-0.2c0.5,0,1,0.2,1.4,0.5C-208.2-39.9-208-39.5-208-39.1z"/>
		<path class="st2" d="M-171.8-37.3c0,0.4-0.2,0.7-0.6,1c-0.4,0.3-0.9,0.4-1.4,0.4c-0.8,0-1.4-0.3-1.8-0.9l-4.6-7.3h-18.9l-4.2,7.3
			c-0.4,0.6-1,0.9-1.9,0.9c-0.5,0-1-0.1-1.4-0.4c-0.4-0.3-0.6-0.6-0.6-1c0-0.3,5.1-9.4,15.2-27.2c0.5-0.7,1.1-1.1,1.9-1.1
			c0.8,0,1.4,0.3,1.9,1L-171.8-37.3z M-182.1-47l-8.1-13.3l-7.4,13.3H-182.1z"/>
		<path class="st2" d="M-145.1-44.6c0,2.5-1.4,4.6-4.3,6.4c-2.7,1.7-5.6,2.5-8.8,2.5c-2.1,0-4.4-0.5-6.6-1.5c-2.3-1-4-2.3-5.1-3.7
			c-0.2-0.2-0.3-0.5-0.3-0.7c0-0.4,0.2-0.7,0.6-1c0.4-0.3,0.9-0.4,1.4-0.4c0.5,0,1,0.1,1.3,0.4c0,0,0.3,0.3,0.9,0.9
			c2.3,2.2,4.8,3.3,7.7,3.3c2.1,0,4.2-0.5,6-1.6c2-1.2,3-2.6,3-4.3c0-2.5-1.8-4.2-5.3-5.1c-3.3-0.7-6.6-1.3-9.9-2
			c-3.6-1.1-5.4-3.1-5.4-6.1c0-2.5,1.3-4.5,3.8-6c2.2-1.3,5-2,8.3-2c1.5,0,3.2,0.2,4.8,0.7c1.9,0.5,3.3,1.2,4.2,2
			c0.3,0.3,0.5,0.6,0.5,0.9c0,0.4-0.2,0.8-0.6,1c-0.4,0.3-0.9,0.4-1.4,0.4c-0.4,0-0.9-0.2-1.5-0.5c-1.7-1.1-3.6-1.6-5.9-1.6
			c-2.3,0-4.1,0.4-5.6,1.1c-1.7,0.9-2.5,2.2-2.5,3.9c0,2,1.8,3.3,5.3,4.1c3.3,0.7,6.6,1.4,9.9,2.1
			C-146.9-50.2-145.1-47.9-145.1-44.6z"/>
		<path class="st2" d="M-135.9-37.3c0,0.4-0.2,0.8-0.6,1c-0.4,0.3-0.9,0.4-1.4,0.4c-0.5,0-1-0.1-1.4-0.4c-0.4-0.3-0.6-0.6-0.6-1
			v-26.8c0-0.4,0.2-0.8,0.6-1c0.4-0.3,0.9-0.4,1.4-0.4c0.5,0,1,0.1,1.4,0.4c0.4,0.3,0.6,0.6,0.6,1V-37.3z"/>
		<path class="st2" d="M-103.2-37.3c0,0.4-0.2,0.7-0.6,1c-0.4,0.3-0.9,0.4-1.4,0.4c-0.7,0-1.2-0.2-1.6-0.6l-13.9-14.9l-4.6,4.2v9.9
			c0,0.4-0.2,0.8-0.6,1s-0.9,0.4-1.4,0.4c-0.5,0-1-0.1-1.4-0.4s-0.6-0.6-0.6-1v-26.8c0-0.4,0.2-0.8,0.6-1c0.4-0.3,0.9-0.4,1.4-0.4
			c0.5,0,1,0.1,1.4,0.4c0.4,0.3,0.6,0.6,0.6,1v12.3l14.6-13.1c0.4-0.4,0.9-0.6,1.6-0.6c0.5,0,1,0.1,1.4,0.4c0.4,0.3,0.7,0.6,0.7,1
			c0,0.3-0.2,0.6-0.5,0.9l-10.5,9.4l14.6,15.5C-103.3-37.9-103.2-37.6-103.2-37.3z"/>
		<path class="st2" d="M-68.6-37.3c0,0.4-0.2,0.7-0.6,1c-0.4,0.3-0.9,0.4-1.4,0.4c-0.8,0-1.4-0.3-1.8-0.9l-4.6-7.3h-18.9l-4.2,7.3
			c-0.4,0.6-1,0.9-1.9,0.9c-0.5,0-1-0.1-1.4-0.4c-0.4-0.3-0.6-0.6-0.6-1c0-0.3,5.1-9.4,15.2-27.2c0.5-0.7,1.1-1.1,1.9-1.1
			c0.8,0,1.4,0.3,1.9,1L-68.6-37.3z M-78.8-47l-8.1-13.3L-94.2-47H-78.8z"/>
	</g>
</g>
<g>
	<g>
		<polygon class="st0" points="-41.8,-60.6 -39.4,-63.1 -45.1,-70.7 -53.4,-70.7 -53.4,-29.6 -45.4,-29.6 -32.2,-46.7 -34.3,-49.1 
			-48.9,-30.6 -52.5,-30.6 -52.5,-69.6 -48.6,-69.6 		"/>
		<polygon class="st0" points="-41.1,-44.9 -40.6,-45.6 -45.9,-52.2 -34,-67.1 -20.3,-67.1 -30.6,-54.1 -28.4,-51.1 -12.8,-70.6 
			-32.2,-70.6 -47,-52.3 		"/>
		<path class="st0" d="M-36.5-53.8l2.5-2.8l20.7,26.8h-15.6l-7.6-9.5h1.1l6.9,8.5h9.3c0,0,1.5,0.2,0.2-1.1L-36.5-53.8z"/>
	</g>
	<g>
		<path class="st2" d="M20-39.1c0,0.4-0.3,0.8-0.9,1.1c-1.2,0.7-2.9,1.3-4.9,1.7c-1.8,0.4-3.6,0.6-5.3,0.6c-5.2,0-9.7-1.5-13.6-4.4
			c-3.8-2.9-5.8-6.5-5.8-10.6c0-4.1,1.9-7.6,5.8-10.6c3.8-2.9,8.4-4.4,13.6-4.4c1.8,0,3.8,0.2,6,0.7c2.9,0.6,4.4,1.4,4.4,2.4
			c0,0.4-0.2,0.8-0.6,1.1c-0.4,0.3-0.9,0.4-1.4,0.4c-0.4,0-0.7-0.1-1-0.2c-2.8-1-5.3-1.5-7.4-1.5c-4.2,0-7.7,1.2-10.7,3.6
			c-3,2.4-4.5,5.2-4.5,8.5c0,3.3,1.5,6.2,4.5,8.5c3,2.4,6.6,3.6,10.7,3.6c2.2,0,4.9-0.6,8-1.8c0.4-0.1,0.7-0.2,1.1-0.2
			c0.5,0,1,0.2,1.4,0.5C19.8-39.9,20-39.5,20-39.1z"/>
		<path class="st2" d="M56.2-37.3c0,0.4-0.2,0.7-0.6,1c-0.4,0.3-0.9,0.4-1.4,0.4c-0.8,0-1.4-0.3-1.8-0.9l-4.6-7.3H28.9l-4.2,7.3
			c-0.4,0.6-1,0.9-1.9,0.9c-0.5,0-1-0.1-1.4-0.4c-0.4-0.3-0.6-0.6-0.6-1c0-0.3,5.1-9.4,15.2-27.2c0.5-0.7,1.1-1.1,1.9-1.1
			c0.8,0,1.4,0.3,1.9,1L56.2-37.3z M45.9-47l-8.1-13.3L30.5-47H45.9z"/>
		<path class="st2" d="M82.9-44.6c0,2.5-1.4,4.6-4.3,6.4c-2.7,1.7-5.6,2.5-8.8,2.5c-2.1,0-4.4-0.5-6.6-1.5c-2.3-1-4-2.3-5.1-3.7
			c-0.2-0.2-0.3-0.5-0.3-0.7c0-0.4,0.2-0.7,0.6-1c0.4-0.3,0.9-0.4,1.4-0.4c0.5,0,1,0.1,1.3,0.4c0,0,0.3,0.3,0.9,0.9
			c2.3,2.2,4.8,3.3,7.7,3.3c2.1,0,4.2-0.5,6-1.6c2-1.2,3-2.6,3-4.3c0-2.5-1.8-4.2-5.3-5.1c-3.3-0.7-6.6-1.3-9.9-2
			c-3.6-1.1-5.4-3.1-5.4-6.1c0-2.5,1.3-4.5,3.8-6c2.2-1.3,5-2,8.3-2c1.5,0,3.2,0.2,4.8,0.7c1.9,0.5,3.3,1.2,4.2,2
			c0.3,0.3,0.5,0.6,0.5,0.9c0,0.4-0.2,0.8-0.6,1c-0.4,0.3-0.9,0.4-1.4,0.4c-0.4,0-0.9-0.2-1.5-0.5c-1.7-1.1-3.6-1.6-5.9-1.6
			c-2.3,0-4.1,0.4-5.6,1.1c-1.7,0.9-2.5,2.2-2.5,3.9c0,2,1.8,3.3,5.3,4.1c3.3,0.7,6.6,1.4,9.9,2.1C81.1-50.2,82.9-47.9,82.9-44.6z"
			/>
		<path class="st2" d="M92.1-37.3c0,0.4-0.2,0.8-0.6,1c-0.4,0.3-0.9,0.4-1.4,0.4c-0.5,0-1-0.1-1.4-0.4s-0.6-0.6-0.6-1v-26.8
			c0-0.4,0.2-0.8,0.6-1c0.4-0.3,0.9-0.4,1.4-0.4c0.5,0,1,0.1,1.4,0.4c0.4,0.3,0.6,0.6,0.6,1V-37.3z"/>
		<path class="st2" d="M124.8-37.3c0,0.4-0.2,0.7-0.6,1c-0.4,0.3-0.9,0.4-1.4,0.4c-0.7,0-1.2-0.2-1.6-0.6l-13.9-14.9l-4.6,4.2v9.9
			c0,0.4-0.2,0.8-0.6,1s-0.9,0.4-1.4,0.4c-0.5,0-1-0.1-1.4-0.4s-0.6-0.6-0.6-1v-26.8c0-0.4,0.2-0.8,0.6-1c0.4-0.3,0.9-0.4,1.4-0.4
			c0.5,0,1,0.1,1.4,0.4c0.4,0.3,0.6,0.6,0.6,1v12.3L117.2-65c0.4-0.4,0.9-0.6,1.6-0.6c0.5,0,1,0.1,1.4,0.4c0.4,0.3,0.7,0.6,0.7,1
			c0,0.3-0.2,0.6-0.5,0.9l-10.5,9.4l14.6,15.5C124.7-37.9,124.8-37.6,124.8-37.3z"/>
		<path class="st2" d="M159.4-37.3c0,0.4-0.2,0.7-0.6,1c-0.4,0.3-0.9,0.4-1.4,0.4c-0.8,0-1.4-0.3-1.8-0.9l-4.6-7.3h-18.9l-4.2,7.3
			c-0.4,0.6-1,0.9-1.9,0.9c-0.5,0-1-0.1-1.4-0.4c-0.4-0.3-0.6-0.6-0.6-1c0-0.3,5.1-9.4,15.2-27.2c0.5-0.7,1.1-1.1,1.9-1.1
			c0.8,0,1.4,0.3,1.9,1L159.4-37.3z M149.2-47l-8.1-13.3L133.8-47H149.2z"/>
	</g>
</g>
<g>
	<g>
		<polygon class="st0" points="199,199.9 205.3,193.6 190.6,174.1 169.3,174.1 169.3,279.6 190,279.6 223.7,235.7 218.3,229.4 
			181,276.9 171.7,276.9 171.7,176.8 181.6,176.8 		"/>
		<polygon class="st0" points="200.8,240.2 202.3,238.4 188.5,221.6 219.2,183.4 254.3,183.4 227.9,216.8 233.6,224.3 273.6,174.4 
			223.7,174.4 185.8,221.3 		"/>
		<path class="st0" d="M212.9,217.4l6.3-7.2l53.2,68.8h-40l-19.5-24.4h2.7l17.7,21.9h23.7c0,0,3.9,0.6,0.6-2.7L212.9,217.4z"/>
	</g>
	<g>
		<path class="st1" d="M187.9,303.1c0,0.3-0.2,0.5-0.5,0.7c-0.8,0.4-1.8,0.8-3,1c-1.1,0.2-2.2,0.3-3.3,0.3c-3.2,0-6-0.9-8.3-2.6
			c-2.4-1.8-3.5-3.9-3.5-6.4c0-2.5,1.2-4.6,3.5-6.3c2.4-1.8,5.1-2.6,8.3-2.6c1.1,0,2.4,0.1,3.7,0.4c1.8,0.4,2.7,0.9,2.7,1.5
			c0,0.2-0.1,0.5-0.4,0.6c-0.3,0.2-0.5,0.3-0.9,0.3c-0.2,0-0.4,0-0.6-0.1c-1.7-0.6-3.3-0.9-4.6-0.9c-2.6,0-4.8,0.7-6.6,2.1
			c-1.8,1.4-2.8,3.1-2.8,5.1c0,2,0.9,3.7,2.8,5.1c1.8,1.4,4.1,2.1,6.6,2.1c1.4,0,3-0.4,4.9-1.1c0.2-0.1,0.4-0.1,0.7-0.1
			c0.3,0,0.6,0.1,0.8,0.3C187.8,302.6,187.9,302.8,187.9,303.1z"/>
		<path class="st1" d="M210.2,304.2c0,0.2-0.1,0.4-0.4,0.6c-0.3,0.2-0.6,0.2-0.9,0.2c-0.5,0-0.9-0.2-1.1-0.5l-2.8-4.4h-11.6
			l-2.6,4.4c-0.2,0.4-0.6,0.6-1.1,0.6c-0.3,0-0.6-0.1-0.9-0.2c-0.3-0.2-0.4-0.4-0.4-0.6c0-0.2,3.1-5.6,9.3-16.3
			c0.3-0.4,0.7-0.7,1.1-0.7c0.5,0,0.9,0.2,1.2,0.6L210.2,304.2z M203.9,298.3l-5-8l-4.5,8H203.9z"/>
		<path class="st1" d="M226.5,299.8c0,1.5-0.9,2.8-2.6,3.8c-1.6,1-3.4,1.5-5.4,1.5c-1.3,0-2.7-0.3-4.1-0.9c-1.4-0.6-2.4-1.4-3.1-2.2
			c-0.1-0.1-0.2-0.3-0.2-0.4c0-0.2,0.1-0.4,0.4-0.6c0.3-0.2,0.5-0.2,0.9-0.2c0.3,0,0.6,0.1,0.8,0.2c0,0,0.2,0.2,0.6,0.5
			c1.4,1.3,3,2,4.8,2c1.3,0,2.6-0.3,3.7-1c1.2-0.7,1.9-1.6,1.9-2.6c0-1.5-1.1-2.5-3.3-3.1c-2-0.4-4.1-0.8-6.1-1.2
			c-2.2-0.7-3.3-1.9-3.3-3.7c0-1.5,0.8-2.7,2.3-3.6c1.4-0.8,3.1-1.2,5.1-1.2c0.9,0,1.9,0.1,3,0.4c1.2,0.3,2,0.7,2.6,1.2
			c0.2,0.2,0.3,0.4,0.3,0.5c0,0.2-0.1,0.5-0.4,0.6c-0.3,0.2-0.6,0.3-0.9,0.3c-0.3,0-0.6-0.1-0.9-0.3c-1-0.6-2.2-1-3.6-1
			c-1.4,0-2.5,0.2-3.4,0.7c-1,0.5-1.6,1.3-1.6,2.3c0,1.2,1.1,2,3.3,2.4c2,0.4,4.1,0.9,6.1,1.3C225.4,296.4,226.5,297.8,226.5,299.8z
			"/>
		<path class="st1" d="M232.2,304.1c0,0.2-0.1,0.5-0.4,0.6c-0.2,0.2-0.5,0.2-0.9,0.2c-0.3,0-0.6-0.1-0.9-0.2
			c-0.2-0.2-0.4-0.4-0.4-0.6v-16c0-0.3,0.1-0.5,0.4-0.6c0.2-0.2,0.5-0.2,0.9-0.2c0.3,0,0.6,0.1,0.9,0.2c0.2,0.2,0.4,0.4,0.4,0.6
			V304.1z"/>
		<path class="st1" d="M252.3,304.1c0,0.2-0.1,0.4-0.4,0.6c-0.3,0.2-0.5,0.2-0.9,0.2c-0.4,0-0.8-0.1-1-0.4l-8.6-8.9l-2.8,2.5v5.9
			c0,0.2-0.1,0.5-0.4,0.6c-0.2,0.2-0.5,0.2-0.9,0.2c-0.3,0-0.6-0.1-0.9-0.2c-0.2-0.2-0.4-0.4-0.4-0.6v-16c0-0.3,0.1-0.5,0.4-0.6
			c0.2-0.2,0.5-0.2,0.9-0.2c0.3,0,0.6,0.1,0.9,0.2c0.2,0.2,0.4,0.4,0.4,0.6v7.4l9-7.9c0.3-0.2,0.6-0.3,1-0.3c0.3,0,0.6,0.1,0.9,0.3
			c0.3,0.2,0.4,0.4,0.4,0.6c0,0.2-0.1,0.4-0.3,0.5l-6.4,5.6l9,9.3C252.2,303.8,252.3,303.9,252.3,304.1z"/>
		<path class="st1" d="M273.6,304.2c0,0.2-0.1,0.4-0.4,0.6c-0.3,0.2-0.6,0.2-0.9,0.2c-0.5,0-0.9-0.2-1.1-0.5l-2.8-4.4h-11.6
			l-2.6,4.4c-0.2,0.4-0.6,0.6-1.1,0.6c-0.3,0-0.6-0.1-0.9-0.2c-0.3-0.2-0.4-0.4-0.4-0.6c0-0.2,3.1-5.6,9.3-16.3
			c0.3-0.4,0.7-0.7,1.1-0.7c0.5,0,0.9,0.2,1.2,0.6L273.6,304.2z M267.3,298.3l-5-8l-4.5,8H267.3z"/>
	</g>
</g>
<g>
	<g>
		<polygon class="st1" points="-135.8,199.9 -129.5,193.6 -144.2,174.1 -165.6,174.1 -165.6,279.6 -144.8,279.6 -111.1,235.7 
			-116.6,229.4 -153.8,276.9 -163.2,276.9 -163.2,176.8 -153.2,176.8 		"/>
		<polygon class="st1" points="-134,240.2 -132.5,238.4 -146.3,221.6 -115.7,183.4 -80.5,183.4 -106.9,216.8 -101.2,224.3 
			-61.2,174.4 -111.1,174.4 -149,221.3 		"/>
		<path class="st1" d="M-122,217.4l6.3-7.2l53.2,68.8h-40l-19.5-24.4h2.7l17.7,21.9h23.7c0,0,3.9,0.6,0.6-2.7L-122,217.4z"/>
	</g>
	<g>
		<path class="st2" d="M-146.9,303.1c0,0.3-0.2,0.5-0.5,0.7c-0.8,0.4-1.8,0.8-3,1c-1.1,0.2-2.2,0.3-3.3,0.3c-3.2,0-6-0.9-8.3-2.6
			c-2.4-1.8-3.5-3.9-3.5-6.4c0-2.5,1.2-4.6,3.5-6.3c2.4-1.8,5.1-2.6,8.3-2.6c1.1,0,2.4,0.1,3.7,0.4c1.8,0.4,2.7,0.9,2.7,1.5
			c0,0.2-0.1,0.5-0.4,0.6c-0.3,0.2-0.5,0.3-0.9,0.3c-0.2,0-0.4,0-0.6-0.1c-1.7-0.6-3.3-0.9-4.6-0.9c-2.6,0-4.8,0.7-6.6,2.1
			c-1.8,1.4-2.8,3.1-2.8,5.1c0,2,0.9,3.7,2.8,5.1c1.8,1.4,4.1,2.1,6.6,2.1c1.4,0,3-0.4,4.9-1.1c0.2-0.1,0.4-0.1,0.7-0.1
			c0.3,0,0.6,0.1,0.8,0.3C-147,302.6-146.9,302.8-146.9,303.1z"/>
		<path class="st2" d="M-124.7,304.2c0,0.2-0.1,0.4-0.4,0.6c-0.3,0.2-0.6,0.2-0.9,0.2c-0.5,0-0.9-0.2-1.1-0.5l-2.8-4.4h-11.6
			l-2.6,4.4c-0.2,0.4-0.6,0.6-1.1,0.6c-0.3,0-0.6-0.1-0.9-0.2c-0.3-0.2-0.4-0.4-0.4-0.6c0-0.2,3.1-5.6,9.3-16.3
			c0.3-0.4,0.7-0.7,1.1-0.7c0.5,0,0.9,0.2,1.2,0.6L-124.7,304.2z M-131,298.3l-5-8l-4.5,8H-131z"/>
		<path class="st2" d="M-108.3,299.8c0,1.5-0.9,2.8-2.6,3.8c-1.6,1-3.4,1.5-5.4,1.5c-1.3,0-2.7-0.3-4.1-0.9
			c-1.4-0.6-2.4-1.4-3.1-2.2c-0.1-0.1-0.2-0.3-0.2-0.4c0-0.2,0.1-0.4,0.4-0.6c0.3-0.2,0.5-0.2,0.9-0.2c0.3,0,0.6,0.1,0.8,0.2
			c0,0,0.2,0.2,0.6,0.5c1.4,1.3,3,2,4.8,2c1.3,0,2.6-0.3,3.7-1c1.2-0.7,1.9-1.6,1.9-2.6c0-1.5-1.1-2.5-3.3-3.1
			c-2-0.4-4.1-0.8-6.1-1.2c-2.2-0.7-3.3-1.9-3.3-3.7c0-1.5,0.8-2.7,2.3-3.6c1.4-0.8,3.1-1.2,5.1-1.2c0.9,0,1.9,0.1,3,0.4
			c1.2,0.3,2,0.7,2.6,1.2c0.2,0.2,0.3,0.4,0.3,0.5c0,0.2-0.1,0.5-0.4,0.6c-0.3,0.2-0.6,0.3-0.9,0.3c-0.3,0-0.6-0.1-0.9-0.3
			c-1-0.6-2.2-1-3.6-1c-1.4,0-2.5,0.2-3.4,0.7c-1,0.5-1.6,1.3-1.6,2.3c0,1.2,1.1,2,3.3,2.4c2,0.4,4.1,0.9,6.1,1.3
			C-109.4,296.4-108.3,297.8-108.3,299.8z"/>
		<path class="st2" d="M-102.6,304.1c0,0.2-0.1,0.5-0.4,0.6c-0.2,0.2-0.5,0.2-0.9,0.2c-0.3,0-0.6-0.1-0.9-0.2
			c-0.2-0.2-0.4-0.4-0.4-0.6v-16c0-0.3,0.1-0.5,0.4-0.6c0.2-0.2,0.5-0.2,0.9-0.2c0.3,0,0.6,0.1,0.9,0.2c0.2,0.2,0.4,0.4,0.4,0.6
			V304.1z"/>
		<path class="st2" d="M-82.5,304.1c0,0.2-0.1,0.4-0.4,0.6c-0.3,0.2-0.5,0.2-0.9,0.2c-0.4,0-0.8-0.1-1-0.4l-8.6-8.9l-2.8,2.5v5.9
			c0,0.2-0.1,0.5-0.4,0.6c-0.2,0.2-0.5,0.2-0.9,0.2c-0.3,0-0.6-0.1-0.9-0.2c-0.2-0.2-0.4-0.4-0.4-0.6v-16c0-0.3,0.1-0.5,0.4-0.6
			c0.2-0.2,0.5-0.2,0.9-0.2c0.3,0,0.6,0.1,0.9,0.2c0.2,0.2,0.4,0.4,0.4,0.6v7.4l9-7.9c0.3-0.2,0.6-0.3,1-0.3c0.3,0,0.6,0.1,0.9,0.3
			c0.3,0.2,0.4,0.4,0.4,0.6c0,0.2-0.1,0.4-0.3,0.5l-6.4,5.6l9,9.3C-82.6,303.8-82.5,303.9-82.5,304.1z"/>
		<path class="st2" d="M-61.2,304.2c0,0.2-0.1,0.4-0.4,0.6c-0.3,0.2-0.6,0.2-0.9,0.2c-0.5,0-0.9-0.2-1.1-0.5l-2.8-4.4h-11.6
			l-2.6,4.4c-0.2,0.4-0.6,0.6-1.1,0.6c-0.3,0-0.6-0.1-0.9-0.2c-0.3-0.2-0.4-0.4-0.4-0.6c0-0.2,3.1-5.6,9.3-16.3
			c0.3-0.4,0.7-0.7,1.1-0.7c0.5,0,0.9,0.2,1.2,0.6L-61.2,304.2z M-67.6,298.3l-5-8l-4.5,8H-67.6z"/>
	</g>
</g>
<g>
	<g>
		<polygon class="st0" points="492.4,381.6 497,376.9 486.2,362.6 470.5,362.6 470.5,440.1 485.7,440.1 510.5,407.9 506.5,403.2 
			479.1,438.1 472.3,438.1 472.3,364.6 479.5,364.6 		"/>
		<polygon class="st0" points="493.7,411.2 494.8,409.9 484.6,397.5 507.2,369.4 533,369.4 513.6,394 517.8,399.5 547.1,362.8 
			510.5,362.8 482.6,397.3 		"/>
		<path class="st0" d="M502.5,394.4l4.6-5.3l39.1,50.6h-29.4l-14.4-17.9h2l13,16.1H535c0,0,2.9,0.4,0.4-2L502.5,394.4z"/>
	</g>
</g>
<g>
	<g>
		<polygon class="st0" points="199,26.6 205.3,20.3 190.6,0.8 169.3,0.8 169.3,106.3 190,106.3 223.7,62.4 218.3,56.1 181,103.6 
			171.7,103.6 171.7,3.5 181.6,3.5 		"/>
		<polygon class="st0" points="200.8,66.9 202.3,65.1 188.5,48.3 219.2,10.1 254.3,10.1 227.9,43.5 233.6,51 273.6,1.1 223.7,1.1 
			185.8,48 		"/>
		<path class="st0" d="M212.9,44.1l6.3-7.2l53.2,68.8h-40l-19.5-24.4h2.7l17.7,21.9h23.7c0,0,3.9,0.6,0.6-2.7L212.9,44.1z"/>
	</g>
	<g>
		<path class="st1" d="M187.9,129.7c0,0.3-0.2,0.5-0.5,0.7c-0.8,0.4-1.8,0.8-3,1c-1.1,0.2-2.2,0.3-3.3,0.3c-3.2,0-6-0.9-8.3-2.6
			c-2.4-1.8-3.5-3.9-3.5-6.4c0-2.5,1.2-4.6,3.5-6.3c2.4-1.8,5.1-2.6,8.3-2.6c1.1,0,2.4,0.1,3.7,0.4c1.8,0.4,2.7,0.9,2.7,1.5
			c0,0.2-0.1,0.5-0.4,0.6c-0.3,0.2-0.5,0.3-0.9,0.3c-0.2,0-0.4,0-0.6-0.1c-1.7-0.6-3.3-0.9-4.6-0.9c-2.6,0-4.8,0.7-6.6,2.1
			c-1.8,1.4-2.8,3.1-2.8,5.1c0,2,0.9,3.7,2.8,5.1c1.8,1.4,4.1,2.1,6.6,2.1c1.4,0,3-0.4,4.9-1.1c0.2-0.1,0.4-0.1,0.7-0.1
			c0.3,0,0.6,0.1,0.8,0.3C187.8,129.3,187.9,129.5,187.9,129.7z"/>
		<path class="st1" d="M210.2,130.8c0,0.2-0.1,0.4-0.4,0.6c-0.3,0.2-0.6,0.2-0.9,0.2c-0.5,0-0.9-0.2-1.1-0.5l-2.8-4.4h-11.6
			l-2.6,4.4c-0.2,0.4-0.6,0.6-1.1,0.6c-0.3,0-0.6-0.1-0.9-0.2c-0.3-0.2-0.4-0.4-0.4-0.6c0-0.2,3.1-5.6,9.3-16.3
			c0.3-0.4,0.7-0.7,1.1-0.7c0.5,0,0.9,0.2,1.2,0.6L210.2,130.8z M203.9,125l-5-8l-4.5,8H203.9z"/>
		<path class="st1" d="M226.5,126.4c0,1.5-0.9,2.8-2.6,3.8c-1.6,1-3.4,1.5-5.4,1.5c-1.3,0-2.7-0.3-4.1-0.9c-1.4-0.6-2.4-1.4-3.1-2.2
			c-0.1-0.1-0.2-0.3-0.2-0.4c0-0.2,0.1-0.4,0.4-0.6c0.3-0.2,0.5-0.2,0.9-0.2c0.3,0,0.6,0.1,0.8,0.2c0,0,0.2,0.2,0.6,0.5
			c1.4,1.3,3,2,4.8,2c1.3,0,2.6-0.3,3.7-1c1.2-0.7,1.9-1.6,1.9-2.6c0-1.5-1.1-2.5-3.3-3.1c-2-0.4-4.1-0.8-6.1-1.2
			c-2.2-0.7-3.3-1.9-3.3-3.7c0-1.5,0.8-2.7,2.3-3.6c1.4-0.8,3.1-1.2,5.1-1.2c0.9,0,1.9,0.1,3,0.4c1.2,0.3,2,0.7,2.6,1.2
			c0.2,0.2,0.3,0.4,0.3,0.5c0,0.2-0.1,0.5-0.4,0.6c-0.3,0.2-0.6,0.3-0.9,0.3c-0.3,0-0.6-0.1-0.9-0.3c-1-0.6-2.2-1-3.6-1
			c-1.4,0-2.5,0.2-3.4,0.7c-1,0.5-1.6,1.3-1.6,2.3c0,1.2,1.1,2,3.3,2.4c2,0.4,4.1,0.9,6.1,1.3C225.4,123.1,226.5,124.5,226.5,126.4z
			"/>
		<path class="st1" d="M232.2,130.8c0,0.2-0.1,0.5-0.4,0.6c-0.2,0.2-0.5,0.2-0.9,0.2c-0.3,0-0.6-0.1-0.9-0.2
			c-0.2-0.2-0.4-0.4-0.4-0.6v-16c0-0.3,0.1-0.5,0.4-0.6c0.2-0.2,0.5-0.2,0.9-0.2c0.3,0,0.6,0.1,0.9,0.2c0.2,0.2,0.4,0.4,0.4,0.6
			V130.8z"/>
		<path class="st1" d="M252.3,130.8c0,0.2-0.1,0.4-0.4,0.6c-0.3,0.2-0.5,0.2-0.9,0.2c-0.4,0-0.8-0.1-1-0.4l-8.6-8.9l-2.8,2.5v5.9
			c0,0.2-0.1,0.5-0.4,0.6c-0.2,0.2-0.5,0.2-0.9,0.2c-0.3,0-0.6-0.1-0.9-0.2c-0.2-0.2-0.4-0.4-0.4-0.6v-16c0-0.3,0.1-0.5,0.4-0.6
			c0.2-0.2,0.5-0.2,0.9-0.2c0.3,0,0.6,0.1,0.9,0.2c0.2,0.2,0.4,0.4,0.4,0.6v7.4l9-7.9c0.3-0.2,0.6-0.3,1-0.3c0.3,0,0.6,0.1,0.9,0.3
			c0.3,0.2,0.4,0.4,0.4,0.6c0,0.2-0.1,0.4-0.3,0.5l-6.4,5.6l9,9.3C252.2,130.4,252.3,130.6,252.3,130.8z"/>
		<path class="st1" d="M273.6,130.8c0,0.2-0.1,0.4-0.4,0.6c-0.3,0.2-0.6,0.2-0.9,0.2c-0.5,0-0.9-0.2-1.1-0.5l-2.8-4.4h-11.6
			l-2.6,4.4c-0.2,0.4-0.6,0.6-1.1,0.6c-0.3,0-0.6-0.1-0.9-0.2c-0.3-0.2-0.4-0.4-0.4-0.6c0-0.2,3.1-5.6,9.3-16.3
			c0.3-0.4,0.7-0.7,1.1-0.7c0.5,0,0.9,0.2,1.2,0.6L273.6,130.8z M267.3,125l-5-8l-4.5,8H267.3z"/>
	</g>
</g>
<g>
	<g>
		<polygon class="st1" points="-135.8,26.6 -129.5,20.3 -144.2,0.8 -165.6,0.8 -165.6,106.3 -144.8,106.3 -111.1,62.4 -116.6,56.1 
			-153.8,103.6 -163.2,103.6 -163.2,3.5 -153.2,3.5 		"/>
		<polygon class="st1" points="-134,66.9 -132.5,65.1 -146.3,48.3 -115.7,10.1 -80.5,10.1 -106.9,43.5 -101.2,51 -61.2,1.1 
			-111.1,1.1 -149,48 		"/>
		<path class="st1" d="M-122,44.1l6.3-7.2l53.2,68.8h-40L-122,81.3h2.7l17.7,21.9h23.7c0,0,3.9,0.6,0.6-2.7L-122,44.1z"/>
	</g>
	<g>
		<path class="st2" d="M-146.9,129.7c0,0.3-0.2,0.5-0.5,0.7c-0.8,0.4-1.8,0.8-3,1c-1.1,0.2-2.2,0.3-3.3,0.3c-3.2,0-6-0.9-8.3-2.6
			c-2.4-1.8-3.5-3.9-3.5-6.4c0-2.5,1.2-4.6,3.5-6.3c2.4-1.8,5.1-2.6,8.3-2.6c1.1,0,2.4,0.1,3.7,0.4c1.8,0.4,2.7,0.9,2.7,1.5
			c0,0.2-0.1,0.5-0.4,0.6c-0.3,0.2-0.5,0.3-0.9,0.3c-0.2,0-0.4,0-0.6-0.1c-1.7-0.6-3.3-0.9-4.6-0.9c-2.6,0-4.8,0.7-6.6,2.1
			c-1.8,1.4-2.8,3.1-2.8,5.1c0,2,0.9,3.7,2.8,5.1c1.8,1.4,4.1,2.1,6.6,2.1c1.4,0,3-0.4,4.9-1.1c0.2-0.1,0.4-0.1,0.7-0.1
			c0.3,0,0.6,0.1,0.8,0.3C-147,129.3-146.9,129.5-146.9,129.7z"/>
		<path class="st2" d="M-124.7,130.8c0,0.2-0.1,0.4-0.4,0.6c-0.3,0.2-0.6,0.2-0.9,0.2c-0.5,0-0.9-0.2-1.1-0.5l-2.8-4.4h-11.6
			l-2.6,4.4c-0.2,0.4-0.6,0.6-1.1,0.6c-0.3,0-0.6-0.1-0.9-0.2c-0.3-0.2-0.4-0.4-0.4-0.6c0-0.2,3.1-5.6,9.3-16.3
			c0.3-0.4,0.7-0.7,1.1-0.7c0.5,0,0.9,0.2,1.2,0.6L-124.7,130.8z M-131,125l-5-8l-4.5,8H-131z"/>
		<path class="st2" d="M-108.3,126.4c0,1.5-0.9,2.8-2.6,3.8c-1.6,1-3.4,1.5-5.4,1.5c-1.3,0-2.7-0.3-4.1-0.9
			c-1.4-0.6-2.4-1.4-3.1-2.2c-0.1-0.1-0.2-0.3-0.2-0.4c0-0.2,0.1-0.4,0.4-0.6c0.3-0.2,0.5-0.2,0.9-0.2c0.3,0,0.6,0.1,0.8,0.2
			c0,0,0.2,0.2,0.6,0.5c1.4,1.3,3,2,4.8,2c1.3,0,2.6-0.3,3.7-1c1.2-0.7,1.9-1.6,1.9-2.6c0-1.5-1.1-2.5-3.3-3.1
			c-2-0.4-4.1-0.8-6.1-1.2c-2.2-0.7-3.3-1.9-3.3-3.7c0-1.5,0.8-2.7,2.3-3.6c1.4-0.8,3.1-1.2,5.1-1.2c0.9,0,1.9,0.1,3,0.4
			c1.2,0.3,2,0.7,2.6,1.2c0.2,0.2,0.3,0.4,0.3,0.5c0,0.2-0.1,0.5-0.4,0.6c-0.3,0.2-0.6,0.3-0.9,0.3c-0.3,0-0.6-0.1-0.9-0.3
			c-1-0.6-2.2-1-3.6-1c-1.4,0-2.5,0.2-3.4,0.7c-1,0.5-1.6,1.3-1.6,2.3c0,1.2,1.1,2,3.3,2.4c2,0.4,4.1,0.9,6.1,1.3
			C-109.4,123.1-108.3,124.5-108.3,126.4z"/>
		<path class="st2" d="M-102.6,130.8c0,0.2-0.1,0.5-0.4,0.6c-0.2,0.2-0.5,0.2-0.9,0.2c-0.3,0-0.6-0.1-0.9-0.2
			c-0.2-0.2-0.4-0.4-0.4-0.6v-16c0-0.3,0.1-0.5,0.4-0.6c0.2-0.2,0.5-0.2,0.9-0.2c0.3,0,0.6,0.1,0.9,0.2c0.2,0.2,0.4,0.4,0.4,0.6
			V130.8z"/>
		<path class="st2" d="M-82.5,130.8c0,0.2-0.1,0.4-0.4,0.6c-0.3,0.2-0.5,0.2-0.9,0.2c-0.4,0-0.8-0.1-1-0.4l-8.6-8.9l-2.8,2.5v5.9
			c0,0.2-0.1,0.5-0.4,0.6c-0.2,0.2-0.5,0.2-0.9,0.2c-0.3,0-0.6-0.1-0.9-0.2c-0.2-0.2-0.4-0.4-0.4-0.6v-16c0-0.3,0.1-0.5,0.4-0.6
			c0.2-0.2,0.5-0.2,0.9-0.2c0.3,0,0.6,0.1,0.9,0.2c0.2,0.2,0.4,0.4,0.4,0.6v7.4l9-7.9c0.3-0.2,0.6-0.3,1-0.3c0.3,0,0.6,0.1,0.9,0.3
			c0.3,0.2,0.4,0.4,0.4,0.6c0,0.2-0.1,0.4-0.3,0.5l-6.4,5.6l9,9.3C-82.6,130.4-82.5,130.6-82.5,130.8z"/>
		<path class="st2" d="M-61.2,130.8c0,0.2-0.1,0.4-0.4,0.6c-0.3,0.2-0.6,0.2-0.9,0.2c-0.5,0-0.9-0.2-1.1-0.5l-2.8-4.4h-11.6
			l-2.6,4.4c-0.2,0.4-0.6,0.6-1.1,0.6c-0.3,0-0.6-0.1-0.9-0.2c-0.3-0.2-0.4-0.4-0.4-0.6c0-0.2,3.1-5.6,9.3-16.3
			c0.3-0.4,0.7-0.7,1.1-0.7c0.5,0,0.9,0.2,1.2,0.6L-61.2,130.8z M-67.6,125l-5-8l-4.5,8H-67.6z"/>
	</g>
</g>
<g>
	<g>
		<polygon class="st0" points="30.7,26.6 37,20.3 22.3,0.8 0.9,0.8 0.9,106.3 21.7,106.3 55.4,62.4 49.9,56.1 12.7,103.6 3.3,103.6 
			3.3,3.5 13.3,3.5 		"/>
		<polygon class="st0" points="32.5,66.9 34,65.1 20.2,48.3 50.8,10.1 86,10.1 59.6,43.5 65.3,51 105.3,1.1 55.4,1.1 17.5,48 		"/>
		<path class="st0" d="M44.5,44.1l6.3-7.2l53.2,68.8h-40L44.5,81.3h2.7L65,103.3h23.7c0,0,3.9,0.6,0.6-2.7L44.5,44.1z"/>
	</g>
	<g>
		<path class="st2" d="M19.6,129.7c0,0.3-0.2,0.5-0.5,0.7c-0.8,0.4-1.8,0.8-3,1c-1.1,0.2-2.2,0.3-3.3,0.3c-3.2,0-6-0.9-8.3-2.6
			c-2.4-1.8-3.5-3.9-3.5-6.4c0-2.5,1.2-4.6,3.5-6.3c2.4-1.8,5.1-2.6,8.3-2.6c1.1,0,2.4,0.1,3.7,0.4c1.8,0.4,2.7,0.9,2.7,1.5
			c0,0.2-0.1,0.5-0.4,0.6c-0.3,0.2-0.5,0.3-0.9,0.3c-0.2,0-0.4,0-0.6-0.1c-1.7-0.6-3.3-0.9-4.6-0.9c-2.6,0-4.8,0.7-6.6,2.1
			c-1.8,1.4-2.8,3.1-2.8,5.1c0,2,0.9,3.7,2.8,5.1c1.8,1.4,4.1,2.1,6.6,2.1c1.4,0,3-0.4,4.9-1.1c0.2-0.1,0.4-0.1,0.7-0.1
			c0.3,0,0.6,0.1,0.8,0.3C19.5,129.3,19.6,129.5,19.6,129.7z"/>
		<path class="st2" d="M41.8,130.8c0,0.2-0.1,0.4-0.4,0.6c-0.3,0.2-0.6,0.2-0.9,0.2c-0.5,0-0.9-0.2-1.1-0.5l-2.8-4.4H25l-2.6,4.4
			c-0.2,0.4-0.6,0.6-1.1,0.6c-0.3,0-0.6-0.1-0.9-0.2c-0.3-0.2-0.4-0.4-0.4-0.6c0-0.2,3.1-5.6,9.3-16.3c0.3-0.4,0.7-0.7,1.1-0.7
			c0.5,0,0.9,0.2,1.2,0.6L41.8,130.8z M35.5,125l-5-8l-4.5,8H35.5z"/>
		<path class="st2" d="M58.2,126.4c0,1.5-0.9,2.8-2.6,3.8c-1.6,1-3.4,1.5-5.4,1.5c-1.3,0-2.7-0.3-4.1-0.9c-1.4-0.6-2.4-1.4-3.1-2.2
			c-0.1-0.1-0.2-0.3-0.2-0.4c0-0.2,0.1-0.4,0.4-0.6c0.3-0.2,0.5-0.2,0.9-0.2c0.3,0,0.6,0.1,0.8,0.2c0,0,0.2,0.2,0.6,0.5
			c1.4,1.3,3,2,4.8,2c1.3,0,2.6-0.3,3.7-1c1.2-0.7,1.9-1.6,1.9-2.6c0-1.5-1.1-2.5-3.3-3.1c-2-0.4-4.1-0.8-6.1-1.2
			c-2.2-0.7-3.3-1.9-3.3-3.7c0-1.5,0.8-2.7,2.3-3.6c1.4-0.8,3.1-1.2,5.1-1.2c0.9,0,1.9,0.1,3,0.4c1.2,0.3,2,0.7,2.6,1.2
			c0.2,0.2,0.3,0.4,0.3,0.5c0,0.2-0.1,0.5-0.4,0.6c-0.3,0.2-0.6,0.3-0.9,0.3c-0.3,0-0.6-0.1-0.9-0.3c-1-0.6-2.2-1-3.6-1
			c-1.4,0-2.5,0.2-3.4,0.7c-1,0.5-1.6,1.3-1.6,2.3c0,1.2,1.1,2,3.3,2.4c2,0.4,4.1,0.9,6.1,1.3C57.1,123.1,58.2,124.5,58.2,126.4z"/>
		<path class="st2" d="M63.9,130.8c0,0.2-0.1,0.5-0.4,0.6c-0.2,0.2-0.5,0.2-0.9,0.2c-0.3,0-0.6-0.1-0.9-0.2
			c-0.2-0.2-0.4-0.4-0.4-0.6v-16c0-0.3,0.1-0.5,0.4-0.6c0.2-0.2,0.5-0.2,0.9-0.2c0.3,0,0.6,0.1,0.9,0.2c0.2,0.2,0.4,0.4,0.4,0.6
			V130.8z"/>
		<path class="st2" d="M84,130.8c0,0.2-0.1,0.4-0.4,0.6c-0.3,0.2-0.5,0.2-0.9,0.2c-0.4,0-0.8-0.1-1-0.4l-8.6-8.9l-2.8,2.5v5.9
			c0,0.2-0.1,0.5-0.4,0.6c-0.2,0.2-0.5,0.2-0.9,0.2c-0.3,0-0.6-0.1-0.9-0.2c-0.2-0.2-0.4-0.4-0.4-0.6v-16c0-0.3,0.1-0.5,0.4-0.6
			c0.2-0.2,0.5-0.2,0.9-0.2c0.3,0,0.6,0.1,0.9,0.2c0.2,0.2,0.4,0.4,0.4,0.6v7.4l9-7.9c0.3-0.2,0.6-0.3,1-0.3c0.3,0,0.6,0.1,0.9,0.3
			c0.3,0.2,0.4,0.4,0.4,0.6c0,0.2-0.1,0.4-0.3,0.5l-6.4,5.6l9,9.3C83.9,130.4,84,130.6,84,130.8z"/>
		<path class="st2" d="M105.3,130.8c0,0.2-0.1,0.4-0.4,0.6c-0.3,0.2-0.6,0.2-0.9,0.2c-0.5,0-0.9-0.2-1.1-0.5l-2.8-4.4H88.4l-2.6,4.4
			c-0.2,0.4-0.6,0.6-1.1,0.6c-0.3,0-0.6-0.1-0.9-0.2c-0.3-0.2-0.4-0.4-0.4-0.6c0-0.2,3.1-5.6,9.3-16.3c0.3-0.4,0.7-0.7,1.1-0.7
			c0.5,0,0.9,0.2,1.2,0.6L105.3,130.8z M98.9,125l-5-8l-4.5,8H98.9z"/>
	</g>
</g>
<g>
	<g>
		<g>
			<path class="st3" d="M447.6,460.8c0,0.3-0.2,0.5-0.5,0.7c-0.8,0.4-1.8,0.8-3,1c-1.1,0.2-2.2,0.3-3.3,0.3c-3.2,0-6-0.9-8.3-2.6
				c-2.4-1.8-3.5-3.9-3.5-6.4c0-2.5,1.2-4.6,3.5-6.3c2.4-1.8,5.1-2.6,8.3-2.6c1.1,0,2.4,0.1,3.7,0.4c1.8,0.4,2.7,0.9,2.7,1.5
				c0,0.2-0.1,0.5-0.4,0.6c-0.3,0.2-0.5,0.3-0.9,0.3c-0.2,0-0.4,0-0.6-0.1c-1.7-0.6-3.3-0.9-4.6-0.9c-2.6,0-4.8,0.7-6.6,2.1
				c-1.8,1.4-2.8,3.1-2.8,5.1c0,2,0.9,3.7,2.8,5.1c1.8,1.4,4.1,2.1,6.6,2.1c1.4,0,3-0.4,4.9-1.1c0.2-0.1,0.4-0.1,0.7-0.1
				c0.3,0,0.6,0.1,0.8,0.3C447.5,460.4,447.6,460.6,447.6,460.8z"/>
			<path class="st3" d="M469.8,461.9c0,0.2-0.1,0.4-0.4,0.6c-0.3,0.2-0.6,0.2-0.9,0.2c-0.5,0-0.9-0.2-1.1-0.5l-2.8-4.4H453l-2.6,4.4
				c-0.2,0.4-0.6,0.6-1.1,0.6c-0.3,0-0.6-0.1-0.9-0.2c-0.3-0.2-0.4-0.4-0.4-0.6c0-0.2,3.1-5.6,9.3-16.3c0.3-0.4,0.7-0.7,1.1-0.7
				c0.5,0,0.9,0.2,1.2,0.6L469.8,461.9z M463.5,456.1l-5-8l-4.5,8H463.5z"/>
			<path class="st3" d="M486.2,457.5c0,1.5-0.9,2.8-2.6,3.8c-1.6,1-3.4,1.5-5.4,1.5c-1.3,0-2.7-0.3-4.1-0.9
				c-1.4-0.6-2.4-1.4-3.1-2.2c-0.1-0.1-0.2-0.3-0.2-0.4c0-0.2,0.1-0.4,0.4-0.6c0.3-0.2,0.5-0.2,0.9-0.2c0.3,0,0.6,0.1,0.8,0.2
				c0,0,0.2,0.2,0.6,0.5c1.4,1.3,3,2,4.8,2c1.3,0,2.6-0.3,3.7-1c1.2-0.7,1.9-1.6,1.9-2.6c0-1.5-1.1-2.5-3.3-3.1
				c-2-0.4-4.1-0.8-6.1-1.2c-2.2-0.7-3.3-1.9-3.3-3.7c0-1.5,0.8-2.7,2.3-3.6c1.4-0.8,3.1-1.2,5.1-1.2c0.9,0,1.9,0.1,3,0.4
				c1.2,0.3,2,0.7,2.6,1.2c0.2,0.2,0.3,0.4,0.3,0.5c0,0.2-0.1,0.5-0.4,0.6c-0.3,0.2-0.6,0.3-0.9,0.3c-0.3,0-0.6-0.1-0.9-0.3
				c-1-0.6-2.2-1-3.6-1c-1.4,0-2.5,0.2-3.4,0.7c-1,0.5-1.6,1.3-1.6,2.3c0,1.2,1.1,2,3.3,2.4c2,0.4,4.1,0.9,6.1,1.3
				C485.1,454.2,486.2,455.6,486.2,457.5z"/>
			<path class="st3" d="M491.9,461.9c0,0.2-0.1,0.5-0.4,0.6s-0.5,0.2-0.9,0.2c-0.3,0-0.6-0.1-0.9-0.2s-0.4-0.4-0.4-0.6v-16
				c0-0.3,0.1-0.5,0.4-0.6c0.2-0.2,0.5-0.2,0.9-0.2c0.3,0,0.6,0.1,0.9,0.2c0.2,0.2,0.4,0.4,0.4,0.6V461.9z"/>
			<path class="st3" d="M512,461.9c0,0.2-0.1,0.4-0.4,0.6c-0.3,0.2-0.5,0.2-0.9,0.2c-0.4,0-0.8-0.1-1-0.4l-8.6-8.9l-2.8,2.5v5.9
				c0,0.2-0.1,0.5-0.4,0.6s-0.5,0.2-0.9,0.2c-0.3,0-0.6-0.1-0.9-0.2s-0.4-0.4-0.4-0.6v-16c0-0.3,0.1-0.5,0.4-0.6
				c0.2-0.2,0.5-0.2,0.9-0.2c0.3,0,0.6,0.1,0.9,0.2c0.2,0.2,0.4,0.4,0.4,0.6v7.4l9-7.9c0.3-0.2,0.6-0.3,1-0.3c0.3,0,0.6,0.1,0.9,0.3
				c0.3,0.2,0.4,0.4,0.4,0.6c0,0.2-0.1,0.4-0.3,0.5l-6.4,5.6l9,9.3C511.9,461.5,512,461.7,512,461.9z"/>
			<path class="st3" d="M533.3,461.9c0,0.2-0.1,0.4-0.4,0.6c-0.3,0.2-0.6,0.2-0.9,0.2c-0.5,0-0.9-0.2-1.1-0.5l-2.8-4.4h-11.6
				l-2.6,4.4c-0.2,0.4-0.6,0.6-1.1,0.6c-0.3,0-0.6-0.1-0.9-0.2c-0.3-0.2-0.4-0.4-0.4-0.6c0-0.2,3.1-5.6,9.3-16.3
				c0.3-0.4,0.7-0.7,1.1-0.7c0.5,0,0.9,0.2,1.2,0.6L533.3,461.9z M526.9,456.1l-5-8l-4.5,8H526.9z"/>
		</g>
		
			<text transform="matrix(1.2042 0 0 1 535.511 462.6265)" class="st4" style="font-family:'Arcon-Rounded-Regular'; font-size:24.4391px; letter-spacing:-1.7;">PRO</text>
	</g>
</g>
<g>
	<g>
		<g>
			<polygon class="st0" points="667.3,683.1 671.1,679.3 662.3,667.7 649.6,667.7 649.6,730.5 661.9,730.5 682,704.4 678.8,700.6 
				656.6,728.9 651,728.9 651,669.3 656.9,669.3 			"/>
			<polygon class="st0" points="668.4,707 669.3,706 661,695.9 679.3,673.2 700.3,673.2 684.5,693.1 687.9,697.6 711.7,667.8 
				682,667.8 659.4,695.8 			"/>
			<path class="st0" d="M675.6,693.4l3.8-4.3l31.7,41h-23.8l-11.6-14.5h1.6l10.6,13.1h14.1c0,0,2.3,0.4,0.4-1.6L675.6,693.4z"/>
		</g>
	</g>
	<g>
		<g>
			<g>
				<path class="st3" d="M636,749.3c0,0.2-0.1,0.3-0.3,0.4c-0.5,0.3-1.1,0.5-1.9,0.6c-0.7,0.1-1.4,0.2-2.1,0.2
					c-2.1,0-3.9-0.6-5.4-1.7c-1.5-1.1-2.3-2.5-2.3-4.1c0-1.6,0.8-3,2.3-4.1c1.5-1.1,3.3-1.7,5.4-1.7c0.7,0,1.5,0.1,2.4,0.3
					c1.2,0.2,1.7,0.6,1.7,0.9c0,0.2-0.1,0.3-0.2,0.4c-0.2,0.1-0.3,0.2-0.6,0.2c-0.1,0-0.3,0-0.4-0.1c-1.1-0.4-2.1-0.6-2.9-0.6
					c-1.6,0-3.1,0.5-4.3,1.4c-1.2,0.9-1.8,2-1.8,3.3c0,1.3,0.6,2.4,1.8,3.3c1.2,0.9,2.6,1.4,4.3,1.4c0.9,0,1.9-0.2,3.2-0.7
					c0.1-0.1,0.3-0.1,0.4-0.1c0.2,0,0.4,0.1,0.5,0.2C635.9,749,636,749.2,636,749.3z"/>
				<path class="st3" d="M650.3,750c0,0.2-0.1,0.3-0.3,0.4c-0.2,0.1-0.4,0.2-0.6,0.2c-0.3,0-0.6-0.1-0.7-0.3l-1.8-2.8h-7.5l-1.6,2.8
					c-0.1,0.2-0.4,0.4-0.7,0.4c-0.2,0-0.4-0.1-0.6-0.2c-0.2-0.1-0.3-0.2-0.3-0.4c0-0.1,2-3.6,6-10.5c0.2-0.3,0.4-0.4,0.7-0.4
					c0.3,0,0.6,0.1,0.8,0.4L650.3,750z M646.2,746.3l-3.2-5.1l-2.9,5.1H646.2z"/>
				<path class="st3" d="M660.9,747.2c0,1-0.6,1.8-1.7,2.5c-1.1,0.6-2.2,1-3.5,1c-0.8,0-1.7-0.2-2.6-0.6c-0.9-0.4-1.6-0.9-2-1.4
					c-0.1-0.1-0.1-0.2-0.1-0.3c0-0.2,0.1-0.3,0.2-0.4c0.2-0.1,0.3-0.2,0.6-0.2c0.2,0,0.4,0,0.5,0.1c0,0,0.1,0.1,0.4,0.3
					c0.9,0.8,1.9,1.3,3.1,1.3c0.8,0,1.6-0.2,2.4-0.6c0.8-0.5,1.2-1,1.2-1.7c0-1-0.7-1.6-2.1-2c-1.3-0.3-2.6-0.5-3.9-0.8
					c-1.4-0.4-2.1-1.2-2.1-2.4c0-1,0.5-1.8,1.5-2.3c0.9-0.5,2-0.8,3.3-0.8c0.6,0,1.2,0.1,1.9,0.3c0.8,0.2,1.3,0.5,1.6,0.8
					c0.1,0.1,0.2,0.2,0.2,0.3c0,0.2-0.1,0.3-0.3,0.4c-0.2,0.1-0.4,0.2-0.6,0.2c-0.2,0-0.4-0.1-0.6-0.2c-0.7-0.4-1.4-0.6-2.3-0.6
					c-0.9,0-1.6,0.1-2.2,0.4c-0.7,0.3-1,0.8-1,1.5c0,0.8,0.7,1.3,2.1,1.6c1.3,0.3,2.6,0.5,3.9,0.8
					C660.2,745,660.9,745.9,660.9,747.2z"/>
				<path class="st3" d="M664.5,750c0,0.2-0.1,0.3-0.2,0.4c-0.2,0.1-0.3,0.2-0.6,0.2c-0.2,0-0.4-0.1-0.6-0.2
					c-0.2-0.1-0.2-0.2-0.2-0.4v-10.3c0-0.2,0.1-0.3,0.2-0.4c0.2-0.1,0.3-0.2,0.6-0.2c0.2,0,0.4,0.1,0.6,0.2c0.2,0.1,0.2,0.2,0.2,0.4
					V750z"/>
				<path class="st3" d="M677.5,750c0,0.2-0.1,0.3-0.2,0.4c-0.2,0.1-0.3,0.2-0.6,0.2c-0.3,0-0.5-0.1-0.7-0.2l-5.5-5.7l-1.8,1.6v3.8
					c0,0.2-0.1,0.3-0.2,0.4c-0.2,0.1-0.3,0.2-0.6,0.2c-0.2,0-0.4-0.1-0.6-0.2c-0.2-0.1-0.2-0.2-0.2-0.4v-10.3c0-0.2,0.1-0.3,0.2-0.4
					c0.2-0.1,0.3-0.2,0.6-0.2c0.2,0,0.4,0.1,0.6,0.2c0.2,0.1,0.2,0.2,0.2,0.4v4.7l5.8-5.1c0.2-0.1,0.4-0.2,0.6-0.2
					c0.2,0,0.4,0.1,0.6,0.2c0.2,0.1,0.3,0.2,0.3,0.4c0,0.1-0.1,0.2-0.2,0.3l-4.2,3.6l5.8,6C677.4,749.8,677.5,749.9,677.5,750z"/>
				<path class="st3" d="M691.2,750c0,0.2-0.1,0.3-0.3,0.4c-0.2,0.1-0.4,0.2-0.6,0.2c-0.3,0-0.6-0.1-0.7-0.3l-1.8-2.8h-7.5l-1.6,2.8
					c-0.1,0.2-0.4,0.4-0.7,0.4c-0.2,0-0.4-0.1-0.6-0.2c-0.2-0.1-0.3-0.2-0.3-0.4c0-0.1,2-3.6,6-10.5c0.2-0.3,0.4-0.4,0.7-0.4
					c0.3,0,0.6,0.1,0.8,0.4L691.2,750z M687.1,746.3l-3.2-5.1l-2.9,5.1H687.1z"/>
			</g>
			<g>
				<path class="st4" d="M698.6,739.2c2.6,0,4.3,1.4,4.3,3.5c0,2.1-1.7,3.5-4.3,3.5h-3.1v3.7c0,0.3-0.2,0.5-0.6,0.5h-0.2
					c-0.4,0-0.6-0.2-0.6-0.5v-10.2c0-0.3,0.2-0.5,0.6-0.5H698.6z M698.6,745.1c1.7,0,2.9-1,2.9-2.4c0-1.4-1.1-2.4-2.9-2.4h-3.1v4.8
					H698.6z"/>
				<path class="st4" d="M704.2,750.5c-0.4,0-0.6-0.2-0.6-0.5v-10.2c0-0.3,0.2-0.5,0.6-0.5h3.8c2.6,0,4.3,1.4,4.3,3.5
					c0,1.7-1.2,3-3.1,3.4l3.5,3.7c0.3,0.3,0.2,0.6-0.4,0.6H712c-0.3,0-0.5-0.1-0.7-0.3l-3.8-4H705v3.7c0,0.3-0.2,0.5-0.6,0.5H704.2z
					 M708,745.1c1.7,0,2.9-1,2.9-2.4c0-1.4-1.1-2.4-2.9-2.4H705v4.8H708z"/>
				<path class="st4" d="M726.9,744.8c0,3.2-3.2,5.8-7.1,5.8c-3.9,0-7.1-2.6-7.1-5.8c0-3.1,3.2-5.7,7.1-5.7
					C723.7,739.1,726.9,741.7,726.9,744.8z M725.5,744.8c0-2.5-2.5-4.6-5.6-4.6c-3.1,0-5.6,2.1-5.6,4.6c0,2.6,2.5,4.7,5.6,4.7
					C723,749.5,725.5,747.4,725.5,744.8z"/>
			</g>
		</g>
	</g>
	<g>
		<g>
			<g>
				<path class="st3" d="M645,591.4c0,0.3-0.2,0.6-0.6,0.8c-0.9,0.5-2.1,0.9-3.6,1.2c-1.4,0.3-2.7,0.4-3.9,0.4
					c-3.9,0-7.2-1.1-10-3.2c-2.8-2.1-4.3-4.7-4.3-7.7c0-3,1.4-5.5,4.3-7.6c2.8-2.1,6.2-3.2,10-3.2c1.4,0,2.8,0.2,4.5,0.5
					c2.2,0.4,3.3,1,3.3,1.8c0,0.3-0.2,0.6-0.5,0.8c-0.3,0.2-0.7,0.3-1,0.3c-0.3,0-0.5,0-0.7-0.1c-2.1-0.7-3.9-1.1-5.5-1.1
					c-3.1,0-5.7,0.9-8,2.6c-2.2,1.7-3.3,3.8-3.3,6.2c0,2.4,1.1,4.4,3.3,6.2c2.2,1.7,4.9,2.6,8,2.6c1.7,0,3.6-0.4,5.9-1.3
					c0.3-0.1,0.5-0.1,0.8-0.1c0.4,0,0.7,0.1,1,0.3C644.8,590.8,645,591.1,645,591.4z"/>
				<path class="st3" d="M671.8,592.7c0,0.3-0.2,0.5-0.5,0.7c-0.3,0.2-0.7,0.3-1.1,0.3c-0.6,0-1.1-0.2-1.3-0.7l-3.4-5.3h-14
					l-3.1,5.3c-0.3,0.5-0.7,0.7-1.4,0.7c-0.4,0-0.7-0.1-1.1-0.3c-0.3-0.2-0.5-0.4-0.5-0.7c0-0.2,3.7-6.8,11.2-19.7
					c0.4-0.5,0.8-0.8,1.4-0.8c0.6,0,1.1,0.2,1.4,0.7L671.8,592.7z M664.2,585.7l-6-9.6l-5.4,9.6H664.2z"/>
				<path class="st3" d="M691.5,587.4c0,1.8-1.1,3.3-3.2,4.6c-2,1.2-4.1,1.8-6.5,1.8c-1.6,0-3.2-0.4-4.9-1.1
					c-1.7-0.7-2.9-1.6-3.8-2.7c-0.1-0.2-0.2-0.3-0.2-0.5c0-0.3,0.2-0.5,0.5-0.7c0.3-0.2,0.7-0.3,1-0.3c0.4,0,0.7,0.1,1,0.3
					c0,0,0.2,0.2,0.7,0.6c1.7,1.6,3.6,2.4,5.7,2.4c1.6,0,3.1-0.4,4.5-1.2c1.5-0.9,2.3-1.9,2.3-3.1c0-1.8-1.3-3-4-3.7
					c-2.5-0.5-4.9-1-7.4-1.4c-2.7-0.8-4-2.3-4-4.4c0-1.8,0.9-3.3,2.8-4.3c1.7-0.9,3.7-1.4,6.2-1.4c1.1,0,2.3,0.2,3.6,0.5
					c1.4,0.4,2.4,0.9,3.1,1.4c0.2,0.2,0.3,0.4,0.3,0.7c0,0.3-0.2,0.5-0.5,0.8c-0.3,0.2-0.7,0.3-1.1,0.3c-0.3,0-0.7-0.1-1.1-0.4
					c-1.2-0.8-2.7-1.2-4.4-1.2c-1.7,0-3,0.3-4.1,0.8c-1.3,0.6-1.9,1.6-1.9,2.8c0,1.4,1.3,2.4,4,3c2.4,0.5,4.9,1,7.3,1.5
					C690.2,583.4,691.5,585,691.5,587.4z"/>
				<path class="st3" d="M698.4,592.7c0,0.3-0.2,0.5-0.5,0.7c-0.3,0.2-0.7,0.3-1.1,0.3c-0.4,0-0.8-0.1-1.1-0.3
					c-0.3-0.2-0.5-0.4-0.5-0.7v-19.3c0-0.3,0.2-0.6,0.5-0.8c0.3-0.2,0.7-0.3,1.1-0.3c0.4,0,0.8,0.1,1.1,0.3c0.3,0.2,0.5,0.4,0.5,0.8
					V592.7z"/>
				<path class="st3" d="M722.6,592.7c0,0.3-0.2,0.5-0.5,0.7c-0.3,0.2-0.7,0.3-1,0.3c-0.5,0-0.9-0.2-1.2-0.5l-10.3-10.8l-3.4,3.1
					v7.1c0,0.3-0.2,0.5-0.5,0.7c-0.3,0.2-0.7,0.3-1.1,0.3c-0.4,0-0.8-0.1-1.1-0.3c-0.3-0.2-0.5-0.4-0.5-0.7v-19.3
					c0-0.3,0.2-0.6,0.5-0.8c0.3-0.2,0.7-0.3,1.1-0.3c0.4,0,0.8,0.1,1.1,0.3c0.3,0.2,0.5,0.4,0.5,0.8v8.9l10.8-9.5
					c0.3-0.3,0.7-0.4,1.2-0.4c0.4,0,0.7,0.1,1.1,0.3c0.3,0.2,0.5,0.5,0.5,0.8c0,0.2-0.1,0.4-0.4,0.7l-7.8,6.8l10.8,11.2
					C722.5,592.2,722.6,592.4,722.6,592.7z"/>
				<path class="st3" d="M748.2,592.7c0,0.3-0.2,0.5-0.5,0.7c-0.3,0.2-0.7,0.3-1.1,0.3c-0.6,0-1.1-0.2-1.3-0.7l-3.4-5.3h-14
					l-3.1,5.3c-0.3,0.5-0.7,0.7-1.4,0.7c-0.4,0-0.7-0.1-1.1-0.3c-0.3-0.2-0.5-0.4-0.5-0.7c0-0.2,3.7-6.8,11.2-19.7
					c0.4-0.5,0.8-0.8,1.4-0.8c0.6,0,1.1,0.2,1.4,0.7L748.2,592.7z M740.6,585.7l-6-9.6l-5.4,9.6H740.6z"/>
			</g>
			<g>
				<path class="st4" d="M762.1,572.5c4.8,0,8.1,2.6,8.1,6.5c0,3.9-3.2,6.5-8.1,6.5h-5.7v7c0,0.6-0.4,0.9-1.1,0.9h-0.3
					c-0.7,0-1.1-0.3-1.1-0.9v-19.2c0-0.6,0.4-0.9,1.1-0.9H762.1z M762.1,583.5c3.2,0,5.4-1.8,5.4-4.5c0-2.7-2.1-4.5-5.4-4.5h-5.7v9
					H762.1z"/>
				<path class="st4" d="M772.6,593.6c-0.7,0-1.1-0.3-1.1-0.9v-19.2c0-0.6,0.4-0.9,1.1-0.9h7.2c4.8,0,8.1,2.6,8.1,6.5
					c0,3.3-2.2,5.6-5.8,6.3l6.6,7c0.6,0.6,0.3,1.1-0.7,1.1h-0.8c-0.6,0-1-0.2-1.4-0.6l-7-7.4H774v7c0,0.6-0.4,0.9-1.1,0.9H772.6z
					 M779.7,583.5c3.2,0,5.4-1.8,5.4-4.5c0-2.7-2.1-4.5-5.4-4.5H774v9H779.7z"/>
				<path class="st4" d="M815.1,582.9c0,6-5.9,10.9-13.2,10.9s-13.2-4.9-13.2-10.9c0-5.8,5.9-10.7,13.2-10.7
					S815.1,577.1,815.1,582.9z M812.4,582.9c0-4.6-4.7-8.5-10.5-8.5c-5.9,0-10.5,3.9-10.5,8.5c0,4.9,4.7,8.8,10.5,8.8
					C807.7,591.6,812.4,587.8,812.4,582.9z"/>
			</g>
		</g>
	</g>
</g>
<g>
	<polygon class="st0" points="240.9,381.6 245.5,376.9 234.7,362.6 219,362.6 219,440.1 234.2,440.1 259,407.9 255,403.2 
		227.6,438.1 220.8,438.1 220.8,364.6 228,364.6 	"/>
	<polygon class="st0" points="242.2,411.2 243.3,409.9 233.1,397.5 255.7,369.4 281.5,369.4 262.1,394 266.3,399.5 295.6,362.8 
		259,362.8 231.1,397.3 	"/>
	<path class="st0" d="M251,394.4l4.6-5.3l39.1,50.6h-29.4L251,421.8h2l13,16.1h17.5c0,0,2.9,0.4,0.4-2L251,394.4z"/>
</g>
<g>
	<g>
		<g>
			<path class="st2" d="M196.1,460.8c0,0.3-0.2,0.5-0.5,0.7c-0.8,0.4-1.8,0.8-3,1c-1.1,0.2-2.2,0.3-3.3,0.3c-3.2,0-6-0.9-8.3-2.6
				c-2.4-1.8-3.5-3.9-3.5-6.4c0-2.5,1.2-4.6,3.5-6.3c2.4-1.8,5.1-2.6,8.3-2.6c1.1,0,2.4,0.1,3.7,0.4c1.8,0.4,2.7,0.9,2.7,1.5
				c0,0.2-0.1,0.5-0.4,0.6c-0.3,0.2-0.5,0.3-0.9,0.3c-0.2,0-0.4,0-0.6-0.1c-1.7-0.6-3.3-0.9-4.6-0.9c-2.6,0-4.8,0.7-6.6,2.1
				c-1.8,1.4-2.8,3.1-2.8,5.1c0,2,0.9,3.7,2.8,5.1c1.8,1.4,4.1,2.1,6.6,2.1c1.4,0,3-0.4,4.9-1.1c0.2-0.1,0.4-0.1,0.7-0.1
				c0.3,0,0.6,0.1,0.8,0.3C196,460.4,196.1,460.6,196.1,460.8z"/>
			<path class="st2" d="M218.3,461.9c0,0.2-0.1,0.4-0.4,0.6c-0.3,0.2-0.6,0.2-0.9,0.2c-0.5,0-0.9-0.2-1.1-0.5l-2.8-4.4h-11.6
				l-2.6,4.4c-0.2,0.4-0.6,0.6-1.1,0.6c-0.3,0-0.6-0.1-0.9-0.2c-0.3-0.2-0.4-0.4-0.4-0.6c0-0.2,3.1-5.6,9.3-16.3
				c0.3-0.4,0.7-0.7,1.1-0.7c0.5,0,0.9,0.2,1.2,0.6L218.3,461.9z M212,456.1l-5-8l-4.5,8H212z"/>
			<path class="st2" d="M234.7,457.5c0,1.5-0.9,2.8-2.6,3.8c-1.6,1-3.4,1.5-5.4,1.5c-1.3,0-2.7-0.3-4.1-0.9
				c-1.4-0.6-2.4-1.4-3.1-2.2c-0.1-0.1-0.2-0.3-0.2-0.4c0-0.2,0.1-0.4,0.4-0.6c0.3-0.2,0.5-0.2,0.9-0.2c0.3,0,0.6,0.1,0.8,0.2
				c0,0,0.2,0.2,0.6,0.5c1.4,1.3,3,2,4.8,2c1.3,0,2.6-0.3,3.7-1c1.2-0.7,1.9-1.6,1.9-2.6c0-1.5-1.1-2.5-3.3-3.1
				c-2-0.4-4.1-0.8-6.1-1.2c-2.2-0.7-3.3-1.9-3.3-3.7c0-1.5,0.8-2.7,2.3-3.6c1.4-0.8,3.1-1.2,5.1-1.2c0.9,0,1.9,0.1,3,0.4
				c1.2,0.3,2,0.7,2.6,1.2c0.2,0.2,0.3,0.4,0.3,0.5c0,0.2-0.1,0.5-0.4,0.6c-0.3,0.2-0.6,0.3-0.9,0.3c-0.3,0-0.6-0.1-0.9-0.3
				c-1-0.6-2.2-1-3.6-1c-1.4,0-2.5,0.2-3.4,0.7c-1,0.5-1.6,1.3-1.6,2.3c0,1.2,1.1,2,3.3,2.4c2,0.4,4.1,0.9,6.1,1.3
				C233.6,454.2,234.7,455.6,234.7,457.5z"/>
			<path class="st2" d="M240.4,461.9c0,0.2-0.1,0.5-0.4,0.6c-0.2,0.2-0.5,0.2-0.9,0.2c-0.3,0-0.6-0.1-0.9-0.2
				c-0.2-0.2-0.4-0.4-0.4-0.6v-16c0-0.3,0.1-0.5,0.4-0.6c0.2-0.2,0.5-0.2,0.9-0.2c0.3,0,0.6,0.1,0.9,0.2c0.2,0.2,0.4,0.4,0.4,0.6
				V461.9z"/>
			<path class="st2" d="M260.5,461.9c0,0.2-0.1,0.4-0.4,0.6c-0.3,0.2-0.5,0.2-0.9,0.2c-0.4,0-0.8-0.1-1-0.4l-8.6-8.9l-2.8,2.5v5.9
				c0,0.2-0.1,0.5-0.4,0.6c-0.2,0.2-0.5,0.2-0.9,0.2c-0.3,0-0.6-0.1-0.9-0.2c-0.2-0.2-0.4-0.4-0.4-0.6v-16c0-0.3,0.1-0.5,0.4-0.6
				c0.2-0.2,0.5-0.2,0.9-0.2c0.3,0,0.6,0.1,0.9,0.2c0.2,0.2,0.4,0.4,0.4,0.6v7.4l9-7.9c0.3-0.2,0.6-0.3,1-0.3c0.3,0,0.6,0.1,0.9,0.3
				c0.3,0.2,0.4,0.4,0.4,0.6c0,0.2-0.1,0.4-0.3,0.5l-6.4,5.6l9,9.3C260.4,461.5,260.5,461.7,260.5,461.9z"/>
			<path class="st2" d="M281.8,461.9c0,0.2-0.1,0.4-0.4,0.6c-0.3,0.2-0.6,0.2-0.9,0.2c-0.5,0-0.9-0.2-1.1-0.5l-2.8-4.4h-11.6
				l-2.6,4.4c-0.2,0.4-0.6,0.6-1.1,0.6c-0.3,0-0.6-0.1-0.9-0.2c-0.3-0.2-0.4-0.4-0.4-0.6c0-0.2,3.1-5.6,9.3-16.3
				c0.3-0.4,0.7-0.7,1.1-0.7c0.5,0,0.9,0.2,1.2,0.6L281.8,461.9z M275.4,456.1l-5-8l-4.5,8H275.4z"/>
		</g>
		
			<text transform="matrix(1.2042 0 0 1 284.011 462.6265)" class="st4" style="font-family:'Arcon-Rounded-Regular'; font-size:24.4391px; letter-spacing:-1.7;">PRO</text>
	</g>
</g>
<g>
	<polygon class="st0" points="36.4,381.6 41,376.9 30.2,362.6 14.5,362.6 14.5,440.1 29.7,440.1 54.5,407.9 50.5,403.2 23.1,438.1 
		16.3,438.1 16.3,364.6 23.5,364.6 	"/>
	<polygon class="st0" points="37.7,411.2 38.8,409.9 28.6,397.5 51.2,369.4 77,369.4 57.6,394 61.8,399.5 91.1,362.8 54.5,362.8 
		26.6,397.3 	"/>
	<path class="st0" d="M46.5,394.4l4.6-5.3l39.1,50.6H60.9l-14.4-17.9h2l13,16.1H79c0,0,2.9,0.4,0.4-2L46.5,394.4z"/>
</g>
<g>
	<g>
		<path class="st2" d="M-8.4,460.8c0,0.3-0.2,0.5-0.5,0.7c-0.8,0.4-1.8,0.8-3,1c-1.1,0.2-2.2,0.3-3.3,0.3c-3.2,0-6-0.9-8.3-2.6
			c-2.4-1.8-3.5-3.9-3.5-6.4c0-2.5,1.2-4.6,3.5-6.3c2.4-1.8,5.1-2.6,8.3-2.6c1.1,0,2.4,0.1,3.7,0.4c1.8,0.4,2.7,0.9,2.7,1.5
			c0,0.2-0.1,0.5-0.4,0.6c-0.3,0.2-0.5,0.3-0.9,0.3c-0.2,0-0.4,0-0.6-0.1c-1.7-0.6-3.3-0.9-4.6-0.9c-2.6,0-4.8,0.7-6.6,2.1
			c-1.8,1.4-2.8,3.1-2.8,5.1c0,2,0.9,3.7,2.8,5.1c1.8,1.4,4.1,2.1,6.6,2.1c1.4,0,3-0.4,4.9-1.1c0.2-0.1,0.4-0.1,0.7-0.1
			c0.3,0,0.6,0.1,0.8,0.3C-8.5,460.4-8.4,460.6-8.4,460.8z"/>
		<path class="st2" d="M13.8,461.9c0,0.2-0.1,0.4-0.4,0.6c-0.3,0.2-0.6,0.2-0.9,0.2c-0.5,0-0.9-0.2-1.1-0.5l-2.8-4.4H-3l-2.6,4.4
			c-0.2,0.4-0.6,0.6-1.1,0.6c-0.3,0-0.6-0.1-0.9-0.2c-0.3-0.2-0.4-0.4-0.4-0.6c0-0.2,3.1-5.6,9.3-16.3c0.3-0.4,0.7-0.7,1.1-0.7
			c0.5,0,0.9,0.2,1.2,0.6L13.8,461.9z M7.5,456.1l-5-8l-4.5,8H7.5z"/>
		<path class="st2" d="M30.2,457.5c0,1.5-0.9,2.8-2.6,3.8c-1.6,1-3.4,1.5-5.4,1.5c-1.3,0-2.7-0.3-4.1-0.9c-1.4-0.6-2.4-1.4-3.1-2.2
			c-0.1-0.1-0.2-0.3-0.2-0.4c0-0.2,0.1-0.4,0.4-0.6c0.3-0.2,0.5-0.2,0.9-0.2c0.3,0,0.6,0.1,0.8,0.2c0,0,0.2,0.2,0.6,0.5
			c1.4,1.3,3,2,4.8,2c1.3,0,2.6-0.3,3.7-1c1.2-0.7,1.9-1.6,1.9-2.6c0-1.5-1.1-2.5-3.3-3.1c-2-0.4-4.1-0.8-6.1-1.2
			c-2.2-0.7-3.3-1.9-3.3-3.7c0-1.5,0.8-2.7,2.3-3.6c1.4-0.8,3.1-1.2,5.1-1.2c0.9,0,1.9,0.1,3,0.4c1.2,0.3,2,0.7,2.6,1.2
			c0.2,0.2,0.3,0.4,0.3,0.5c0,0.2-0.1,0.5-0.4,0.6c-0.3,0.2-0.6,0.3-0.9,0.3c-0.3,0-0.6-0.1-0.9-0.3c-1-0.6-2.2-1-3.6-1
			c-1.4,0-2.5,0.2-3.4,0.7c-1,0.5-1.6,1.3-1.6,2.3c0,1.2,1.1,2,3.3,2.4c2,0.4,4.1,0.9,6.1,1.3C29.1,454.2,30.2,455.6,30.2,457.5z"/>
		<path class="st2" d="M35.9,461.9c0,0.2-0.1,0.5-0.4,0.6c-0.2,0.2-0.5,0.2-0.9,0.2c-0.3,0-0.6-0.1-0.9-0.2s-0.4-0.4-0.4-0.6v-16
			c0-0.3,0.1-0.5,0.4-0.6c0.2-0.2,0.5-0.2,0.9-0.2c0.3,0,0.6,0.1,0.9,0.2c0.2,0.2,0.4,0.4,0.4,0.6V461.9z"/>
		<path class="st2" d="M56,461.9c0,0.2-0.1,0.4-0.4,0.6c-0.3,0.2-0.5,0.2-0.9,0.2c-0.4,0-0.8-0.1-1-0.4l-8.6-8.9l-2.8,2.5v5.9
			c0,0.2-0.1,0.5-0.4,0.6c-0.2,0.2-0.5,0.2-0.9,0.2c-0.3,0-0.6-0.1-0.9-0.2s-0.4-0.4-0.4-0.6v-16c0-0.3,0.1-0.5,0.4-0.6
			c0.2-0.2,0.5-0.2,0.9-0.2c0.3,0,0.6,0.1,0.9,0.2c0.2,0.2,0.4,0.4,0.4,0.6v7.4l9-7.9c0.3-0.2,0.6-0.3,1-0.3c0.3,0,0.6,0.1,0.9,0.3
			c0.3,0.2,0.4,0.4,0.4,0.6c0,0.2-0.1,0.4-0.3,0.5l-6.4,5.6l9,9.3C55.9,461.5,56,461.7,56,461.9z"/>
		<path class="st2" d="M77.3,461.9c0,0.2-0.1,0.4-0.4,0.6c-0.3,0.2-0.6,0.2-0.9,0.2c-0.5,0-0.9-0.2-1.1-0.5l-2.8-4.4H60.4l-2.6,4.4
			c-0.2,0.4-0.6,0.6-1.1,0.6c-0.3,0-0.6-0.1-0.9-0.2c-0.3-0.2-0.4-0.4-0.4-0.6c0-0.2,3.1-5.6,9.3-16.3c0.3-0.4,0.7-0.7,1.1-0.7
			c0.5,0,0.9,0.2,1.2,0.6L77.3,461.9z M70.9,456.1l-5-8l-4.5,8H70.9z"/>
	</g>
	
		<text transform="matrix(1.2042 0 0 1 79.511 462.6265)" class="st4" style="font-family:'Arcon-Rounded-Regular'; font-size:24.4391px; letter-spacing:-1.7;">PRO</text>
</g>
<g>
	<polygon class="st0" points="227.4,512.4 233.7,506.1 219,486.6 197.7,486.6 197.7,592.1 218.4,592.1 252.1,548.2 246.7,541.9 
		209.4,589.4 200.1,589.4 200.1,489.3 210,489.3 	"/>
	<polygon class="st0" points="229.2,552.7 230.7,550.9 216.9,534.1 247.6,495.9 282.7,495.9 256.3,529.3 262,536.8 302,486.9 
		252.1,486.9 214.2,533.8 	"/>
	<path class="st0" d="M241.2,529.9l6.3-7.2l53.2,68.8h-40l-19.5-24.4h2.7l17.7,21.9h23.7c0,0,3.9,0.6,0.6-2.7L241.2,529.9z"/>
</g>
<g>
	<path class="st1" d="M215.8,612.6c0,0.3-0.2,0.5-0.5,0.7c-0.8,0.4-1.8,0.8-3,1c-1.1,0.2-2.2,0.3-3.3,0.3c-3.2,0-6-0.9-8.3-2.6
		c-2.4-1.8-3.5-3.9-3.5-6.4c0-2.5,1.2-4.6,3.5-6.3c2.4-1.8,5.1-2.6,8.3-2.6c1.1,0,2.4,0.1,3.7,0.4c1.8,0.4,2.7,0.9,2.7,1.5
		c0,0.2-0.1,0.5-0.4,0.6c-0.3,0.2-0.5,0.3-0.9,0.3c-0.2,0-0.4,0-0.6-0.1c-1.7-0.6-3.3-0.9-4.6-0.9c-2.6,0-4.8,0.7-6.6,2.1
		c-1.8,1.4-2.8,3.1-2.8,5.1c0,2,0.9,3.7,2.8,5.1c1.8,1.4,4.1,2.1,6.6,2.1c1.4,0,3-0.4,4.9-1.1c0.2-0.1,0.4-0.1,0.7-0.1
		c0.3,0,0.6,0.1,0.8,0.3C215.7,612.1,215.8,612.3,215.8,612.6z"/>
	<path class="st1" d="M238,613.7c0,0.2-0.1,0.4-0.4,0.6c-0.3,0.2-0.6,0.2-0.9,0.2c-0.5,0-0.9-0.2-1.1-0.5l-2.8-4.4h-11.6l-2.6,4.4
		c-0.2,0.4-0.6,0.6-1.1,0.6c-0.3,0-0.6-0.1-0.9-0.2c-0.3-0.2-0.4-0.4-0.4-0.6c0-0.2,3.1-5.6,9.3-16.3c0.3-0.4,0.7-0.7,1.1-0.7
		c0.5,0,0.9,0.2,1.2,0.6L238,613.7z M231.7,607.8l-5-8l-4.5,8H231.7z"/>
	<path class="st1" d="M254.4,609.3c0,1.5-0.9,2.8-2.6,3.8c-1.6,1-3.4,1.5-5.4,1.5c-1.3,0-2.7-0.3-4.1-0.9c-1.4-0.6-2.4-1.4-3.1-2.2
		c-0.1-0.1-0.2-0.3-0.2-0.4c0-0.2,0.1-0.4,0.4-0.6c0.3-0.2,0.5-0.2,0.9-0.2c0.3,0,0.6,0.1,0.8,0.2c0,0,0.2,0.2,0.6,0.5
		c1.4,1.3,3,2,4.8,2c1.3,0,2.6-0.3,3.7-1c1.2-0.7,1.9-1.6,1.9-2.6c0-1.5-1.1-2.5-3.3-3.1c-2-0.4-4.1-0.8-6.1-1.2
		c-2.2-0.7-3.3-1.9-3.3-3.7c0-1.5,0.8-2.7,2.3-3.6c1.4-0.8,3.1-1.2,5.1-1.2c0.9,0,1.9,0.1,3,0.4c1.2,0.3,2,0.7,2.6,1.2
		c0.2,0.2,0.3,0.4,0.3,0.5c0,0.2-0.1,0.5-0.4,0.6c-0.3,0.2-0.6,0.3-0.9,0.3c-0.3,0-0.6-0.1-0.9-0.3c-1-0.6-2.2-1-3.6-1
		c-1.4,0-2.5,0.2-3.4,0.7c-1,0.5-1.6,1.3-1.6,2.3c0,1.2,1.1,2,3.3,2.4c2,0.4,4.1,0.9,6.1,1.3C253.3,605.9,254.4,607.3,254.4,609.3z"
		/>
	<path class="st1" d="M260.1,613.6c0,0.2-0.1,0.5-0.4,0.6s-0.5,0.2-0.9,0.2c-0.3,0-0.6-0.1-0.9-0.2s-0.4-0.4-0.4-0.6v-16
		c0-0.3,0.1-0.5,0.4-0.6c0.2-0.2,0.5-0.2,0.9-0.2c0.3,0,0.6,0.1,0.9,0.2c0.2,0.2,0.4,0.4,0.4,0.6V613.6z"/>
	<path class="st1" d="M280.2,613.6c0,0.2-0.1,0.4-0.4,0.6c-0.3,0.2-0.5,0.2-0.9,0.2c-0.4,0-0.8-0.1-1-0.4l-8.6-8.9l-2.8,2.5v5.9
		c0,0.2-0.1,0.5-0.4,0.6c-0.2,0.2-0.5,0.2-0.9,0.2c-0.3,0-0.6-0.1-0.9-0.2c-0.2-0.2-0.4-0.4-0.4-0.6v-16c0-0.3,0.1-0.5,0.4-0.6
		c0.2-0.2,0.5-0.2,0.9-0.2c0.3,0,0.6,0.1,0.9,0.2c0.2,0.2,0.4,0.4,0.4,0.6v7.4l9-7.9c0.3-0.2,0.6-0.3,1-0.3c0.3,0,0.6,0.1,0.9,0.3
		c0.3,0.2,0.4,0.4,0.4,0.6c0,0.2-0.1,0.4-0.3,0.5l-6.4,5.6l9,9.3C280.1,613.3,280.2,613.4,280.2,613.6z"/>
	<path class="st1" d="M301.5,613.7c0,0.2-0.1,0.4-0.4,0.6c-0.3,0.2-0.6,0.2-0.9,0.2c-0.5,0-0.9-0.2-1.1-0.5l-2.8-4.4h-11.6l-2.6,4.4
		c-0.2,0.4-0.6,0.6-1.1,0.6c-0.3,0-0.6-0.1-0.9-0.2c-0.3-0.2-0.4-0.4-0.4-0.6c0-0.2,3.1-5.6,9.3-16.3c0.3-0.4,0.7-0.7,1.1-0.7
		c0.5,0,0.9,0.2,1.2,0.6L301.5,613.7z M295.2,607.8l-5-8l-4.5,8H295.2z"/>
</g>
<text transform="matrix(1.2042 0 0 1 266.0483 628.7964)" class="st4" style="font-family:'Arcon-Rounded-Regular'; font-size:16.7446px; letter-spacing:-0.8;">PRO</text>
<g>
	<polygon class="st0" points="30.4,199.9 36.7,193.6 22,174.1 0.7,174.1 0.7,279.6 21.4,279.6 55.1,235.7 49.7,229.4 12.4,276.9 
		3.1,276.9 3.1,176.8 13,176.8 	"/>
	<polygon class="st0" points="32.2,240.2 33.7,238.4 19.9,221.6 50.6,183.4 85.7,183.4 59.3,216.8 65,224.3 105,174.4 55.1,174.4 
		17.2,221.3 	"/>
	<path class="st0" d="M44.2,217.4l6.3-7.2l53.2,68.8h-40l-19.5-24.4H47l17.7,21.9h23.7c0,0,3.9,0.6,0.6-2.7L44.2,217.4z"/>
</g>
<g>
	<g>
		<path class="st2" d="M18.8,300.1c0,0.3-0.2,0.5-0.5,0.7c-0.8,0.4-1.8,0.8-3,1c-1.1,0.2-2.2,0.3-3.3,0.3c-3.2,0-6-0.9-8.3-2.6
			c-2.4-1.8-3.5-3.9-3.5-6.4c0-2.5,1.2-4.6,3.5-6.3c2.4-1.8,5.1-2.6,8.3-2.6c1.1,0,2.4,0.1,3.7,0.4c1.8,0.4,2.7,0.9,2.7,1.5
			c0,0.2-0.1,0.5-0.4,0.6c-0.3,0.2-0.5,0.3-0.9,0.3c-0.2,0-0.4,0-0.6-0.1c-1.7-0.6-3.3-0.9-4.6-0.9c-2.6,0-4.8,0.7-6.6,2.1
			c-1.8,1.4-2.8,3.1-2.8,5.1c0,2,0.9,3.7,2.8,5.1c1.8,1.4,4.1,2.1,6.6,2.1c1.4,0,3-0.4,4.9-1.1c0.2-0.1,0.4-0.1,0.7-0.1
			c0.3,0,0.6,0.1,0.8,0.3C18.7,299.6,18.8,299.8,18.8,300.1z"/>
		<path class="st2" d="M41,301.2c0,0.2-0.1,0.4-0.4,0.6c-0.3,0.2-0.6,0.2-0.9,0.2c-0.5,0-0.9-0.2-1.1-0.5l-2.8-4.4H24.2l-2.6,4.4
			c-0.2,0.4-0.6,0.6-1.1,0.6c-0.3,0-0.6-0.1-0.9-0.2c-0.3-0.2-0.4-0.4-0.4-0.6c0-0.2,3.1-5.6,9.3-16.3c0.3-0.4,0.7-0.7,1.1-0.7
			c0.5,0,0.9,0.2,1.2,0.6L41,301.2z M34.7,295.3l-5-8l-4.5,8H34.7z"/>
		<path class="st2" d="M57.4,296.8c0,1.5-0.9,2.8-2.6,3.8c-1.6,1-3.4,1.5-5.4,1.5c-1.3,0-2.7-0.3-4.1-0.9c-1.4-0.6-2.4-1.4-3.1-2.2
			c-0.1-0.1-0.2-0.3-0.2-0.4c0-0.2,0.1-0.4,0.4-0.6c0.3-0.2,0.5-0.2,0.9-0.2c0.3,0,0.6,0.1,0.8,0.2c0,0,0.2,0.2,0.6,0.5
			c1.4,1.3,3,2,4.8,2c1.3,0,2.6-0.3,3.7-1c1.2-0.7,1.9-1.6,1.9-2.6c0-1.5-1.1-2.5-3.3-3.1c-2-0.4-4.1-0.8-6.1-1.2
			c-2.2-0.7-3.3-1.9-3.3-3.7c0-1.5,0.8-2.7,2.3-3.6c1.4-0.8,3.1-1.2,5.1-1.2c0.9,0,1.9,0.1,3,0.4c1.2,0.3,2,0.7,2.6,1.2
			c0.2,0.2,0.3,0.4,0.3,0.5c0,0.2-0.1,0.5-0.4,0.6c-0.3,0.2-0.6,0.3-0.9,0.3c-0.3,0-0.6-0.1-0.9-0.3c-1-0.6-2.2-1-3.6-1
			c-1.4,0-2.5,0.2-3.4,0.7c-1,0.5-1.6,1.3-1.6,2.3c0,1.2,1.1,2,3.3,2.4c2,0.4,4.1,0.9,6.1,1.3C56.3,293.4,57.4,294.8,57.4,296.8z"/>
		<path class="st2" d="M63.1,301.1c0,0.2-0.1,0.5-0.4,0.6c-0.2,0.2-0.5,0.2-0.9,0.2c-0.3,0-0.6-0.1-0.9-0.2
			c-0.2-0.2-0.4-0.4-0.4-0.6v-16c0-0.3,0.1-0.5,0.4-0.6c0.2-0.2,0.5-0.2,0.9-0.2c0.3,0,0.6,0.1,0.9,0.2c0.2,0.2,0.4,0.4,0.4,0.6
			V301.1z"/>
		<path class="st2" d="M83.2,301.1c0,0.2-0.1,0.4-0.4,0.6c-0.3,0.2-0.5,0.2-0.9,0.2c-0.4,0-0.8-0.1-1-0.4l-8.6-8.9l-2.8,2.5v5.9
			c0,0.2-0.1,0.5-0.4,0.6c-0.2,0.2-0.5,0.2-0.9,0.2c-0.3,0-0.6-0.1-0.9-0.2c-0.2-0.2-0.4-0.4-0.4-0.6v-16c0-0.3,0.1-0.5,0.4-0.6
			c0.2-0.2,0.5-0.2,0.9-0.2c0.3,0,0.6,0.1,0.9,0.2c0.2,0.2,0.4,0.4,0.4,0.6v7.4l9-7.9c0.3-0.2,0.6-0.3,1-0.3c0.3,0,0.6,0.1,0.9,0.3
			c0.3,0.2,0.4,0.4,0.4,0.6c0,0.2-0.1,0.4-0.3,0.5l-6.4,5.6l9,9.3C83.1,300.8,83.2,300.9,83.2,301.1z"/>
		<path class="st2" d="M104.5,301.2c0,0.2-0.1,0.4-0.4,0.6c-0.3,0.2-0.6,0.2-0.9,0.2c-0.5,0-0.9-0.2-1.1-0.5l-2.8-4.4H87.7l-2.6,4.4
			c-0.2,0.4-0.6,0.6-1.1,0.6c-0.3,0-0.6-0.1-0.9-0.2c-0.3-0.2-0.4-0.4-0.4-0.6c0-0.2,3.1-5.6,9.3-16.3c0.3-0.4,0.7-0.7,1.1-0.7
			c0.5,0,0.9,0.2,1.2,0.6L104.5,301.2z M98.2,295.3l-5-8l-4.5,8H98.2z"/>
	</g>
	
		<text transform="matrix(1.2042 0 0 1 69.0483 316.2964)" class="st4" style="font-family:'Arcon-Rounded-Regular'; font-size:16.7446px; letter-spacing:-0.8;">PRO</text>
</g>
<text transform="matrix(1.2042 0 0 1 426.6383 247.0927)" style="font-family:'Arcon-Rounded-Regular'; font-size:9.9648px;">CASIKA</text>
</svg>
