<?xml version="1.0" encoding="utf-8"?>
<!-- Generator: Adobe Illustrator 16.0.0, SVG Export Plug-In . SVG Version: 6.00 Build 0)  -->
<!DOCTYPE svg PUBLIC "-//W3C//DTD SVG 1.1//EN" "http://www.w3.org/Graphics/SVG/1.1/DTD/svg11.dtd">
<svg version="1.1" id="Capa_1" xmlns="http://www.w3.org/2000/svg" xmlns:xlink="http://www.w3.org/1999/xlink" x="0px" y="0px"
	 width="226.77px" height="226.77px" viewBox="0 0 226.77 226.77" enable-background="new 0 0 226.77 226.77" xml:space="preserve">
<g>
	<g>
		
			<linearGradient id="SVGID_1_" gradientUnits="userSpaceOnUse" x1="-2737.2261" y1="1644.6592" x2="-2723.9397" y2="1577.3013" gradientTransform="matrix(0.2212 0.1607 -0.1972 0.2716 1120.0106 128.1008)">
			<stop  offset="0.0057" style="stop-color:#A5ADB3"/>
			<stop  offset="1" style="stop-color:#E1E1E1"/>
		</linearGradient>
		<path fill="url(#SVGID_1_)" d="M201.92,128.648c3.318-4.566,4.498-9.365,2.643-10.723c-0.807-0.582-2.039-0.428-3.455,0.303
			c0.367,3.418-0.65,8.617-5.572,16.172C197.496,133.541,199.873,131.467,201.92,128.648z"/>
		
			<radialGradient id="SVGID_2_" cx="221.4609" cy="360.874" r="7.9807" fx="227.0589" fy="357.2003" gradientTransform="matrix(1.1906 0 0 1.1906 -56.1797 -310)" gradientUnits="userSpaceOnUse">
			<stop  offset="0.0057" style="stop-color:#B4CEDE"/>
			<stop  offset="1" style="stop-color:#101314"/>
		</radialGradient>
		<path fill="url(#SVGID_2_)" d="M216.455,118.611c0-1.836-1.963-3.334-4.398-3.334l-7.336,0.561c-2.426,0-4.396,1.49-4.396,3.328
			v1.947c0,1.838,1.24,3.328,3.668,3.328h8.064c2.436,0,4.398-1.49,4.398-3.328V118.611z"/>
		
			<linearGradient id="SVGID_3_" gradientUnits="userSpaceOnUse" x1="347.3105" y1="-179.3345" x2="360.5965" y2="-246.6902" gradientTransform="matrix(-0.2212 0.1607 0.1972 0.2716 205.2286 128.8181)">
			<stop  offset="0.0057" style="stop-color:#A5ADB3"/>
			<stop  offset="1" style="stop-color:#E1E1E1"/>
		</linearGradient>
		<path fill="url(#SVGID_3_)" d="M81.327,129.66c-3.323-4.576-4.502-9.375-2.637-10.73c0.797-0.584,2.039-0.428,3.449,0.303
			c-0.364,3.416,0.649,8.619,5.58,16.168C85.753,134.545,83.377,132.473,81.327,129.66z"/>
		
			<radialGradient id="SVGID_4_" cx="110.9341" cy="361.2891" r="7.6763" fx="103.9339" fy="358.139" gradientTransform="matrix(1.1906 0 0 1.1906 -57.0566 -308.7725)" gradientUnits="userSpaceOnUse">
			<stop  offset="0.0057" style="stop-color:#B4CEDE"/>
			<stop  offset="1" style="stop-color:#101314"/>
		</radialGradient>
		<path fill="url(#SVGID_4_)" d="M66.787,120.332c0-1.846,1.973-3.334,4.406-3.334l7.328,0.551c2.428,0,4.406,1.5,4.406,3.338
			l-0.029,1.945c0,1.84-1.21,3.33-3.647,3.33h-8.058c-2.433,0-4.406-1.49-4.406-3.33V120.332z"/>
		<path fill="#101314" d="M66.989,120.533c0-1.85,1.969-3.338,4.397-3.338l7.336,0.555c1.424,0,2.678,0.523,3.481,1.32
			c-0.787-0.916-2.138-1.521-3.682-1.521l-7.328-0.551c-2.433,0-4.406,1.488-4.406,3.334v2.5c0,0.762,0.347,1.457,0.916,2.016
			c-0.452-0.525-0.714-1.152-0.714-1.822V120.533z"/>
		<path fill="#101314" d="M216.264,118.805c0-1.838-1.971-3.328-4.404-3.328l-7.33,0.553c-1.424,0-2.678,0.523-3.48,1.32
			c0.781-0.912,2.141-1.512,3.672-1.512l7.336-0.561c2.436,0,4.398,1.498,4.398,3.334v2.502c0,0.762-0.346,1.455-0.914,2.016
			c0.457-0.523,0.723-1.145,0.723-1.822V118.805z"/>
		<path fill="#D41317" d="M199.217,124.332c-14.273-31.018-20.234-27.785-57.281-27.785c-37.053,0-43.008-3.233-57.288,27.785
			c-8.089,17.584,25.651,34.189,57.288,34.189S207.305,141.916,199.217,124.332z"/>
		
			<linearGradient id="SVGID_5_" gradientUnits="userSpaceOnUse" x1="-4051.9692" y1="1273.8887" x2="-4046.3696" y2="1188.4956" gradientTransform="matrix(0.3356 0 0 0.3356 1502.3308 -304.3577)">
			<stop  offset="0" style="stop-color:#FFFFFF"/>
			<stop  offset="0.1407" style="stop-color:#F7FCFE"/>
			<stop  offset="0.3641" style="stop-color:#E0F2FB"/>
			<stop  offset="0.642" style="stop-color:#BAE3F6"/>
			<stop  offset="0.9612" style="stop-color:#87CFF0"/>
			<stop  offset="1" style="stop-color:#80CCEF"/>
		</linearGradient>
		<path fill="url(#SVGID_5_)" d="M151.486,98.511l-9.551,0.051l-9.563-0.051c-13.943-0.125-22.37-0.198-28.523,2.974
			c-5.942,3.069-8.716,9.239-15.314,23.578c-1.954,4.25-2.87,8.582,0.591,12.895c8.486,10.572,31.194,18.543,52.81,18.543
			c21.609,0,44.314-7.971,52.803-18.543c3.461-4.313,2.545-8.645,0.592-12.895c-6.6-14.339-9.367-20.509-15.316-23.578
			C173.859,98.313,165.432,98.385,151.486,98.511z"/>
		<path fill="#FFFFFF" d="M118.711,98.583l-22.227,45.571c2.318,1.563,4.938,3.027,7.806,4.354l24.405-50.027
			C124.955,98.458,121.648,98.466,118.711,98.583z"/>
		<path fill="#FFFFFF" d="M132.74,98.511c-0.486-0.008-0.967-0.008-1.447-0.017l-24.847,50.957c1.144,0.482,2.311,0.939,3.513,1.375
			l25.506-52.301L132.74,98.511z"/>
		
			<linearGradient id="SVGID_6_" gradientUnits="userSpaceOnUse" x1="-4026.4333" y1="1251.9111" x2="-3945.9744" y2="1251.9111" gradientTransform="matrix(0.3356 0 0 0.3356 1503.3308 -300.7463)">
			<stop  offset="0" style="stop-color:#A7C1D1"/>
			<stop  offset="0.5334" style="stop-color:#A2BBC9"/>
			<stop  offset="1" style="stop-color:#9CB2BD"/>
		</linearGradient>
		<path fill="url(#SVGID_6_)" d="M165.676,113.174c-6.783,0-12.406,4.958-13.445,11.453c0.744,0.008,1.477,0.016,2.205,0.021
			c1.008-5.299,5.654-9.297,11.24-9.297c5.861,0,10.695,4.414,11.357,10.094c0.738,0.053,1.475,0.109,2.199,0.17
			C178.635,118.648,172.797,113.174,165.676,113.174z"/>
		<g>
			<path fill="#1D1D1B" d="M105.487,168.102c0-3.66-2.967-6.629-6.619-6.629h-6.185c-3.66,0-6.627,2.969-6.627,6.629v16.93
				c0,3.66,2.967,6.627,6.627,6.627h6.185c3.652,0,6.619-2.967,6.619-6.627V168.102z"/>
			
				<linearGradient id="SVGID_7_" gradientUnits="userSpaceOnUse" x1="-4210.2549" y1="624.9102" x2="-4193.3652" y2="539.2852" gradientTransform="matrix(0.3885 -0.0685 0.0685 0.3885 1686.9771 -336.2104)">
				<stop  offset="0.0057" style="stop-color:#696D76"/>
				<stop  offset="0.0615" style="stop-color:#676A72"/>
				<stop  offset="0.1155" style="stop-color:#5F6267"/>
				<stop  offset="0.1687" style="stop-color:#525553"/>
				<stop  offset="0.2214" style="stop-color:#414238"/>
				<stop  offset="0.2733" style="stop-color:#2A2A15"/>
				<stop  offset="0.2825" style="stop-color:#26250E"/>
				<stop  offset="0.3612" style="stop-color:#373623"/>
				<stop  offset="0.5718" style="stop-color:#606055"/>
				<stop  offset="0.7561" style="stop-color:#7E7F79"/>
				<stop  offset="0.905" style="stop-color:#909190"/>
				<stop  offset="1" style="stop-color:#979898"/>
			</linearGradient>
			<path fill="url(#SVGID_7_)" d="M102.55,167.541c-0.635-3.609-4.073-6.016-7.674-5.373l-6.088,1.068
				c-3.603,0.637-6.008,4.074-5.374,7.676l2.938,16.678c0.634,3.602,4.073,6.01,7.675,5.373l6.089-1.068
				c3.606-0.645,6.013-4.074,5.372-7.676L102.55,167.541z"/>
		</g>
		<g>
			<path fill="#1D1D1B" d="M182.066,168.102c0-3.66,2.969-6.629,6.627-6.629h6.186c3.658,0,6.623,2.969,6.623,6.629v16.93
				c0,3.66-2.965,6.627-6.623,6.627h-6.186c-3.658,0-6.627-2.967-6.627-6.627V168.102z"/>
			
				<linearGradient id="SVGID_8_" gradientUnits="userSpaceOnUse" x1="-1612.0986" y1="1083.0215" x2="-1595.2087" y2="997.3952" gradientTransform="matrix(-0.3885 -0.0685 -0.0685 0.3885 -358.6548 -336.2104)">
				<stop  offset="0.0057" style="stop-color:#696D76"/>
				<stop  offset="0.0615" style="stop-color:#676A72"/>
				<stop  offset="0.1155" style="stop-color:#5F6267"/>
				<stop  offset="0.1687" style="stop-color:#525553"/>
				<stop  offset="0.2214" style="stop-color:#414238"/>
				<stop  offset="0.2733" style="stop-color:#2A2A15"/>
				<stop  offset="0.2825" style="stop-color:#26250E"/>
				<stop  offset="0.3612" style="stop-color:#373623"/>
				<stop  offset="0.5718" style="stop-color:#606055"/>
				<stop  offset="0.7561" style="stop-color:#7E7F79"/>
				<stop  offset="0.905" style="stop-color:#909190"/>
				<stop  offset="1" style="stop-color:#979898"/>
			</linearGradient>
			<path fill="url(#SVGID_8_)" d="M185.01,167.541c0.637-3.609,4.074-6.016,7.678-5.373l6.088,1.068
				c3.6,0.637,6.006,4.074,5.371,7.676l-2.938,16.678c-0.635,3.602-4.072,6.01-7.674,5.373l-6.088-1.068
				c-3.609-0.645-6.018-4.074-5.381-7.676L185.01,167.541z"/>
		</g>
		<g>
			<path fill="#1D1D1B" d="M120.092,167.348c0-2.266-1.837-4.104-4.102-4.104h-3.824c-2.266,0-4.097,1.838-4.097,4.104v10.48
				c0,2.258,1.831,4.092,4.097,4.092h3.824c2.265,0,4.102-1.834,4.102-4.092V167.348z"/>
			
				<linearGradient id="SVGID_9_" gradientUnits="userSpaceOnUse" x1="-5185.8701" y1="1470.5693" x2="-5168.9819" y2="1384.9519" gradientTransform="matrix(0.2404 -0.0424 0.0424 0.2404 1297.3708 -389.2803)">
				<stop  offset="0.0057" style="stop-color:#696D76"/>
				<stop  offset="0.0615" style="stop-color:#676A72"/>
				<stop  offset="0.1155" style="stop-color:#5F6267"/>
				<stop  offset="0.1687" style="stop-color:#525553"/>
				<stop  offset="0.2214" style="stop-color:#414238"/>
				<stop  offset="0.2733" style="stop-color:#2A2A15"/>
				<stop  offset="0.2825" style="stop-color:#26250E"/>
				<stop  offset="0.3612" style="stop-color:#373623"/>
				<stop  offset="0.5718" style="stop-color:#606055"/>
				<stop  offset="0.7561" style="stop-color:#7E7F79"/>
				<stop  offset="0.905" style="stop-color:#909190"/>
				<stop  offset="1" style="stop-color:#979898"/>
			</linearGradient>
			<path fill="url(#SVGID_9_)" d="M118.268,167c-0.389-2.229-2.516-3.717-4.745-3.32l-3.762,0.666
				c-2.238,0.393-3.728,2.518-3.329,4.744l1.816,10.316c0.397,2.229,2.523,3.721,4.752,3.322l3.766-0.666
				c2.227-0.391,3.717-2.514,3.326-4.746L118.268,167z"/>
		</g>
		<g>
			<path fill="#1D1D1B" d="M167.469,167.348c0-2.266,1.838-4.104,4.104-4.104h3.824c2.266,0,4.102,1.838,4.102,4.104v10.48
				c0,2.258-1.836,4.092-4.102,4.092h-3.824c-2.266,0-4.104-1.834-4.104-4.092V167.348z"/>
			
				<linearGradient id="SVGID_10_" gradientUnits="userSpaceOnUse" x1="-987.1899" y1="2211.0986" x2="-970.3018" y2="2125.4812" gradientTransform="matrix(-0.2404 -0.0424 -0.0424 0.2404 30.9509 -389.2803)">
				<stop  offset="0.0057" style="stop-color:#696D76"/>
				<stop  offset="0.0615" style="stop-color:#676A72"/>
				<stop  offset="0.1155" style="stop-color:#5F6267"/>
				<stop  offset="0.1687" style="stop-color:#525553"/>
				<stop  offset="0.2214" style="stop-color:#414238"/>
				<stop  offset="0.2733" style="stop-color:#2A2A15"/>
				<stop  offset="0.2825" style="stop-color:#26250E"/>
				<stop  offset="0.3612" style="stop-color:#373623"/>
				<stop  offset="0.5718" style="stop-color:#606055"/>
				<stop  offset="0.7561" style="stop-color:#7E7F79"/>
				<stop  offset="0.905" style="stop-color:#909190"/>
				<stop  offset="1" style="stop-color:#979898"/>
			</linearGradient>
			<path fill="url(#SVGID_10_)" d="M169.285,167c0.4-2.229,2.525-3.717,4.754-3.32l3.762,0.666c2.238,0.393,3.727,2.518,3.328,4.744
				l-1.813,10.316c-0.4,2.229-2.52,3.721-4.758,3.322l-3.76-0.666c-2.229-0.391-3.721-2.514-3.33-4.746L169.285,167z"/>
		</g>
		
			<linearGradient id="SVGID_11_" gradientUnits="userSpaceOnUse" x1="-3016.979" y1="2135.3662" x2="-3012.7888" y2="1951.0076" gradientTransform="matrix(0.3356 0 0 0.2861 1155.1892 -435.1782)">
			<stop  offset="0.0057" style="stop-color:#C41A1B"/>
			<stop  offset="0.0634" style="stop-color:#C61E1D"/>
			<stop  offset="0.1192" style="stop-color:#CB2921"/>
			<stop  offset="0.1743" style="stop-color:#D33D29"/>
			<stop  offset="0.2285" style="stop-color:#DF5835"/>
			<stop  offset="0.2822" style="stop-color:#EE7B43"/>
			<stop  offset="0.2825" style="stop-color:#EE7B43"/>
			<stop  offset="0.4507" style="stop-color:#E15D37"/>
			<stop  offset="0.6863" style="stop-color:#D13928"/>
			<stop  offset="0.8778" style="stop-color:#C8221E"/>
			<stop  offset="1" style="stop-color:#C41A1B"/>
		</linearGradient>
		<path fill="url(#SVGID_11_)" d="M211.482,133.949c-4.871-12.674-30.535-14.406-68.221-14.406c-37.68,0-63.345,1.732-68.216,14.406
			c-18.892,49.113,24.095,44.275,68.216,44.275C187.385,178.225,230.377,183.063,211.482,133.949z"/>
		
			<linearGradient id="SVGID_12_" gradientUnits="userSpaceOnUse" x1="-6067.895" y1="3624.9814" x2="-6074.8535" y2="3529.468" gradientTransform="matrix(0.1239 0 0 0.1806 840.0102 -499.8436)">
			<stop  offset="0.0057" style="stop-color:#A5ADB3"/>
			<stop  offset="1" style="stop-color:#E1E1E1"/>
		</linearGradient>
		<path fill="url(#SVGID_12_)" d="M89.075,137.418H88.55c-6.19,0-11.217,3.996-11.217,8.912c0,4.924,5.027,8.922,11.217,8.922
			c6.186,0,9.483-7.23,9.483-12.457c0-1.727-0.421-2.988-1.292-3.854C95.207,137.418,92.772,137.418,89.075,137.418z"/>
		
			<linearGradient id="SVGID_13_" gradientUnits="userSpaceOnUse" x1="-6067.8862" y1="3624.915" x2="-6074.8413" y2="3529.4434" gradientTransform="matrix(0.1239 0 0 0.1806 840.0048 -499.8495)">
			<stop  offset="0" style="stop-color:#FFFFFF"/>
			<stop  offset="1" style="stop-color:#FFEC00"/>
		</linearGradient>
		<path fill="url(#SVGID_13_)" d="M96.697,142.795c0,4.193-2.692,11.119-8.147,11.119c-5.468,0-9.889-3.391-9.889-7.584
			c0-4.184,4.421-7.578,9.889-7.578C94.005,138.752,96.697,138.604,96.697,142.795z"/>
		
			<linearGradient id="SVGID_14_" gradientUnits="userSpaceOnUse" x1="2338.4307" y1="3624.2324" x2="2331.4736" y2="3528.7371" gradientTransform="matrix(-0.1239 0 0 0.1806 486.3575 -500.1801)">
			<stop  offset="0.0057" style="stop-color:#A5ADB3"/>
			<stop  offset="1" style="stop-color:#E1E1E1"/>
		</linearGradient>
		<path fill="url(#SVGID_14_)" d="M188.08,138.473c-0.871,0.871-1.291,2.133-1.291,3.852c0,5.225,3.299,12.455,9.484,12.455
			c6.191,0,11.219-3.998,11.219-8.914c0-4.914-5.027-8.916-11.219-8.916h-0.525C192.051,136.945,189.617,136.945,188.08,138.473z"/>
		
			<linearGradient id="SVGID_15_" gradientUnits="userSpaceOnUse" x1="2338.4541" y1="3624.917" x2="2331.4988" y2="3529.4436" gradientTransform="matrix(-0.1239 0 0 0.1806 486.3624 -499.8495)">
			<stop  offset="0" style="stop-color:#FFFFFF"/>
			<stop  offset="1" style="stop-color:#FFEC00"/>
		</linearGradient>
		<path fill="url(#SVGID_15_)" d="M188.125,142.795c0,4.193,2.686,11.119,8.148,11.119c5.459,0,9.887-3.391,9.887-7.584
			c0-4.184-4.428-7.578-9.887-7.578C190.811,138.752,188.125,138.604,188.125,142.795z"/>
		<g>
			
				<linearGradient id="SVGID_16_" gradientUnits="userSpaceOnUse" x1="-4309.4375" y1="1333.2852" x2="-4282.502" y2="1333.2852" gradientTransform="matrix(0.3356 0 0 0.3356 1543.4832 -292.8323)">
				<stop  offset="0.0057" style="stop-color:#A5ADB3"/>
				<stop  offset="1" style="stop-color:#E1E1E1"/>
			</linearGradient>
			<path fill="url(#SVGID_16_)" d="M102.41,150.604h-0.185c-2.664,0-4.825,1.801-4.825,4.014c0,2.217,2.161,4.016,4.825,4.016
				c2.755,0,4.214-3.055,4.214-5.264c0-0.855-0.228-1.494-0.708-1.975C104.935,150.604,103.818,150.604,102.41,150.604z"/>
			
				<radialGradient id="SVGID_17_" cx="-4295.9756" cy="1332.6162" r="8.7844" fx="-4298.3857" fy="1329.3608" gradientTransform="matrix(0.3356 0 0 0.3356 1543.4832 -292.8323)" gradientUnits="userSpaceOnUse">
				<stop  offset="0.0057" style="stop-color:#FBE47B"/>
				<stop  offset="1" style="stop-color:#EB7C23"/>
			</radialGradient>
			<path fill="url(#SVGID_17_)" d="M105.109,153.369c0,1.479-0.957,3.936-2.884,3.936c-1.933,0-3.497-1.201-3.497-2.688
				c0-1.48,1.564-2.678,3.497-2.678C104.152,151.939,105.109,151.891,105.109,153.369z"/>
		</g>
		<g>
			
				<linearGradient id="SVGID_18_" gradientUnits="userSpaceOnUse" x1="-1206.1563" y1="1333.2852" x2="-1179.2168" y2="1333.2852" gradientTransform="matrix(-0.3356 0 0 0.3356 -216.9114 -292.8323)">
				<stop  offset="0.0057" style="stop-color:#A5ADB3"/>
				<stop  offset="1" style="stop-color:#E1E1E1"/>
			</linearGradient>
			<path fill="url(#SVGID_18_)" d="M182.701,150.604h0.186c2.664,0,4.824,1.801,4.824,4.014c0,2.217-2.16,4.016-4.824,4.016
				c-2.754,0-4.217-3.055-4.217-5.264c0-0.855,0.23-1.494,0.711-1.975C180.172,150.604,181.285,150.604,182.701,150.604z"/>
			
				<radialGradient id="SVGID_19_" cx="-1192.6929" cy="1332.6162" r="8.7876" fx="-1195.104" fy="1329.3596" gradientTransform="matrix(-0.3356 0 0 0.3356 -216.9114 -292.8323)" gradientUnits="userSpaceOnUse">
				<stop  offset="0.0057" style="stop-color:#FBE47B"/>
				<stop  offset="1" style="stop-color:#EB7C23"/>
			</radialGradient>
			<path fill="url(#SVGID_19_)" d="M180,153.369c0,1.479,0.951,3.936,2.887,3.936c1.934,0,3.498-1.201,3.498-2.688
				c0-1.48-1.564-2.678-3.498-2.678C180.951,151.939,180,151.891,180,153.369z"/>
		</g>
		<path fill="#B12220" d="M192.93,172.145c0,0-15.291-5.912-15.291-20.006c0-14.096,10.938-16.928,17.615-28.182
			C195.254,123.957,153.248,156.914,192.93,172.145z"/>
		<path fill="#B12220" d="M92.706,172.145c0,0,15.291-5.912,15.291-20.006c0-14.096-10.93-16.928-17.616-28.182
			C90.38,123.957,132.387,156.914,92.706,172.145z"/>
		<g>
			
				<linearGradient id="SVGID_20_" gradientUnits="userSpaceOnUse" x1="770.5986" y1="-4122.1865" x2="762.1583" y2="-3991.3682" gradientTransform="matrix(-0.187 0 0 -0.187 286.3895 -602.9093)">
				<stop  offset="0" style="stop-color:#D7D6D5"/>
				<stop  offset="1" style="stop-color:#AAA8AD"/>
			</linearGradient>
			<path fill="url(#SVGID_20_)" d="M114.543,151.607c0-5.934,12.891-7.07,28.795-7.07c15.91,0,28.803,1.137,28.803,7.07
				c0,5.928-12.893,14.396-28.803,14.396C127.434,166.004,114.543,157.535,114.543,151.607z"/>
			
				<linearGradient id="SVGID_21_" gradientUnits="userSpaceOnUse" x1="1129.4102" y1="-3336.2271" x2="1122.2999" y2="-3433.8259" gradientTransform="matrix(-0.187 0 0 -0.187 354.1864 -477.1281)">
				<stop  offset="0" style="stop-color:#D7D6D5"/>
				<stop  offset="1" style="stop-color:#AAA8AD"/>
			</linearGradient>
			<path fill="url(#SVGID_21_)" d="M170.361,151.607c0-2.178-3.807-3.381-7.002-4.014c-4.428-0.871-10.781-1.277-20.021-1.277
				c-9.232,0-15.594,0.406-20.014,1.277c-3.197,0.633-7.004,1.836-7.004,4.014c0,4.316,11.408,12.617,27.018,12.617
				C158.953,164.225,170.361,155.924,170.361,151.607z"/>
			<path fill="#1D1D1B" d="M162.348,158.883c4.996-2.715,7.27-5.674,7.27-7.275c0-1.27-2.393-2.494-6.398-3.285
				c-4.375-0.863-10.701-1.26-19.881-1.26c-9.182,0-15.496,0.396-19.873,1.26c-4.008,0.791-6.4,2.016-6.4,3.285
				c0,1.602,2.275,4.561,7.27,7.275c3.152,1.721,9.822,4.598,19.004,4.598C152.525,163.48,159.197,160.604,162.348,158.883z"/>
			<g>
				
					<linearGradient id="SVGID_22_" gradientUnits="userSpaceOnUse" x1="926.2939" y1="-3421.749" x2="912.7676" y2="-3607.4202" gradientTransform="matrix(-0.187 0 0 -0.187 339.6962 -505.462)">
					<stop  offset="0" style="stop-color:#D7D6D5"/>
					<stop  offset="1" style="stop-color:#AAA8AD"/>
				</linearGradient>
				<path fill="url(#SVGID_22_)" d="M168.473,154.1v-3.99c-0.355-0.229-0.791-0.457-1.305-0.664v6.068
					C167.691,155.025,168.127,154.551,168.473,154.1z"/>
				
					<linearGradient id="SVGID_23_" gradientUnits="userSpaceOnUse" x1="930.8682" y1="-3421.7954" x2="917.3437" y2="-3607.4412" gradientTransform="matrix(-0.187 0 0 -0.187 337.6376 -505.462)">
					<stop  offset="0" style="stop-color:#D7D6D5"/>
					<stop  offset="1" style="stop-color:#AAA8AD"/>
				</linearGradient>
				<path fill="url(#SVGID_23_)" d="M165.596,156.826V148.9c-0.408-0.119-0.842-0.238-1.307-0.34v9.172
					C164.754,157.428,165.199,157.127,165.596,156.826z"/>
				
					<linearGradient id="SVGID_24_" gradientUnits="userSpaceOnUse" x1="935.4785" y1="-3421.7461" x2="921.9461" y2="-3607.5002" gradientTransform="matrix(-0.187 0 0 -0.187 335.5809 -505.462)">
					<stop  offset="0" style="stop-color:#D7D6D5"/>
					<stop  offset="1" style="stop-color:#AAA8AD"/>
				</linearGradient>
				<path fill="url(#SVGID_24_)" d="M162.348,158.883c0.125-0.064,0.252-0.131,0.369-0.207v-10.449
					c-0.42-0.072-0.857-0.146-1.314-0.213v11.365C161.75,159.209,162.059,159.037,162.348,158.883z"/>
				
					<linearGradient id="SVGID_25_" gradientUnits="userSpaceOnUse" x1="940.0215" y1="-3421.7759" x2="926.4936" y2="-3607.4685" gradientTransform="matrix(-0.187 0 0 -0.187 333.5223 -505.462)">
					<stop  offset="0" style="stop-color:#D7D6D5"/>
					<stop  offset="1" style="stop-color:#AAA8AD"/>
				</linearGradient>
				<path fill="url(#SVGID_25_)" d="M159.84,160.117v-12.318c-0.43-0.057-0.865-0.104-1.316-0.146v13.004
					C158.99,160.477,159.426,160.293,159.84,160.117z"/>
				
					<linearGradient id="SVGID_26_" gradientUnits="userSpaceOnUse" x1="944.5693" y1="-3421.7832" x2="931.0394" y2="-3607.5032" gradientTransform="matrix(-0.187 0 0 -0.187 331.4657 -505.462)">
					<stop  offset="0" style="stop-color:#D7D6D5"/>
					<stop  offset="1" style="stop-color:#AAA8AD"/>
				</linearGradient>
				<path fill="url(#SVGID_26_)" d="M156.955,161.236v-13.73c-0.422-0.039-0.859-0.07-1.309-0.098v14.258
					C156.096,161.525,156.533,161.385,156.955,161.236z"/>
				
					<linearGradient id="SVGID_27_" gradientUnits="userSpaceOnUse" x1="949.0762" y1="-3421.8042" x2="935.5488" y2="-3607.4897" gradientTransform="matrix(-0.187 0 0 -0.187 329.4091 -505.462)">
					<stop  offset="0" style="stop-color:#D7D6D5"/>
					<stop  offset="1" style="stop-color:#AAA8AD"/>
				</linearGradient>
				<path fill="url(#SVGID_27_)" d="M154.076,162.117v-14.805c-0.428-0.021-0.865-0.043-1.309-0.066v15.186
					C153.211,162.33,153.654,162.219,154.076,162.117z"/>
				
					<linearGradient id="SVGID_28_" gradientUnits="userSpaceOnUse" x1="953.5322" y1="-3421.79" x2="940.0036" y2="-3607.4924" gradientTransform="matrix(-0.187 0 0 -0.187 327.3505 -505.462)">
					<stop  offset="0" style="stop-color:#D7D6D5"/>
					<stop  offset="1" style="stop-color:#AAA8AD"/>
				</linearGradient>
				<path fill="url(#SVGID_28_)" d="M151.199,162.758v-15.576c-0.43-0.016-0.865-0.031-1.309-0.041v15.838
					C150.334,162.912,150.77,162.838,151.199,162.758z"/>
				
					<linearGradient id="SVGID_29_" gradientUnits="userSpaceOnUse" x1="958.0117" y1="-3421.8096" x2="944.4833" y2="-3607.509" gradientTransform="matrix(-0.187 0 0 -0.187 325.2909 -505.462)">
					<stop  offset="0" style="stop-color:#D7D6D5"/>
					<stop  offset="1" style="stop-color:#AAA8AD"/>
				</linearGradient>
				<path fill="url(#SVGID_29_)" d="M148.313,163.193v-16.086c-0.428-0.01-0.863-0.018-1.309-0.021v16.242
					C147.449,163.289,147.885,163.244,148.313,163.193z"/>
				
					<linearGradient id="SVGID_30_" gradientUnits="userSpaceOnUse" x1="962.4414" y1="-3421.8145" x2="948.9143" y2="-3607.4963" gradientTransform="matrix(-0.187 0 0 -0.187 323.2372 -505.462)">
					<stop  offset="0" style="stop-color:#D7D6D5"/>
					<stop  offset="1" style="stop-color:#AAA8AD"/>
				</linearGradient>
				<path fill="url(#SVGID_30_)" d="M145.434,163.43V147.07c-0.428,0-0.863-0.008-1.307-0.008v16.412
					C144.57,163.467,145.006,163.449,145.434,163.43z"/>
				
					<linearGradient id="SVGID_31_" gradientUnits="userSpaceOnUse" x1="966.8115" y1="-3421.8174" x2="953.284" y2="-3607.5051" gradientTransform="matrix(-0.187 0 0 -0.187 321.1786 -505.462)">
					<stop  offset="0" style="stop-color:#D7D6D5"/>
					<stop  offset="1" style="stop-color:#AAA8AD"/>
				</linearGradient>
				<path fill="url(#SVGID_31_)" d="M142.555,163.475v-16.412c-0.443,0-0.877,0.008-1.305,0.008v16.359
					C141.678,163.449,142.111,163.467,142.555,163.475z"/>
				
					<linearGradient id="SVGID_32_" gradientUnits="userSpaceOnUse" x1="971.1787" y1="-3421.813" x2="957.6513" y2="-3607.4988" gradientTransform="matrix(-0.187 0 0 -0.187 319.12 -505.462)">
					<stop  offset="0" style="stop-color:#D7D6D5"/>
					<stop  offset="1" style="stop-color:#AAA8AD"/>
				</linearGradient>
				<path fill="url(#SVGID_32_)" d="M139.676,163.328v-16.242c-0.441,0.004-0.887,0.012-1.313,0.021v16.086
					C138.789,163.244,139.234,163.289,139.676,163.328z"/>
				
					<linearGradient id="SVGID_33_" gradientUnits="userSpaceOnUse" x1="975.4902" y1="-3421.8018" x2="961.9633" y2="-3607.4819" gradientTransform="matrix(-0.187 0 0 -0.187 317.0634 -505.462)">
					<stop  offset="0" style="stop-color:#D7D6D5"/>
					<stop  offset="1" style="stop-color:#AAA8AD"/>
				</linearGradient>
				<path fill="url(#SVGID_33_)" d="M136.799,162.979v-15.838c-0.451,0.01-0.883,0.025-1.313,0.041v15.576
					C135.916,162.838,136.348,162.912,136.799,162.979z"/>
				
					<linearGradient id="SVGID_34_" gradientUnits="userSpaceOnUse" x1="979.8008" y1="-3421.8228" x2="966.2756" y2="-3607.4771" gradientTransform="matrix(-0.187 0 0 -0.187 315.0067 -505.462)">
					<stop  offset="0" style="stop-color:#D7D6D5"/>
					<stop  offset="1" style="stop-color:#AAA8AD"/>
				</linearGradient>
				<path fill="url(#SVGID_34_)" d="M133.914,162.432v-15.186c-0.443,0.023-0.885,0.045-1.307,0.066v14.805
					C133.029,162.219,133.471,162.33,133.914,162.432z"/>
				
					<linearGradient id="SVGID_35_" gradientUnits="userSpaceOnUse" x1="984.0449" y1="-3421.7686" x2="970.5148" y2="-3607.4912" gradientTransform="matrix(-0.187 0 0 -0.187 312.9481 -505.462)">
					<stop  offset="0" style="stop-color:#D7D6D5"/>
					<stop  offset="1" style="stop-color:#AAA8AD"/>
				</linearGradient>
				<path fill="url(#SVGID_35_)" d="M131.035,161.666v-14.258c-0.449,0.027-0.885,0.059-1.305,0.098v13.73
					C130.143,161.385,130.586,161.525,131.035,161.666z"/>
				
					<linearGradient id="SVGID_36_" gradientUnits="userSpaceOnUse" x1="988.3086" y1="-3421.7773" x2="974.7812" y2="-3607.4631" gradientTransform="matrix(-0.187 0 0 -0.187 310.8915 -505.462)">
					<stop  offset="0" style="stop-color:#D7D6D5"/>
					<stop  offset="1" style="stop-color:#AAA8AD"/>
				</linearGradient>
				<path fill="url(#SVGID_36_)" d="M128.15,160.656v-13.004c-0.443,0.043-0.887,0.09-1.307,0.146v12.318
					C127.256,160.293,127.691,160.477,128.15,160.656z"/>
				
					<linearGradient id="SVGID_37_" gradientUnits="userSpaceOnUse" x1="992.4795" y1="-3421.7393" x2="978.9471" y2="-3607.4934" gradientTransform="matrix(-0.187 0 0 -0.187 308.8329 -505.462)">
					<stop  offset="0" style="stop-color:#D7D6D5"/>
					<stop  offset="1" style="stop-color:#AAA8AD"/>
				</linearGradient>
				<path fill="url(#SVGID_37_)" d="M124.334,158.883c0.289,0.154,0.598,0.326,0.938,0.496v-11.365
					c-0.449,0.066-0.887,0.141-1.305,0.213v10.449C124.092,158.752,124.209,158.818,124.334,158.883z"/>
				
					<linearGradient id="SVGID_38_" gradientUnits="userSpaceOnUse" x1="996.6123" y1="-3421.7773" x2="983.0878" y2="-3607.4231" gradientTransform="matrix(-0.187 0 0 -0.187 306.7762 -505.462)">
					<stop  offset="0" style="stop-color:#D7D6D5"/>
					<stop  offset="1" style="stop-color:#AAA8AD"/>
				</linearGradient>
				<path fill="url(#SVGID_38_)" d="M122.395,157.732v-9.172c-0.465,0.102-0.9,0.221-1.307,0.34v7.926
					C121.486,157.127,121.93,157.428,122.395,157.732z"/>
				
					<linearGradient id="SVGID_39_" gradientUnits="userSpaceOnUse" x1="1000.6543" y1="-3421.7222" x2="987.1284" y2="-3607.387" gradientTransform="matrix(-0.187 0 0 -0.187 304.7196 -505.462)">
					<stop  offset="0" style="stop-color:#D7D6D5"/>
					<stop  offset="1" style="stop-color:#AAA8AD"/>
				</linearGradient>
				<path fill="url(#SVGID_39_)" d="M119.516,155.514v-6.068c-0.516,0.207-0.951,0.436-1.306,0.664v3.99
					C118.557,154.551,118.992,155.025,119.516,155.514z"/>
			</g>
		</g>
		<g>
			
				<linearGradient id="SVGID_40_" gradientUnits="userSpaceOnUse" x1="-3888.8447" y1="984.3828" x2="-3865.2659" y2="864.8452" gradientTransform="matrix(0.3755 0 0 0.3755 1599.0479 -183.7856)">
				<stop  offset="0.0057" style="stop-color:#A5ADB3"/>
				<stop  offset="1" style="stop-color:#E1E1E1"/>
			</linearGradient>
			<path fill="url(#SVGID_40_)" d="M76.086,165.066c8.021,2.719,16.826,0.385,24.552,2.645c5.027,1.469,6.54,3.703,11.955,3.703
				c5.217,0,10.434,0,15.645,0c8.844,0,17.23,2.021,26.324,1.699c9.35-0.334,18.848-3.271,28.006-4.568
				c5.33-0.76,10.59,0.73,15.814-0.178c5.574-0.969,10.715-3.578,16.277-4.605c1.006-0.184,2.135-0.377,3.307-0.553
				c-2.109-6.053-34.748,4.914-74.705,4.914c-41.317,0-74.813-11.727-74.813-4.236c0,0.316,0.065,0.635,0.192,0.959
				C70.72,163.828,73.304,164.123,76.086,165.066z"/>
			
				<linearGradient id="SVGID_41_" gradientUnits="userSpaceOnUse" x1="-4227.4604" y1="1220.873" x2="-4227.4604" y2="1199.4276" gradientTransform="matrix(0.3755 0 0 0.3755 1730.7715 -279.5454)">
				<stop  offset="0.0057" style="stop-color:#A5ADB3"/>
				<stop  offset="1" style="stop-color:#E1E1E1"/>
			</linearGradient>
			<path fill="url(#SVGID_41_)" d="M143.262,177.451c41.313,0,74.816-6.072,74.816-13.564c0-0.252-0.043-0.471-0.111-0.678
				c-1.172,0.176-2.301,0.369-3.307,0.553c-5.563,1.027-10.703,3.637-16.277,4.605c-5.225,0.908-10.484-0.582-15.814,0.178
				c-9.158,1.297-18.656,4.234-28.006,4.568c-9.094,0.322-17.48-1.699-26.324-1.699c-5.211,0-10.428,0-15.645,0
				c-5.415,0-6.928-2.234-11.955-3.703c-7.726-2.26-16.531,0.074-24.552-2.645c-2.783-0.943-5.366-1.238-7.446-0.221
				C71.341,171.887,103.716,177.451,143.262,177.451z"/>
		</g>
		<g>
			
				<linearGradient id="SVGID_42_" gradientUnits="userSpaceOnUse" x1="-4056.9883" y1="842.1563" x2="-4043.7031" y2="774.8043" gradientTransform="matrix(0.2608 0.046 -0.0782 0.4433 1315.8104 -1.8452)">
				<stop  offset="0.0057" style="stop-color:#A5ADB3"/>
				<stop  offset="1" style="stop-color:#E1E1E1"/>
			</linearGradient>
			<path fill="url(#SVGID_42_)" d="M200.199,171.039c-1.314,7.459-4.156,13.186-6.354,12.803c-2.191-0.385-2.902-6.752-1.586-14.211
				c1.311-7.463,4.16-13.197,6.354-12.805C200.811,157.207,201.52,163.568,200.199,171.039z"/>
			
				<linearGradient id="SVGID_43_" gradientUnits="userSpaceOnUse" x1="-4096.4976" y1="1163.5479" x2="-4050.4937" y2="930.3228" gradientTransform="matrix(0.32 0.0564 -0.0782 0.4433 1570.5836 -31.2036)">
				<stop  offset="0.0057" style="stop-color:#A5ADB3"/>
				<stop  offset="1" style="stop-color:#E1E1E1"/>
			</linearGradient>
			<path fill="url(#SVGID_43_)" d="M193.846,183.842c0.84,0.148,1.777-0.605,2.691-2.006c1.672-11.971,0.658-18.693-0.951-22.457
				c-1.336,2.316-2.584,6.006-3.326,10.252C190.943,177.09,191.654,183.457,193.846,183.842z"/>
		</g>
		<g>
			
				<linearGradient id="SVGID_44_" gradientUnits="userSpaceOnUse" x1="-5013.4561" y1="439.9648" x2="-5000.1714" y2="372.6164" gradientTransform="matrix(0.2608 -0.046 0.0782 0.4433 1365.4434 -240.6113)">
				<stop  offset="0.0057" style="stop-color:#A5ADB3"/>
				<stop  offset="1" style="stop-color:#E1E1E1"/>
			</linearGradient>
			<path fill="url(#SVGID_44_)" d="M95.443,169.631c1.313,7.459,0.604,13.826-1.595,14.211c-2.189,0.383-5.032-5.344-6.354-12.803
				c-1.313-7.471-0.604-13.832,1.595-14.213C91.282,156.434,94.13,162.168,95.443,169.631z"/>
			
				<linearGradient id="SVGID_45_" gradientUnits="userSpaceOnUse" x1="-4876.29" y1="762.0352" x2="-4830.2822" y2="528.791" gradientTransform="matrix(0.32 -0.0564 0.0782 0.4433 1594.917 -354.7322)">
				<stop  offset="0.0057" style="stop-color:#A5ADB3"/>
				<stop  offset="1" style="stop-color:#E1E1E1"/>
			</linearGradient>
			<path fill="url(#SVGID_45_)" d="M93.848,183.842c0.843-0.146,1.461-1.178,1.84-2.805c-2.526-11.822-5.779-17.793-8.57-20.779
				c-0.456,2.631-0.367,6.521,0.377,10.781C88.816,178.498,91.659,184.225,93.848,183.842z"/>
		</g>
		<path fill="#B6211F" d="M180.996,136.672c0,7.859-16.928,6.258-37.82,6.258s-37.829,1.602-37.829-6.258
			c0-7.867,16.937-14.244,37.829-14.244S180.996,128.805,180.996,136.672z"/>
		
			<linearGradient id="SVGID_46_" gradientUnits="userSpaceOnUse" x1="-4336.7339" y1="438.7188" x2="-4336.7339" y2="399.2218" gradientTransform="matrix(0.2816 0 0 0.5046 1364.3958 -76.1909)">
			<stop  offset="0.0057" style="stop-color:#C41A1B"/>
			<stop  offset="0.0634" style="stop-color:#C61E1D"/>
			<stop  offset="0.1192" style="stop-color:#CB2921"/>
			<stop  offset="0.1743" style="stop-color:#D33D29"/>
			<stop  offset="0.2285" style="stop-color:#DF5835"/>
			<stop  offset="0.2822" style="stop-color:#EE7B43"/>
			<stop  offset="0.2825" style="stop-color:#EE7B43"/>
			<stop  offset="0.4507" style="stop-color:#E15D37"/>
			<stop  offset="0.6863" style="stop-color:#D13928"/>
			<stop  offset="0.8778" style="stop-color:#C8221E"/>
			<stop  offset="1" style="stop-color:#C41A1B"/>
		</linearGradient>
		<path fill="url(#SVGID_46_)" d="M180.996,135.252c0,7.867-16.928,6.266-37.82,6.266s-37.829,1.602-37.829-6.266
			c0-7.857,16.937-14.232,37.829-14.232S180.996,127.395,180.996,135.252z"/>
		
			<radialGradient id="SVGID_47_" cx="165.8154" cy="347.7539" r="5.8163" fx="161.2661" fy="345.4792" gradientTransform="matrix(1.1906 0 0 1.1906 -56.1797 -310)" gradientUnits="userSpaceOnUse">
			<stop  offset="0.0057" style="stop-color:#CCE2F0"/>
			<stop  offset="1" style="stop-color:#03313E"/>
		</radialGradient>
		<path fill="url(#SVGID_47_)" d="M148.244,103.875c0,1.565-1.262,2.827-2.818,2.827h-7.385c-1.568,0-2.828-1.262-2.828-2.827l0,0
			c0-1.556,1.26-2.818,2.828-2.818h7.385C146.982,101.057,148.244,102.318,148.244,103.875L148.244,103.875z"/>
		<path fill="#003D57" d="M138.041,101.225h7.385c1.529,0,2.768,1.226,2.811,2.739c0-0.03,0.008-0.058,0.008-0.089
			c0-1.556-1.262-2.818-2.818-2.818h-7.385c-1.568,0-2.828,1.262-2.828,2.818c0,0.031,0.006,0.06,0.006,0.089
			C135.273,102.451,136.512,101.225,138.041,101.225z"/>
		
			<radialGradient id="SVGID_48_" cx="-4055.6445" cy="1213.3486" r="14.4408" gradientTransform="matrix(0.3356 0 0 0.3356 1502.3308 -304.3577)" gradientUnits="userSpaceOnUse">
			<stop  offset="0.0057" style="stop-color:#C4E0F0"/>
			<stop  offset="1" style="stop-color:#273F49"/>
		</radialGradient>
		<path fill="url(#SVGID_48_)" d="M140.961,102.799c0,0.396,0.324,0.722,0.723,0.722c0.393,0,0.717-0.325,0.717-0.722v-4.208h-1.439
			V102.799z"/>
		
			<linearGradient id="SVGID_49_" gradientUnits="userSpaceOnUse" x1="50.6602" y1="386.9063" x2="49.7819" y2="374.8512" gradientTransform="matrix(1.1906 0 0 1.1906 28.3555 -310.6621)">
			<stop  offset="0" style="stop-color:#FFFFFF"/>
			<stop  offset="1" style="stop-color:#FFF168"/>
		</linearGradient>
		<path fill="url(#SVGID_49_)" d="M81.702,143.311c0,1.994,2.901,3.609,6.479,3.609c3.587,0,6.487-1.615,6.487-3.609
			c0-1.998-2.899-3.613-6.487-3.613C84.603,139.697,81.702,141.313,81.702,143.311z"/>
		
			<linearGradient id="SVGID_50_" gradientUnits="userSpaceOnUse" x1="76.5449" y1="386.9102" x2="75.6668" y2="374.8564" gradientTransform="matrix(1.1906 0 0 1.1906 105.4531 -310.6621)">
			<stop  offset="0" style="stop-color:#FFFFFF"/>
			<stop  offset="1" style="stop-color:#FFF168"/>
		</linearGradient>
		<path fill="url(#SVGID_50_)" d="M189.617,143.311c0,1.994,2.898,3.609,6.488,3.609c3.578,0,6.477-1.615,6.477-3.609
			c0-1.998-2.898-3.613-6.477-3.613C192.516,139.697,189.617,141.313,189.617,143.311z"/>
	</g>
	<path fill="#AED18F" d="M45.073,190.596c0.129,0.609-0.231,1.113-0.809,1.113H26.362c-0.577,0-0.939-0.504-0.809-1.113l0.897-4.232
		c0.107-0.486,0.596-0.877,1.096-0.877h15.531c0.504,0,0.992,0.391,1.097,0.877L45.073,190.596z"/>
	<path fill="#595958" d="M45.073,191.008c0.129,0.611-0.231,1.115-0.809,1.115H26.362c-0.577,0-0.939-0.504-0.809-1.115l0.897-4.232
		c0.107-0.488,0.596-0.877,1.096-0.877h15.531c0.504,0,0.992,0.389,1.097,0.877L45.073,191.008z"/>
	
		<linearGradient id="SVGID_51_" gradientUnits="userSpaceOnUse" x1="-734.1753" y1="-5702.7861" x2="-663.5826" y2="-5702.7861" gradientTransform="matrix(0.2765 0 0 0.2765 228.3394 1765.75)">
		<stop  offset="0" style="stop-color:#CDD1DF"/>
		<stop  offset="0.1967" style="stop-color:#B6BBC9"/>
		<stop  offset="0.3333" style="stop-color:#A3AAB7"/>
		<stop  offset="0.6667" style="stop-color:#FFFFFF"/>
		<stop  offset="0.7611" style="stop-color:#E8E8EB"/>
		<stop  offset="0.9146" style="stop-color:#C9C9CF"/>
		<stop  offset="1" style="stop-color:#BDBDC5"/>
	</linearGradient>
	<path fill="url(#SVGID_51_)" d="M45.073,190.928c0.129,0.605-0.231,1.113-0.809,1.113H26.362c-0.577,0-0.939-0.508-0.809-1.113
		l0.897-4.232c0.107-0.49,0.596-0.877,1.096-0.877h15.531c0.504,0,0.992,0.387,1.097,0.877L45.073,190.928z"/>
	<path fill="#595958" d="M45.073,190.512c0.129,0.611-0.231,1.115-0.809,1.115H26.362c-0.577,0-0.939-0.504-0.809-1.115l0.897-4.23
		c0.107-0.49,0.596-0.879,1.096-0.879h15.531c0.504,0,0.992,0.389,1.097,0.879L45.073,190.512z"/>
	
		<linearGradient id="SVGID_52_" gradientUnits="userSpaceOnUse" x1="-698.106" y1="-5694.2178" x2="-698.106" y2="-5724.3423" gradientTransform="matrix(0.2765 0 0 0.2765 228.3394 1765.75)">
		<stop  offset="0" style="stop-color:#E2E5ED"/>
		<stop  offset="1" style="stop-color:#BDBDC5"/>
	</linearGradient>
	<path fill="url(#SVGID_52_)" d="M45.073,190.43c0.129,0.609-0.231,1.117-0.809,1.117H26.362c-0.577,0-0.939-0.508-0.809-1.117
		l0.897-4.229c0.107-0.49,0.596-0.881,1.096-0.881h15.531c0.504,0,0.992,0.391,1.097,0.881L45.073,190.43z"/>
	
		<linearGradient id="SVGID_53_" gradientUnits="userSpaceOnUse" x1="-835.1245" y1="-2254.9736" x2="-823.2642" y2="-2254.9736" gradientTransform="matrix(-0.6336 0 0 0.6336 -489.9805 1595.126)">
		<stop  offset="0" style="stop-color:#CDD1DF"/>
		<stop  offset="0.1967" style="stop-color:#B6BBC9"/>
		<stop  offset="0.3333" style="stop-color:#A3AAB7"/>
		<stop  offset="0.6667" style="stop-color:#FFFFFF"/>
		<stop  offset="0.7611" style="stop-color:#E8E8EB"/>
		<stop  offset="0.9146" style="stop-color:#C9C9CF"/>
		<stop  offset="1" style="stop-color:#BDBDC5"/>
	</linearGradient>
	<path fill="url(#SVGID_53_)" d="M31.554,143.459v44.834c0,0.551,1.683,0.998,3.757,0.998c2.073,0,3.758-0.447,3.758-0.998v-44.834
		H31.554z"/>
	
		<linearGradient id="SVGID_54_" gradientUnits="userSpaceOnUse" x1="7218.9453" y1="82.9751" x2="7218.9453" y2="44.2499" gradientTransform="matrix(0 -0.2439 0.2439 0 19.6461 1930.5004)">
		<stop  offset="0" style="stop-color:#CDD1DF"/>
		<stop  offset="0.1967" style="stop-color:#B6BBC9"/>
		<stop  offset="0.3333" style="stop-color:#A3AAB7"/>
		<stop  offset="0.6836" style="stop-color:#D5D5D9"/>
		<stop  offset="0.8192" style="stop-color:#C9C9CF"/>
		<stop  offset="1" style="stop-color:#BDBDC5"/>
	</linearGradient>
	<rect x="31.554" y="168.238" fill="url(#SVGID_54_)" width="7.515" height="3.123"/>
	
		<linearGradient id="SVGID_55_" gradientUnits="userSpaceOnUse" x1="7219.4609" y1="82.9814" x2="7219.4609" y2="44.2657" gradientTransform="matrix(0 -0.2439 0.2439 0 19.6461 1931.2308)">
		<stop  offset="0" style="stop-color:#CDD1DF"/>
		<stop  offset="0.1967" style="stop-color:#B6BBC9"/>
		<stop  offset="0.3333" style="stop-color:#A3AAB7"/>
		<stop  offset="0.6667" style="stop-color:#FFFFFF"/>
		<stop  offset="0.7611" style="stop-color:#E8E8EB"/>
		<stop  offset="0.9146" style="stop-color:#C9C9CF"/>
		<stop  offset="1" style="stop-color:#BDBDC5"/>
	</linearGradient>
	<rect x="30.992" y="168.842" fill="url(#SVGID_55_)" width="8.642" height="3.125"/>
	
		<linearGradient id="SVGID_56_" gradientUnits="userSpaceOnUse" x1="7204.3555" y1="82.9751" x2="7204.3555" y2="44.2499" gradientTransform="matrix(0 -0.2439 0.2439 0 19.6461 1910.4144)">
		<stop  offset="0" style="stop-color:#CDD1DF"/>
		<stop  offset="0.1967" style="stop-color:#B6BBC9"/>
		<stop  offset="0.3333" style="stop-color:#A3AAB7"/>
		<stop  offset="0.6836" style="stop-color:#D5D5D9"/>
		<stop  offset="0.8192" style="stop-color:#C9C9CF"/>
		<stop  offset="1" style="stop-color:#BDBDC5"/>
	</linearGradient>
	<rect x="31.554" y="151.709" fill="url(#SVGID_56_)" width="7.515" height="3.125"/>
	
		<linearGradient id="SVGID_57_" gradientUnits="userSpaceOnUse" x1="7204.918" y1="82.9814" x2="7204.918" y2="44.2657" gradientTransform="matrix(0 -0.2439 0.2439 0 19.6461 1911.1517)">
		<stop  offset="0" style="stop-color:#CDD1DF"/>
		<stop  offset="0.1967" style="stop-color:#B6BBC9"/>
		<stop  offset="0.3333" style="stop-color:#A3AAB7"/>
		<stop  offset="0.6667" style="stop-color:#FFFFFF"/>
		<stop  offset="0.7611" style="stop-color:#E8E8EB"/>
		<stop  offset="0.9146" style="stop-color:#C9C9CF"/>
		<stop  offset="1" style="stop-color:#BDBDC5"/>
	</linearGradient>
	<rect x="30.992" y="152.309" fill="url(#SVGID_57_)" width="8.642" height="3.127"/>
	<path fill="#006FB5" d="M49.549,26.874c4.508,0,8.196,3.688,8.196,8.197v104.404c0,4.51-3.688,8.197-8.196,8.197H21.075
		c-4.509,0-8.196-3.688-8.196-8.197V35.071c0-4.509,3.688-8.197,8.196-8.197H49.549z"/>
	
		<linearGradient id="SVGID_58_" gradientUnits="userSpaceOnUse" x1="972.0996" y1="-215.4204" x2="971.7941" y2="-176.7637" gradientTransform="matrix(0 -1 1 0 234.6436 1059.2441)">
		<stop  offset="0" style="stop-color:#0091D5"/>
		<stop  offset="1" style="stop-color:#0079C0"/>
	</linearGradient>
	<path fill="url(#SVGID_58_)" d="M15.611,139.479c0,3.012,2.455,5.463,5.465,5.463H49.55c3.012,0,5.464-2.451,5.464-5.463V35.071
		c0-3.015-2.452-5.466-5.464-5.466H21.076c-3.01,0-5.465,2.451-5.465,5.466V139.479z"/>
	<path fill="#FFFFFF" d="M35.664,37.358l11.326,10.55c0.327,0.303,0.508,0.729,0.508,1.165c0,0.438-0.182,0.86-0.508,1.164
		l-11.326,10.55c-0.584,0.54-1.112,0.396-1.315,0.308c-0.205-0.091-0.673-0.381-0.673-1.175c0,0,0-3.734,0-3.736c0,0,0,0,0-0.002
		c-0.006,0-5.644,0-5.644,0c-0.91,0-1.649-0.739-1.649-1.646V43.605c0-0.904,0.739-1.644,1.649-1.644c0,0,5.638,0,5.644,0v-0.002
		c0-0.001,0-3.735,0-3.735c0-0.793,0.468-1.084,0.67-1.17C34.552,36.965,35.079,36.82,35.664,37.358z"/>
	<g>
		<path fill="#FFFFFF" d="M29.82,136.039c-0.842,0-1.53-0.686-1.53-1.531v-24.215c0-0.843,0.688-1.53,1.53-1.53h3.707
			c0.842,0,2.219,0.017,3.058,0.043c0,0,1.67,0.043,2.622,0.216c1.343,0.224,2.466,0.649,3.372,1.274
			c0.904,0.626,1.635,1.5,2.187,2.627c0.552,1.129,0.827,2.37,0.827,3.719c0,2.314-0.738,4.277-2.212,5.881
			c-1.481,1.604-4.145,2.408-8,2.408H33.44c-0.842,0-1.529,0.686-1.529,1.527v8.049c0,0.846-0.688,1.531-1.532,1.531H29.82z
			 M31.911,120.178c0,0.842,0.687,1.527,1.529,1.527h0.465c0.841,0,2.214-0.07,3.049-0.162c0,0,2.467-0.27,3.449-1.137
			c0.978-0.865,1.468-2.082,1.468-3.654c0-1.139-0.288-2.111-0.864-2.921c-0.574-0.81-1.337-1.343-2.281-1.603
			c-0.607-0.16-1.729-0.242-3.368-0.242H33.44c-0.842,0-1.529,0.688-1.529,1.53V120.178z"/>
	</g>
	<g>
		<g>
			<path fill="#FFFFFF" d="M51.598,89.396c-0.071-0.203-0.316-0.307-0.682-0.356c0.459-1.39,0.306-3.293-0.717-5.953
				c-0.275-0.715-0.867-1.266-1.723-1.693c0.062-0.119,0.122-0.239,0.174-0.356h1.674c0.321,0,0.591-0.127,0.763-0.313
				c-0.007,0.009-0.004,0.021-0.013,0.03c0.027-0.027,0.042-0.058,0.063-0.087c0.023-0.032,0.05-0.059,0.068-0.093
				c0.039-0.08,0.065-0.164,0.065-0.255v-0.538c0-0.397-0.422-0.719-0.947-0.719l-1.582,0.121c-0.153,0-0.292,0.032-0.418,0.081
				c-0.038,0.013-0.067,0.034-0.1,0.052c-0.088,0.043-0.161,0.093-0.223,0.157c-0.015,0.013-0.039,0.022-0.051,0.035
				c0.011-0.011,0.03-0.015,0.043-0.027c-0.116,0.121-0.2,0.259-0.2,0.418v0.42c0,0.128,0.038,0.239,0.092,0.343
				c-0.026,0.128-0.08,0.282-0.123,0.426c-0.067-0.026-0.137-0.048-0.206-0.071c-0.001-0.001-0.001-0.001-0.001-0.004
				c-3.078-6.687-4.364-5.991-12.351-5.991c-7.988,0-9.272-0.696-12.351,5.991c-0.041,0.086-0.052,0.172-0.082,0.257
				c-0.079,0.035-0.16,0.07-0.236,0.107c-0.043-0.13-0.096-0.269-0.123-0.388c0.04-0.093,0.063-0.191,0.063-0.299l0.006-0.42
				c0-0.159-0.083-0.299-0.198-0.418c0.012,0.011,0.031,0.017,0.043,0.026c-0.014-0.014-0.038-0.021-0.051-0.034
				c-0.063-0.063-0.138-0.115-0.224-0.16c-0.034-0.017-0.063-0.036-0.099-0.051c-0.129-0.048-0.269-0.082-0.421-0.082l-1.579-0.119
				c-0.525,0-0.95,0.321-0.95,0.719v0.539c0,0.09,0.027,0.175,0.069,0.255c0.017,0.031,0.041,0.058,0.063,0.089
				c0.022,0.03,0.038,0.063,0.065,0.09c-0.008-0.009-0.004-0.022-0.013-0.032c0.172,0.187,0.443,0.316,0.766,0.316h1.73
				c0.054,0.112,0.139,0.228,0.208,0.343c-0.528,0.365-0.904,0.806-1.109,1.334c-1.019,2.652-1.183,4.558-0.729,5.947
				c-0.447,0.06-0.693,0.213-0.693,0.508c0,0.068,0.015,0.137,0.042,0.208c0.173,0.45,0.921,0.872,2.095,1.244
				c0.359,0.261,0.748,0.497,1.2,0.683l0.523,2.976c0.136,0.776,0.879,1.295,1.655,1.158l1.313-0.231
				c0.71-0.125,1.178-0.757,1.153-1.458c0-0.008,0.005-0.015,0.005-0.021v-1.535c0.178,0.012,0.361,0.019,0.544,0.028l0.05,0.293
				c0.086,0.48,0.543,0.802,1.025,0.717l0.813-0.143c0.403-0.071,0.669-0.411,0.699-0.802c1.616,0.005,3.309-0.026,5.013-0.026
				c1.784,0,3.557,0.037,5.238,0.027c0.03,0.39,0.295,0.729,0.699,0.8l0.812,0.143c0.482,0.085,0.939-0.236,1.026-0.717l0.054-0.304
				c0.178-0.01,0.365-0.016,0.539-0.028v1.546c0,0.006,0.005,0.014,0.005,0.022c-0.022,0.699,0.445,1.331,1.155,1.456l1.313,0.231
				c0.775,0.137,1.517-0.382,1.655-1.158l0.542-3.084c0.363-0.165,0.686-0.364,0.981-0.583c1.337-0.426,2.112-0.919,2.112-1.444
				C51.621,89.488,51.611,89.44,51.598,89.396z M35.49,79.981c-5.035,0-9.073,0.146-11.666,0.906
				c1.323-2.878,1.932-4.159,3.169-4.799c1.327-0.685,3.144-0.668,6.15-0.641l2.061,0.01l2.06-0.01
				c3.006-0.028,4.823-0.044,6.151,0.641c1.213,0.628,1.82,1.872,3.091,4.628C43.909,80.105,40.123,79.981,35.49,79.981z
				 M35.958,75.997h-0.653v-0.532h-0.31v0.532h-0.63c-0.338,0-0.61,0.271-0.61,0.607c0,0.006,0.003,0.012,0.003,0.019
				c0-0.001,0.001-0.003,0.001-0.003c0.008,0.329,0.272,0.593,0.606,0.593h1.593c0.331,0,0.597-0.265,0.604-0.594
				c0,0,0.001,0.002,0.001,0.004c0-0.007,0.001-0.013,0.001-0.019C36.565,76.268,36.293,75.997,35.958,75.997z"/>
		</g>
		<linearGradient id="SVGID_59_" gradientUnits="userSpaceOnUse" x1="23.5151" y1="84.4487" x2="23.4903" y2="87.5908">
			<stop  offset="0" style="stop-color:#0091D5"/>
			<stop  offset="1" style="stop-color:#0079C0"/>
		</linearGradient>
		<path fill="url(#SVGID_59_)" d="M25.453,84.995c0,0.904-0.583,2.397-1.758,2.397c-1.178,0-2.131-0.731-2.131-1.635
			c0-0.902,0.953-1.634,2.131-1.634C24.87,84.123,25.453,84.091,25.453,84.995z"/>
		<linearGradient id="SVGID_60_" gradientUnits="userSpaceOnUse" x1="47.1143" y1="84.4521" x2="47.0894" y2="87.5937">
			<stop  offset="0" style="stop-color:#0091D5"/>
			<stop  offset="1" style="stop-color:#0079C0"/>
		</linearGradient>
		<path fill="url(#SVGID_60_)" d="M45.163,84.995c0,0.904,0.579,2.397,1.756,2.397c1.179,0,2.133-0.731,2.133-1.635
			c0-0.902-0.955-1.634-2.133-1.634C45.742,84.123,45.163,84.091,45.163,84.995z"/>
		<linearGradient id="SVGID_61_" gradientUnits="userSpaceOnUse" x1="35.5166" y1="84.2056" x2="35.4814" y2="88.6538">
			<stop  offset="0" style="stop-color:#0091D5"/>
			<stop  offset="1" style="stop-color:#0079C0"/>
		</linearGradient>
		<path fill="url(#SVGID_61_)" d="M29.299,85.266c0-1.28,2.779-1.524,6.208-1.524c3.431,0,6.211,0.245,6.211,1.524
			c0,1.278-2.78,3.104-6.211,3.104C32.079,88.37,29.299,86.543,29.299,85.266z"/>
		<path fill="#FFFFFF" d="M40.926,85.802v-0.859c-0.077-0.05-0.17-0.099-0.282-0.144v1.308
			C40.758,86.002,40.853,85.899,40.926,85.802z"/>
		<path fill="#FFFFFF" d="M40.306,86.389v-1.708c-0.088-0.024-0.181-0.05-0.281-0.073v1.977
			C40.125,86.521,40.22,86.456,40.306,86.389z"/>
		<path fill="#FFFFFF" d="M39.606,86.833c0.027-0.013,0.053-0.028,0.079-0.044v-2.253c-0.091-0.016-0.185-0.031-0.284-0.045v2.449
			C39.477,86.904,39.544,86.867,39.606,86.833z"/>
		<path fill="#FFFFFF" d="M39.065,87.099v-2.655c-0.093-0.013-0.187-0.023-0.284-0.032v2.804
			C38.882,87.178,38.976,87.138,39.065,87.099z"/>
		<path fill="#FFFFFF" d="M38.443,87.341v-2.96c-0.091-0.008-0.185-0.015-0.282-0.021v3.075
			C38.258,87.403,38.352,87.374,38.443,87.341z"/>
		<path fill="#FFFFFF" d="M37.822,87.532v-3.192c-0.092-0.005-0.186-0.009-0.281-0.015v3.275
			C37.636,87.577,37.731,87.553,37.822,87.532z"/>
		<path fill="#FFFFFF" d="M37.203,87.669v-3.358c-0.093-0.004-0.187-0.007-0.282-0.008v3.414
			C37.016,87.703,37.109,87.687,37.203,87.669z"/>
		<path fill="#FFFFFF" d="M36.581,87.764v-3.469c-0.093-0.001-0.187-0.002-0.282-0.005v3.503
			C36.394,87.784,36.487,87.774,36.581,87.764z"/>
		<path fill="#FFFFFF" d="M35.959,87.814v-3.527c-0.092,0-0.186-0.001-0.282-0.001v3.538C35.773,87.822,35.867,87.819,35.959,87.814
			z"/>
		<path fill="#FFFFFF" d="M35.338,87.823v-3.538c-0.095,0-0.189,0.001-0.281,0.001v3.527C35.149,87.819,35.244,87.822,35.338,87.823
			z"/>
		<path fill="#FFFFFF" d="M34.719,87.792v-3.503c-0.096,0.003-0.191,0.004-0.284,0.005v3.469
			C34.527,87.774,34.623,87.784,34.719,87.792z"/>
		<path fill="#FFFFFF" d="M34.098,87.717v-3.414c-0.097,0.001-0.192,0.004-0.284,0.008v3.358
			C33.906,87.687,34.001,87.703,34.098,87.717z"/>
		<path fill="#FFFFFF" d="M33.476,87.599v-3.275c-0.096,0.006-0.192,0.01-0.282,0.015v3.192
			C33.284,87.553,33.379,87.577,33.476,87.599z"/>
		<path fill="#FFFFFF" d="M32.854,87.435V84.36c-0.097,0.006-0.19,0.013-0.281,0.021v2.96
			C32.663,87.374,32.757,87.403,32.854,87.435z"/>
		<path fill="#FFFFFF" d="M32.232,87.216v-2.804c-0.094,0.009-0.19,0.019-0.281,0.032v2.655
			C32.041,87.138,32.133,87.178,32.232,87.216z"/>
		<path fill="#FFFFFF" d="M31.41,86.833c0.062,0.034,0.128,0.07,0.203,0.106v-2.449c-0.097,0.015-0.192,0.03-0.282,0.045v2.253
			C31.358,86.805,31.384,86.82,31.41,86.833z"/>
		<path fill="#FFFFFF" d="M30.992,86.585v-1.977c-0.1,0.023-0.194,0.049-0.282,0.073v1.708
			C30.796,86.456,30.892,86.521,30.992,86.585z"/>
		<path fill="#FFFFFF" d="M30.371,86.107v-1.308c-0.11,0.044-0.205,0.093-0.28,0.144v0.859
			C30.164,85.899,30.259,86.002,30.371,86.107z"/>
	</g>
</g>
</svg>
