<?xml version="1.0" encoding="utf-8"?>
<!-- Generator: Adobe Illustrator 16.0.0, SVG Export Plug-In . SVG Version: 6.00 Build 0)  -->
<!DOCTYPE svg PUBLIC "-//W3C//DTD SVG 1.1//EN" "http://www.w3.org/Graphics/SVG/1.1/DTD/svg11.dtd">
<svg version="1.1" id="Capa_1" xmlns="http://www.w3.org/2000/svg" xmlns:xlink="http://www.w3.org/1999/xlink" x="0px" y="0px"
	 width="100px" height="100px" viewBox="0 0 100 100" style="enable-background:new 0 0 100 100;" xml:space="preserve">
<g>
	<path style="fill:#FFD400;" d="M2.213,28.043c-1.07-4.047,1.325-8.254,5.303-9.34L71.636,1.26c3.984-1.087,8.117,1.343,9.191,5.389
		l17.191,65.114c1.065,4.05-1.334,8.252-5.309,9.341L28.591,98.561c-3.993,1.082-8.131-1.347-9.196-5.405L2.213,28.043z"/>
	<path style="fill:#1D1D1B;" d="M73.195,4.109L7.574,21.968c-0.97,0.261-1.737,0.899-2.188,1.713
		c-0.471,0.809-0.629,1.796-0.37,2.778l17.58,66.652c0.523,1.949,2.504,3.12,4.434,2.592l65.622-17.857
		c1.934-0.526,3.058-2.544,2.554-4.49L77.621,6.705C77.106,4.748,75.125,3.589,73.195,4.109z"/>
	<path style="fill:#FFD400;" d="M72.957,6.276c0,0,0.101-0.037,0.117-0.042C72.836,6.31,69.5,7.221,8.846,23.722
		c-0.614,0.174-1.132,0.564-1.454,1.135c-0.322,0.562-0.408,1.22-0.24,1.847l17.172,65.11c0.167,0.623,0.566,1.156,1.128,1.479
		c0.557,0.326,1.2,0.413,1.819,0.243L91.376,76.09c1.276-0.345,2.049-1.688,1.704-2.979L75.894,7.999
		C75.553,6.705,74.232,5.927,72.957,6.276z"/>
	<g>
		<g>
			<path d="M45.743,36.515c3.696-1.781,10.252,1.914,12.187-4.869c2.106-7.411-11.476-8.383-14.437-5.029
				c-2.098,2.382-2.299,5.729-2.77,8.963c-0.245,1.713-0.586,3.411-1.315,4.905c-2.481,5.03-9.407,11.342-4.146,14.696
				c2.006,1.286,4.89,0.097,5.941-0.795c6.029-5.049-0.777-12.037,3.283-16.913C44.85,37.043,45.277,36.736,45.743,36.515z"/>
			<path d="M55.049,24.826c1.92,0.442,4.07-3.015,2.059-4.356C55.044,19.801,53.215,23.583,55.049,24.826z"/>
			<path d="M51.843,23.798c1.545,0.373,3.618-3.05,1.372-3.899C51.661,19.289,49.453,23.106,51.843,23.798z"/>
			<path d="M48.249,23.925c1.315,0.227,3.105-2.99,1.195-3.597C48.133,19.892,46.224,23.461,48.249,23.925z"/>
			<path d="M44.783,24.873c1.234,0.254,3.043-2.753,1.272-3.377C44.827,21.037,42.888,24.385,44.783,24.873z"/>
			<path d="M58.159,23.529c-0.96,1.667-0.802,3.551,0.331,4.219c1.142,0.668,2.817-0.142,3.768-1.805
				c0.945-1.665,0.797-3.551-0.345-4.223C60.78,21.057,59.095,21.868,58.159,23.529z"/>
		</g>
		<g>
			<path d="M66.044,60.848c1.383-4.274-6.23-15.729-11.499-10.169c-5.428,5.729,3.417,9.979,1.738,14.727
				c-2.107,6.02-11.486,3.53-12.767,11.358c-0.24,1.354,0.183,4.487,2.275,5.609c5.505,2.958,7.415-6.292,10.467-10.985
				C58.888,67.356,64.542,65.518,66.044,60.848z"/>
			<path d="M61.691,49.83c-1.334-1.462,0.543-5.071,2.693-3.991C65.983,47.323,63.684,50.826,61.691,49.83z"/>
			<path d="M64.168,52.144c-1.091-1.175,0.796-4.713,2.649-3.161C68.113,50.045,65.962,53.902,64.168,52.144z"/>
			<path d="M65.867,55.356c-0.855-1.035,0.988-4.217,2.463-2.846C69.37,53.455,67.264,56.924,65.867,55.356z"/>
			<path d="M66.788,58.889c-0.825-0.96,0.832-4.06,2.251-2.802C70.048,56.929,68.157,60.312,66.788,58.889z"/>
			<path d="M61.25,46.467c-0.94,1.657-2.625,2.474-3.768,1.802c-1.123-0.664-1.3-2.557-0.355-4.217
				c0.951-1.664,2.645-2.476,3.777-1.808C62.047,42.912,62.2,44.806,61.25,46.467z"/>
		</g>
	</g>
</g>
</svg>
