<!--?xml version="1.0" standalone="no"?-->

<svg xmlns="http://www.w3.org/2000/svg" width="300.000000pt" height="236.000000pt" viewBox="0 0 300.000000 236.000000" preserveAspectRatio="xMidYMid meet">
<g transform="translate(0.000000,236.000000) scale(0.100000,-0.100000)" fill="#212123" stroke="none">
<path style="position: relative;" class="node" id="node1" d="M2386 2043 c-7 -7 -86 -14 -148 -13 -16 0 -43 0 -60 0 -18 0 -60 0
-94 1 -45 0 -64 -4 -74 -17 -13 -14 -10 -20 19 -46 18 -16 31 -31 29 -33 -2
-2 -21 5 -43 15 -73 35 -105 28 -184 -41 -39 -34 -71 -64 -71 -65 0 -14 28 4
82 52 57 51 65 55 98 49 19 -4 37 -11 40 -15 3 -5 17 -11 32 -15 15 -4 33 -14
40 -23 11 -14 10 -15 -12 -8 -51 16 -78 18 -85 6 -4 -7 -4 -15 1 -19 5 -3 9
-17 9 -31 0 -19 -8 -27 -32 -35 -45 -15 -52 -25 -17 -25 21 0 25 -3 15 -9 -21
-13 -76 -6 -121 17 -49 24 -53 12 -6 -17 58 -36 152 -22 220 32 l39 31 -6 -68
c-7 -78 -29 -122 -75 -151 -133 -84 -138 -86 -188 -60 -40 21 -108 19 -152 -4
-70 -36 -87 -39 -243 -45 -133 -5 -171 -3 -255 14 -55 11 -109 20 -122 20 -13
0 -52 14 -87 31 -77 37 -105 34 -158 -16 -43 -41 -97 -65 -144 -65 -46 0 -85
-22 -120 -67 -50 -63 -55 -82 -64 -207 -9 -123 -29 -196 -56 -196 -8 0 -13 13
-13 36 0 29 -7 44 -35 70 -19 18 -35 39 -35 48 0 8 -5 18 -11 22 -7 4 -9 21
-6 40 7 42 -1 43 -40 2 -42 -45 -56 -75 -49 -109 3 -16 1 -29 -4 -29 -6 0 -10
-8 -10 -19 0 -21 27 -48 37 -37 4 3 -2 13 -13 21 -18 14 -18 14 4 15 25 0 25
0 12 36 -7 19 -7 36 2 60 17 48 38 52 38 9 0 -24 5 -35 14 -35 25 0 84 -78 79
-104 -4 -17 1 -27 16 -36 44 -23 66 23 81 166 6 60 16 127 22 149 18 70 86
145 133 145 9 0 6 -8 -10 -25 -14 -13 -25 -29 -25 -34 0 -5 -12 -16 -26 -23
-42 -20 -66 -95 -69 -210 -5 -146 -44 -219 -111 -202 -19 5 -25 4 -20 -5 13
-21 71 -13 93 13 39 44 45 68 53 190 7 113 22 176 42 176 11 0 11 2 -8 -88
-13 -61 -15 -110 -11 -232 4 -86 11 -179 18 -208 10 -49 9 -55 -15 -96 -14
-25 -26 -54 -26 -67 0 -12 17 -73 37 -136 31 -98 35 -121 27 -152 -22 -80 24
-151 97 -151 42 0 109 25 109 41 0 6 16 8 43 4 58 -9 120 9 136 38 15 28 2 70
-35 107 -22 23 -22 28 -9 47 18 26 65 20 65 -8 0 -26 45 -47 68 -32 9 5 18 19
20 31 3 22 34 40 40 22 7 -20 33 -40 53 -40 25 0 45 41 31 66 -8 16 -3 26 26
56 l37 37 120 -11 c116 -10 122 -10 190 14 39 14 78 28 88 33 16 7 18 2 18
-41 2 -133 6 -290 7 -302 4 -30 132 -67 147 -42 4 6 -9 10 -32 10 -46 0 -98
30 -100 57 -1 18 6 21 60 26 58 5 64 3 86 -22 13 -14 21 -19 18 -11 -20 57
-20 56 2 31 12 -13 21 -32 21 -42 0 -10 0 -22 1 -26 0 -5 -10 -11 -23 -15 -21
-6 -22 -6 -2 -7 21 -1 54 27 54 45 0 5 21 9 48 9 26 1 59 4 74 8 25 7 26 9 16
37 -10 30 -25 46 -34 37 -3 -3 2 -16 11 -30 14 -23 14 -25 0 -31 -9 -3 -40 -6
-69 -6 -43 0 -57 4 -76 26 -19 20 -22 27 -11 33 17 11 29 191 13 191 -6 0 -11
-36 -14 -89 -6 -158 -38 -133 -38 30 0 137 8 199 27 199 9 0 12 -7 9 -17 -3
-10 -8 -40 -11 -68 -8 -64 10 -39 19 27 4 25 13 51 20 57 7 6 41 14 75 17 80
9 126 42 164 116 24 48 28 69 30 156 2 119 19 153 81 163 52 8 75 -8 98 -71
33 -92 33 -87 -6 -82 -41 5 -172 -50 -161 -68 8 -13 52 -13 60 0 3 6 17 10 31
10 13 0 24 -4 24 -10 0 -5 -6 -10 -14 -10 -8 0 -18 -4 -21 -10 -4 -6 7 -10 25
-10 27 0 33 6 50 46 21 48 30 49 63 7 30 -38 38 -16 16 40 -12 29 -30 75 -41
103 -12 31 -30 57 -44 65 -28 14 -29 24 -9 62 8 15 17 43 21 62 4 24 14 37 34
45 16 6 40 25 54 41 20 22 35 29 65 29 54 0 101 18 139 54 43 40 60 73 63 123
3 53 -17 82 -86 128 -54 36 -125 111 -125 132 0 6 14 13 30 17 17 3 49 23 71
44 34 31 42 46 46 85 l6 47 -35 0 c-19 0 -50 5 -67 11 -25 9 -39 9 -59 -1 -19
-8 -28 -8 -30 -1 -4 12 -35 15 -46 4z m176 -27 c21 -2 41 -5 44 -9 4 -3 -4
-27 -17 -53 -27 -53 -83 -92 -114 -80 -18 6 -17 9 10 31 29 23 29 24 8 25 -24
0 -27 7 -17 34 4 10 18 16 37 16 22 0 28 3 20 11 -19 19 -57 5 -78 -28 -23
-37 -35 -41 -35 -12 0 11 14 34 30 51 24 23 36 28 53 23 12 -4 39 -8 59 -9z
m-242 -17 c-3 -8 -5 -41 -5 -74 1 -83 40 -154 111 -201 53 -35 91 -43 112 -22
10 10 19 6 42 -17 17 -17 39 -39 50 -50 17 -16 19 -27 14 -65 -15 -98 -41
-121 -164 -140 -70 -11 -81 -10 -108 6 -54 32 -70 105 -29 141 36 33 62 43
119 44 29 1 64 5 78 9 19 6 11 9 -35 10 -95 4 -127 0 -170 -24 -38 -20 -40
-24 -43 -73 -2 -29 2 -62 8 -74 7 -11 9 -23 7 -26 -8 -7 -58 22 -91 52 -15 14
-31 23 -35 20 -3 -4 18 -29 47 -55 43 -41 63 -51 113 -61 57 -11 59 -12 43
-30 -10 -11 -30 -19 -46 -19 -35 0 -110 42 -154 85 -17 16 -45 37 -62 47 -21
11 -34 28 -41 55 -23 80 -8 106 57 102 51 -4 108 30 127 76 8 19 15 63 15 97
0 51 -6 72 -29 112 -17 28 -44 57 -63 67 -25 14 -28 18 -13 19 11 0 35 -4 54
-10 26 -7 39 -6 55 5 24 17 43 14 36 -6z m90 6 c0 -8 -7 -15 -15 -15 -16 0
-20 12 -8 23 11 12 23 8 23 -8z m-313 -19 c-6 -17 -51 -13 -55 5 -2 12 4 15
28 11 17 -2 29 -9 27 -16z m-1160 -433 l62 -27 -29 -32 c-36 -42 -56 -125 -38
-162 12 -25 19 -27 93 -32 l80 -5 7 -62 c16 -150 96 -232 233 -241 89 -5 133
13 172 71 39 58 56 112 59 186 2 48 6 58 44 96 49 50 62 103 36 152 -15 31
-15 31 14 43 29 12 114 9 127 -4 4 -3 -3 -24 -15 -45 -38 -67 -25 -122 33
-137 17 -4 24 -15 29 -46 11 -70 90 -122 161 -104 19 5 32 -1 61 -29 19 -19
40 -35 45 -35 5 0 9 -60 9 -135 0 -143 -7 -172 -53 -222 -26 -29 -96 -52 -174
-57 l-62 -4 4 67 4 66 -15 -55 c-11 -39 -16 -110 -17 -247 l-2 -191 -38 -13
c-28 -9 -43 -9 -61 -1 -22 10 -24 14 -15 44 14 51 11 109 -8 130 -14 15 -15
24 -5 55 9 29 8 56 -3 123 -8 47 -19 112 -24 145 -9 55 -10 53 -6 -38 l5 -98
-33 19 c-67 40 -132 37 -179 -10 -20 -20 -33 -23 -103 -23 -66 0 -89 -5 -132
-26 l-52 -25 -73 23 c-40 13 -100 26 -133 29 l-61 6 30 32 c46 49 85 142 97
233 7 51 7 88 1 98 -6 13 -11 -1 -15 -52 -14 -147 -66 -254 -151 -307 -28 -18
-79 -45 -113 -61 l-63 -29 0 -73 c0 -86 23 -156 69 -208 35 -40 39 -62 15 -72
-16 -6 -37 13 -47 41 -2 6 -7 8 -11 4 -4 -3 -2 -16 4 -28 14 -26 14 -27 -32
-35 -33 -6 -41 -4 -68 23 -16 17 -30 40 -30 52 0 19 4 21 30 15 19 -4 30 -3
30 4 0 6 -7 11 -15 11 -17 0 -18 2 -35 85 -6 33 -22 89 -34 125 -24 68 -24
122 -1 150 23 28 27 62 16 139 -5 42 -12 97 -14 122 l-4 47 72 4 c91 6 132 28
163 88 19 36 22 56 19 97 -5 46 -3 53 18 67 33 22 47 80 35 145 -12 63 -24 87
-51 102 l-21 11 23 24 c29 31 59 30 136 -3z m1023 -35 c16 -67 81 -210 115
-250 14 -17 23 -33 19 -37 -4 -3 -9 0 -11 7 -6 16 -30 16 -35 0 -14 -42 -101
131 -127 251 -10 48 -9 55 6 67 10 7 19 14 20 14 0 0 6 -24 13 -52z m311 -168
c18 0 9 -58 -14 -91 -28 -42 -75 -48 -124 -15 -45 29 -47 40 -13 76 16 17 32
47 36 65 l6 34 50 -35 c28 -18 54 -34 59 -34z m-1 -135 c-7 -9 -15 -13 -18
-10 -3 2 1 11 8 20 7 9 15 13 18 10 3 -2 -1 -11 -8 -20z m-154 -21 c-4 -9 -9
-15 -11 -12 -3 3 -3 13 1 22 4 9 9 15 11 12 3 -3 3 -13 -1 -22z m114 -4 c0 -5
-4 -10 -10 -10 -5 0 -10 5 -10 10 0 6 5 10 10 10 6 0 10 -4 10 -10z m-1174
-538 c118 -33 164 -51 164 -63 0 -4 -18 -23 -41 -42 -24 -21 -36 -38 -30 -42
6 -3 11 -17 11 -31 0 -32 -27 -32 -42 1 -13 28 -17 30 -53 13 -17 -7 -25 -19
-25 -35 0 -20 -5 -24 -22 -21 -16 2 -23 10 -23 25 -1 31 -9 36 -52 35 -26 -1
-43 -8 -54 -24 -15 -19 -19 -20 -33 -8 -9 7 -16 20 -15 29 2 9 -16 35 -38 57
-63 65 -62 79 5 112 70 35 102 34 248 -6z m-324 -41 c-12 -7 -11 -14 3 -41 11
-22 17 -60 18 -116 l2 -84 55 0 c30 0 61 4 69 9 8 5 -7 8 -42 7 -30 0 -57 1
-60 4 -2 3 -7 41 -9 85 l-4 81 22 -23 c13 -13 28 -23 33 -23 5 0 11 -15 13
-32 2 -25 10 -36 31 -46 35 -17 91 -102 77 -116 -6 -6 -17 -1 -30 15 l-21 24
6 -32 c5 -26 3 -32 -15 -38 -39 -12 -89 4 -104 33 -8 15 -24 36 -36 47 -35 31
-42 53 -49 144 -7 90 0 110 39 111 12 0 12 -2 2 -9z"></path>
<path style="position: relative;" class="node" id="node2" d="M2586 1585 c-20 -20 -21 -71 -2 -78 21 -8 48 27 44 59 -4 33 -20 41
-42 19z"></path>
<path style="position: relative;" class="node" id="node3" d="M2155 1550 c-8 -12 20 -24 35 -15 6 3 8 11 5 16 -8 12 -32 12 -40 -1z"></path>
<path style="position: relative;" class="node" id="node4" d="M2395 1544 c-34 -35 -1 -83 48 -70 34 8 37 48 5 70 -28 20 -33 20
-53 0z"></path>
<path style="position: relative;" class="node" id="node5" d="M200 1018 c0 -41 115 -81 135 -47 11 18 -4 23 -31 11 -29 -14 -56 -3
-86 32 -15 18 -17 18 -18 4z"></path>
<path style="position: relative;" class="node" id="node6" d="M2306 888 c-30 -15 -51 -19 -90 -15 l-50 4 23 -18 c32 -26 90 -24
131 4 32 21 51 47 33 47 -4 -1 -26 -10 -47 -22z"></path>
<path style="position: relative;" class="node" id="node7" d="M1996 702 c-15 -24 -26 -143 -20 -213 9 -110 22 -90 17 28 -3 69 0
112 10 146 8 26 11 47 7 47 -5 0 -11 -3 -14 -8z"></path>
<path style="position: relative;" class="node" id="node8" d="M1950 400 c-9 -6 -10 -10 -3 -10 6 0 15 5 18 10 8 12 4 12 -15 0z"></path>
<path style="position: relative;" class="node" id="node9" d="M2033 393 c10 -12 22 -34 26 -49 7 -25 10 -26 16 -11 8 20 -20 67
-46 75 -10 4 -9 -1 4 -15z"></path>
</g>
<g transform="translate(0.000000,236.000000) scale(0.100000,-0.100000)" fill="#FFFFFF" stroke="none">

<path style="position: relative;" class="node" id="node11" d="M2450 2002 c-16 -17 -30 -40 -30 -51 0 -29 12 -25 35 12 21 33 59 47
78 28 8 -8 2 -11 -20 -11 -19 0 -33 -6 -37 -16 -10 -27 -7 -34 17 -34 21 -1
21 -2 -8 -25 -27 -22 -28 -25 -10 -31 31 -12 87 27 114 80 13 26 21 50 17 53
-3 4 -23 7 -44 9 -20 1 -47 5 -59 9 -17 5 -29 0 -53 -23z"></path>
<path style="position: relative;" class="node" id="node12" d="M2284 2005 c-16 -11 -29 -12 -55 -5 -19 6 -43 10 -54 10 -15 -1 -12
-5 13 -19 19 -10 46 -39 63 -67 23 -40 29 -61 29 -112 0 -34 -7 -78 -15 -97
-19 -46 -76 -80 -127 -76 -65 4 -80 -22 -57 -102 7 -27 20 -44 41 -55 17 -10
45 -31 62 -47 44 -43 119 -85 154 -85 16 0 36 8 46 19 16 18 14 19 -43 30 -50
10 -70 20 -113 61 -29 26 -50 51 -47 55 4 3 20 -6 35 -20 33 -30 83 -59 91
-52 2 3 0 15 -7 26 -6 12 -10 45 -8 74 3 49 5 53 43 73 43 24 75 28 170 24 46
-1 54 -4 35 -10 -14 -4 -49 -8 -78 -9 -57 -1 -83 -11 -119 -44 -41 -36 -25
-109 29 -141 27 -16 38 -17 108 -6 123 19 149 42 164 140 5 38 3 49 -14 65
-11 11 -33 33 -50 50 -23 23 -32 27 -42 17 -21 -21 -59 -13 -112 22 -71 47
-110 118 -111 201 0 33 2 66 5 74 7 20 -12 23 -36 6z m344 -439 c4 -32 -23
-67 -44 -59 -19 7 -18 58 2 78 22 22 38 14 42 -19z m-433 -15 c3 -5 1 -13 -5
-16 -15 -9 -43 3 -35 15 8 13 32 13 40 1z m253 -7 c32 -22 29 -62 -5 -70 -49
-13 -82 35 -48 70 20 20 25 20 53 0z"></path>
<path style="position: relative;" class="node" id="node13" d="M2387 2013 c-12 -11 -8 -23 8 -23 8 0 15 7 15 15 0 16 -12 20 -23 8z"></path>
<path style="position: relative;" class="node" id="node14" d="M2042 1991 c2 -9 13 -16 27 -16 36 0 37 22 1 27 -24 4 -30 1 -28 -11z"></path>
<path style="position: relative;" class="node" id="node15" d="M801 1556 l-23 -24 21 -11 c27 -15 39 -39 51 -102 12 -65 -2 -123
-35 -145 -21 -14 -23 -21 -18 -67 3 -41 0 -61 -19 -97 -31 -60 -72 -82 -163
-88 l-72 -4 4 -47 c2 -25 9 -80 14 -122 11 -77 7 -111 -16 -139 -23 -28 -23
-82 1 -150 12 -36 28 -92 34 -125 17 -83 18 -85 35 -85 8 0 15 -5 15 -11 0 -7
-11 -8 -30 -4 -26 6 -30 4 -30 -15 0 -12 14 -35 30 -52 27 -27 35 -29 68 -23
46 8 46 9 32 35 -6 12 -8 25 -4 28 4 4 9 2 11 -4 10 -28 31 -47 47 -41 24 10
20 32 -15 72 -46 52 -69 122 -69 208 l0 73 63 29 c34 16 85 43 113 61 85 53
137 160 151 307 4 51 9 65 15 52 6 -10 6 -47 -1 -98 -12 -91 -51 -184 -97
-233 l-30 -32 61 -6 c33 -3 93 -16 133 -29 l73 -23 52 25 c43 21 66 26 132 26
70 0 83 3 103 23 47 47 112 50 179 10 l33 -19 -5 98 c-4 91 -3 93 6 38 5 -33
16 -98 24 -145 11 -67 12 -94 3 -123 -10 -31 -9 -40 5 -55 19 -21 22 -79 8
-130 -9 -30 -7 -34 15 -44 18 -8 33 -8 61 1 l38 13 2 191 c1 137 6 208 17 247
l15 55 -4 -66 -4 -67 62 4 c78 5 148 28 174 57 46 50 53 79 53 222 0 75 -4
135 -9 135 -5 0 -26 16 -45 35 -29 28 -42 34 -61 29 -71 -18 -150 34 -161 104
-5 31 -12 42 -29 46 -58 15 -71 70 -33 137 12 21 19 42 15 45 -13 13 -98 16
-127 4 -29 -12 -29 -12 -14 -43 26 -49 13 -102 -36 -152 -38 -38 -42 -48 -44
-96 -3 -74 -20 -128 -59 -186 -39 -58 -83 -76 -172 -71 -137 9 -217 91 -233
241 l-7 62 -80 5 c-74 5 -81 7 -93 32 -18 37 2 120 38 162 l29 32 -62 27 c-77
33 -107 34 -136 3z"></path>
<path style="position: relative;" class="node" id="node16" d="M1927 1556 c-15 -12 -16 -19 -6 -67 26 -120 113 -293 127 -251 5 16
29 16 35 0 2 -7 7 -10 11 -7 4 4 -5 20 -19 37 -34 40 -99 183 -115 250 -7 28
-13 52 -13 52 -1 0 -10 -7 -20 -14z"></path>
<path style="position: relative;" class="node" id="node17" d="M2156 1385 c-4 -18 -20 -48 -36 -65 -34 -36 -32 -47 13 -76 49 -33
96 -27 124 15 23 33 32 91 14 91 -5 0 -31 16 -59 34 l-50 35 -6 -34z"></path>
<path style="position: relative;" class="node" id="node18" d="M2260 1225 c-7 -9 -11 -18 -8 -20 3 -3 11 1 18 10 7 9 11 18 8 20 -3
3 -11 -1 -18 -10z"></path>
<path style="position: relative;" class="node" id="node19" d="M2106 1204 c-4 -9 -4 -19 -1 -22 2 -3 7 3 11 12 4 9 4 19 1 22 -2 3
-7 -3 -11 -12z"></path>
<path style="position: relative;" class="node" id="node20" d="M2210 1190 c0 -5 5 -10 10 -10 6 0 10 5 10 10 0 6 -4 10 -10 10 -5 0
-10 -4 -10 -10z"></path>
<path style="position: relative;" class="node" id="node21" d="M808 658 c-67 -33 -68 -47 -5 -112 22 -22 40 -48 38 -57 -1 -9 6 -22
15 -29 14 -12 18 -11 33 8 11 16 28 23 54 24 43 1 51 -4 52 -35 0 -15 7 -23
23 -25 17 -3 22 1 22 21 0 16 8 28 25 35 36 17 40 15 53 -13 15 -33 42 -33 42
-1 0 14 -5 28 -11 31 -6 4 6 21 30 42 23 19 41 38 41 42 0 12 -46 30 -164 63
-146 40 -178 41 -248 6z"></path>
<path style="position: relative;" class="node" id="node22" d="M699 607 c-13 -10 -14 -26 -8 -98 7 -91 14 -113 49 -144 12 -11 28
-32 36 -47 15 -29 65 -45 104 -33 18 6 20 12 15 38 l-6 32 21 -24 c13 -16 24
-21 30 -15 14 14 -42 99 -77 116 -21 10 -29 21 -31 46 -2 17 -8 32 -13 32 -5
0 -20 10 -33 23 l-22 23 4 -81 c2 -44 7 -82 9 -85 3 -3 30 -4 60 -4 35 1 50
-2 42 -7 -8 -5 -39 -9 -69 -9 l-55 0 -2 84 c-1 56 -7 94 -18 116 -14 27 -15
34 -3 41 10 7 10 9 -2 9 -8 -1 -22 -6 -31 -13z"></path>
</g>
</svg>